%TF.GenerationSoftware,KiCad,Pcbnew,5.1.12-84ad8e8a86~92~ubuntu21.04.1*%
%TF.CreationDate,2021-11-23T21:41:36+01:00*%
%TF.ProjectId,main,6d61696e-2e6b-4696-9361-645f70636258,rev?*%
%TF.SameCoordinates,Original*%
%TF.FileFunction,Legend,Top*%
%TF.FilePolarity,Positive*%
%FSLAX46Y46*%
G04 Gerber Fmt 4.6, Leading zero omitted, Abs format (unit mm)*
G04 Created by KiCad (PCBNEW 5.1.12-84ad8e8a86~92~ubuntu21.04.1) date 2021-11-23 21:41:36*
%MOMM*%
%LPD*%
G01*
G04 APERTURE LIST*
%ADD10C,0.150000*%
%ADD11C,0.120000*%
%ADD12C,0.010000*%
%ADD13C,0.100000*%
G04 APERTURE END LIST*
D10*
X127585595Y-143853571D02*
X127918928Y-143853571D01*
X128061785Y-144377380D02*
X127585595Y-144377380D01*
X127585595Y-143377380D01*
X128061785Y-143377380D01*
X128347500Y-143710714D02*
X128728452Y-143710714D01*
X128490357Y-143377380D02*
X128490357Y-144234523D01*
X128537976Y-144329761D01*
X128633214Y-144377380D01*
X128728452Y-144377380D01*
X129490357Y-144329761D02*
X129395119Y-144377380D01*
X129204642Y-144377380D01*
X129109404Y-144329761D01*
X129061785Y-144282142D01*
X129014166Y-144186904D01*
X129014166Y-143901190D01*
X129061785Y-143805952D01*
X129109404Y-143758333D01*
X129204642Y-143710714D01*
X129395119Y-143710714D01*
X129490357Y-143758333D01*
X129918928Y-144377380D02*
X129918928Y-143377380D01*
X130347500Y-144377380D02*
X130347500Y-143853571D01*
X130299880Y-143758333D01*
X130204642Y-143710714D01*
X130061785Y-143710714D01*
X129966547Y-143758333D01*
X129918928Y-143805952D01*
X130823690Y-143996428D02*
X131585595Y-143996428D01*
X132014166Y-144091666D02*
X132490357Y-144091666D01*
X131918928Y-144377380D02*
X132252261Y-143377380D01*
X132585595Y-144377380D01*
X132918928Y-143996428D02*
X133680833Y-143996428D01*
X134109404Y-144329761D02*
X134252261Y-144377380D01*
X134490357Y-144377380D01*
X134585595Y-144329761D01*
X134633214Y-144282142D01*
X134680833Y-144186904D01*
X134680833Y-144091666D01*
X134633214Y-143996428D01*
X134585595Y-143948809D01*
X134490357Y-143901190D01*
X134299880Y-143853571D01*
X134204642Y-143805952D01*
X134157023Y-143758333D01*
X134109404Y-143663095D01*
X134109404Y-143567857D01*
X134157023Y-143472619D01*
X134204642Y-143425000D01*
X134299880Y-143377380D01*
X134537976Y-143377380D01*
X134680833Y-143425000D01*
X135109404Y-144377380D02*
X135109404Y-143377380D01*
X135204642Y-143996428D02*
X135490357Y-144377380D01*
X135490357Y-143710714D02*
X135109404Y-144091666D01*
X136299880Y-144329761D02*
X136204642Y-144377380D01*
X136014166Y-144377380D01*
X135918928Y-144329761D01*
X135871309Y-144234523D01*
X135871309Y-143853571D01*
X135918928Y-143758333D01*
X136014166Y-143710714D01*
X136204642Y-143710714D01*
X136299880Y-143758333D01*
X136347500Y-143853571D01*
X136347500Y-143948809D01*
X135871309Y-144044047D01*
X136633214Y-143710714D02*
X137014166Y-143710714D01*
X136776071Y-143377380D02*
X136776071Y-144234523D01*
X136823690Y-144329761D01*
X136918928Y-144377380D01*
X137014166Y-144377380D01*
X137776071Y-144329761D02*
X137680833Y-144377380D01*
X137490357Y-144377380D01*
X137395119Y-144329761D01*
X137347500Y-144282142D01*
X137299880Y-144186904D01*
X137299880Y-143901190D01*
X137347500Y-143805952D01*
X137395119Y-143758333D01*
X137490357Y-143710714D01*
X137680833Y-143710714D01*
X137776071Y-143758333D01*
X138204642Y-144377380D02*
X138204642Y-143377380D01*
X138633214Y-144377380D02*
X138633214Y-143853571D01*
X138585595Y-143758333D01*
X138490357Y-143710714D01*
X138347500Y-143710714D01*
X138252261Y-143758333D01*
X138204642Y-143805952D01*
X139871309Y-144377380D02*
X139871309Y-143710714D01*
X139871309Y-143805952D02*
X139918928Y-143758333D01*
X140014166Y-143710714D01*
X140157023Y-143710714D01*
X140252261Y-143758333D01*
X140299880Y-143853571D01*
X140299880Y-144377380D01*
X140299880Y-143853571D02*
X140347500Y-143758333D01*
X140442738Y-143710714D01*
X140585595Y-143710714D01*
X140680833Y-143758333D01*
X140728452Y-143853571D01*
X140728452Y-144377380D01*
X141347500Y-144377380D02*
X141252261Y-144329761D01*
X141204642Y-144282142D01*
X141157023Y-144186904D01*
X141157023Y-143901190D01*
X141204642Y-143805952D01*
X141252261Y-143758333D01*
X141347500Y-143710714D01*
X141490357Y-143710714D01*
X141585595Y-143758333D01*
X141633214Y-143805952D01*
X141680833Y-143901190D01*
X141680833Y-144186904D01*
X141633214Y-144282142D01*
X141585595Y-144329761D01*
X141490357Y-144377380D01*
X141347500Y-144377380D01*
X142537976Y-143710714D02*
X142537976Y-144377380D01*
X142109404Y-143710714D02*
X142109404Y-144234523D01*
X142157023Y-144329761D01*
X142252261Y-144377380D01*
X142395119Y-144377380D01*
X142490357Y-144329761D01*
X142537976Y-144282142D01*
X142966547Y-144329761D02*
X143061785Y-144377380D01*
X143252261Y-144377380D01*
X143347500Y-144329761D01*
X143395119Y-144234523D01*
X143395119Y-144186904D01*
X143347500Y-144091666D01*
X143252261Y-144044047D01*
X143109404Y-144044047D01*
X143014166Y-143996428D01*
X142966547Y-143901190D01*
X142966547Y-143853571D01*
X143014166Y-143758333D01*
X143109404Y-143710714D01*
X143252261Y-143710714D01*
X143347500Y-143758333D01*
X144204642Y-144329761D02*
X144109404Y-144377380D01*
X143918928Y-144377380D01*
X143823690Y-144329761D01*
X143776071Y-144234523D01*
X143776071Y-143853571D01*
X143823690Y-143758333D01*
X143918928Y-143710714D01*
X144109404Y-143710714D01*
X144204642Y-143758333D01*
X144252261Y-143853571D01*
X144252261Y-143948809D01*
X143776071Y-144044047D01*
X145347500Y-143710714D02*
X145585595Y-144377380D01*
X145823690Y-143710714D01*
X146728452Y-144377380D02*
X146157023Y-144377380D01*
X146442738Y-144377380D02*
X146442738Y-143377380D01*
X146347500Y-143520238D01*
X146252261Y-143615476D01*
X146157023Y-143663095D01*
X147157023Y-144282142D02*
X147204642Y-144329761D01*
X147157023Y-144377380D01*
X147109404Y-144329761D01*
X147157023Y-144282142D01*
X147157023Y-144377380D01*
X147823690Y-143377380D02*
X147918928Y-143377380D01*
X148014166Y-143425000D01*
X148061785Y-143472619D01*
X148109404Y-143567857D01*
X148157023Y-143758333D01*
X148157023Y-143996428D01*
X148109404Y-144186904D01*
X148061785Y-144282142D01*
X148014166Y-144329761D01*
X147918928Y-144377380D01*
X147823690Y-144377380D01*
X147728452Y-144329761D01*
X147680833Y-144282142D01*
X147633214Y-144186904D01*
X147585595Y-143996428D01*
X147585595Y-143758333D01*
X147633214Y-143567857D01*
X147680833Y-143472619D01*
X147728452Y-143425000D01*
X147823690Y-143377380D01*
X148585595Y-144282142D02*
X148633214Y-144329761D01*
X148585595Y-144377380D01*
X148537976Y-144329761D01*
X148585595Y-144282142D01*
X148585595Y-144377380D01*
X149252261Y-143377380D02*
X149347500Y-143377380D01*
X149442738Y-143425000D01*
X149490357Y-143472619D01*
X149537976Y-143567857D01*
X149585595Y-143758333D01*
X149585595Y-143996428D01*
X149537976Y-144186904D01*
X149490357Y-144282142D01*
X149442738Y-144329761D01*
X149347500Y-144377380D01*
X149252261Y-144377380D01*
X149157023Y-144329761D01*
X149109404Y-144282142D01*
X149061785Y-144186904D01*
X149014166Y-143996428D01*
X149014166Y-143758333D01*
X149061785Y-143567857D01*
X149109404Y-143472619D01*
X149157023Y-143425000D01*
X149252261Y-143377380D01*
X127585595Y-146027380D02*
X127585595Y-145027380D01*
X127585595Y-145503571D02*
X128157023Y-145503571D01*
X128157023Y-146027380D02*
X128157023Y-145027380D01*
X129061785Y-146027380D02*
X129061785Y-145503571D01*
X129014166Y-145408333D01*
X128918928Y-145360714D01*
X128728452Y-145360714D01*
X128633214Y-145408333D01*
X129061785Y-145979761D02*
X128966547Y-146027380D01*
X128728452Y-146027380D01*
X128633214Y-145979761D01*
X128585595Y-145884523D01*
X128585595Y-145789285D01*
X128633214Y-145694047D01*
X128728452Y-145646428D01*
X128966547Y-145646428D01*
X129061785Y-145598809D01*
X129680833Y-146027380D02*
X129585595Y-145979761D01*
X129537976Y-145884523D01*
X129537976Y-145027380D01*
X129966547Y-145360714D02*
X130204642Y-146027380D01*
X130442738Y-145360714D01*
X130966547Y-146027380D02*
X130871309Y-145979761D01*
X130823690Y-145932142D01*
X130776071Y-145836904D01*
X130776071Y-145551190D01*
X130823690Y-145455952D01*
X130871309Y-145408333D01*
X130966547Y-145360714D01*
X131109404Y-145360714D01*
X131204642Y-145408333D01*
X131252261Y-145455952D01*
X131299880Y-145551190D01*
X131299880Y-145836904D01*
X131252261Y-145932142D01*
X131204642Y-145979761D01*
X131109404Y-146027380D01*
X130966547Y-146027380D01*
X131728452Y-146027380D02*
X131728452Y-145360714D01*
X131728452Y-145551190D02*
X131776071Y-145455952D01*
X131823690Y-145408333D01*
X131918928Y-145360714D01*
X132014166Y-145360714D01*
X133442738Y-145503571D02*
X133585595Y-145551190D01*
X133633214Y-145598809D01*
X133680833Y-145694047D01*
X133680833Y-145836904D01*
X133633214Y-145932142D01*
X133585595Y-145979761D01*
X133490357Y-146027380D01*
X133109404Y-146027380D01*
X133109404Y-145027380D01*
X133442738Y-145027380D01*
X133537976Y-145075000D01*
X133585595Y-145122619D01*
X133633214Y-145217857D01*
X133633214Y-145313095D01*
X133585595Y-145408333D01*
X133537976Y-145455952D01*
X133442738Y-145503571D01*
X133109404Y-145503571D01*
X134109404Y-145360714D02*
X134109404Y-146217857D01*
X134061785Y-146313095D01*
X133966547Y-146360714D01*
X133918928Y-146360714D01*
X134109404Y-145027380D02*
X134061785Y-145075000D01*
X134109404Y-145122619D01*
X134157023Y-145075000D01*
X134109404Y-145027380D01*
X134109404Y-145122619D01*
X135109404Y-145360714D02*
X134490357Y-146027380D01*
X134728452Y-146027380D02*
X134633214Y-145979761D01*
X134585595Y-145932142D01*
X134537976Y-145836904D01*
X134537976Y-145551190D01*
X134585595Y-145455952D01*
X134633214Y-145408333D01*
X134728452Y-145360714D01*
X134871309Y-145360714D01*
X134966547Y-145408333D01*
X135014166Y-145455952D01*
X135061785Y-145551190D01*
X135061785Y-145836904D01*
X135014166Y-145932142D01*
X134966547Y-145979761D01*
X134871309Y-146027380D01*
X134728452Y-146027380D01*
X135490357Y-146027380D02*
X135490357Y-145360714D01*
X135490357Y-145551190D02*
X135537976Y-145455952D01*
X135585595Y-145408333D01*
X135680833Y-145360714D01*
X135776071Y-145360714D01*
X136061785Y-145979761D02*
X136157023Y-146027380D01*
X136347500Y-146027380D01*
X136442738Y-145979761D01*
X136490357Y-145884523D01*
X136490357Y-145836904D01*
X136442738Y-145741666D01*
X136347500Y-145694047D01*
X136204642Y-145694047D01*
X136109404Y-145646428D01*
X136061785Y-145551190D01*
X136061785Y-145503571D01*
X136109404Y-145408333D01*
X136204642Y-145360714D01*
X136347500Y-145360714D01*
X136442738Y-145408333D01*
X136776071Y-145360714D02*
X137157023Y-145360714D01*
X136918928Y-145027380D02*
X136918928Y-145884523D01*
X136966547Y-145979761D01*
X137061785Y-146027380D01*
X137157023Y-146027380D01*
X137918928Y-146027380D02*
X137918928Y-145503571D01*
X137871309Y-145408333D01*
X137776071Y-145360714D01*
X137585595Y-145360714D01*
X137490357Y-145408333D01*
X137918928Y-145979761D02*
X137823690Y-146027380D01*
X137585595Y-146027380D01*
X137490357Y-145979761D01*
X137442738Y-145884523D01*
X137442738Y-145789285D01*
X137490357Y-145694047D01*
X137585595Y-145646428D01*
X137823690Y-145646428D01*
X137918928Y-145598809D01*
X138823690Y-146027380D02*
X138823690Y-145027380D01*
X138823690Y-145979761D02*
X138728452Y-146027380D01*
X138537976Y-146027380D01*
X138442738Y-145979761D01*
X138395119Y-145932142D01*
X138347500Y-145836904D01*
X138347500Y-145551190D01*
X138395119Y-145455952D01*
X138442738Y-145408333D01*
X138537976Y-145360714D01*
X138728452Y-145360714D01*
X138823690Y-145408333D01*
X112202380Y-138452380D02*
X112202380Y-137452380D01*
X112440476Y-137452380D01*
X112583333Y-137500000D01*
X112678571Y-137595238D01*
X112726190Y-137690476D01*
X112773809Y-137880952D01*
X112773809Y-138023809D01*
X112726190Y-138214285D01*
X112678571Y-138309523D01*
X112583333Y-138404761D01*
X112440476Y-138452380D01*
X112202380Y-138452380D01*
X113583333Y-138404761D02*
X113488095Y-138452380D01*
X113297619Y-138452380D01*
X113202380Y-138404761D01*
X113154761Y-138309523D01*
X113154761Y-137928571D01*
X113202380Y-137833333D01*
X113297619Y-137785714D01*
X113488095Y-137785714D01*
X113583333Y-137833333D01*
X113630952Y-137928571D01*
X113630952Y-138023809D01*
X113154761Y-138119047D01*
X114059523Y-138452380D02*
X114059523Y-137452380D01*
X114059523Y-137833333D02*
X114154761Y-137785714D01*
X114345238Y-137785714D01*
X114440476Y-137833333D01*
X114488095Y-137880952D01*
X114535714Y-137976190D01*
X114535714Y-138261904D01*
X114488095Y-138357142D01*
X114440476Y-138404761D01*
X114345238Y-138452380D01*
X114154761Y-138452380D01*
X114059523Y-138404761D01*
X115392857Y-137785714D02*
X115392857Y-138452380D01*
X114964285Y-137785714D02*
X114964285Y-138309523D01*
X115011904Y-138404761D01*
X115107142Y-138452380D01*
X115250000Y-138452380D01*
X115345238Y-138404761D01*
X115392857Y-138357142D01*
X116297619Y-137785714D02*
X116297619Y-138595238D01*
X116250000Y-138690476D01*
X116202380Y-138738095D01*
X116107142Y-138785714D01*
X115964285Y-138785714D01*
X115869047Y-138738095D01*
X116297619Y-138404761D02*
X116202380Y-138452380D01*
X116011904Y-138452380D01*
X115916666Y-138404761D01*
X115869047Y-138357142D01*
X115821428Y-138261904D01*
X115821428Y-137976190D01*
X115869047Y-137880952D01*
X115916666Y-137833333D01*
X116011904Y-137785714D01*
X116202380Y-137785714D01*
X116297619Y-137833333D01*
D11*
X119000000Y-143750000D02*
X117500000Y-143750000D01*
X119000000Y-140250000D02*
X119000000Y-143750000D01*
X117500000Y-140250000D02*
X119000000Y-140250000D01*
D10*
X155238095Y-121352500D02*
X155142857Y-121304880D01*
X155000000Y-121304880D01*
X154857142Y-121352500D01*
X154761904Y-121447738D01*
X154714285Y-121542976D01*
X154666666Y-121733452D01*
X154666666Y-121876309D01*
X154714285Y-122066785D01*
X154761904Y-122162023D01*
X154857142Y-122257261D01*
X155000000Y-122304880D01*
X155095238Y-122304880D01*
X155238095Y-122257261D01*
X155285714Y-122209642D01*
X155285714Y-121876309D01*
X155095238Y-121876309D01*
X155714285Y-122304880D02*
X155714285Y-121304880D01*
X156285714Y-122304880D01*
X156285714Y-121304880D01*
X156761904Y-122304880D02*
X156761904Y-121304880D01*
X157000000Y-121304880D01*
X157142857Y-121352500D01*
X157238095Y-121447738D01*
X157285714Y-121542976D01*
X157333333Y-121733452D01*
X157333333Y-121876309D01*
X157285714Y-122066785D01*
X157238095Y-122162023D01*
X157142857Y-122257261D01*
X157000000Y-122304880D01*
X156761904Y-122304880D01*
D11*
X153730000Y-123190000D02*
X157500000Y-123190000D01*
D10*
X154547619Y-127166666D02*
X155547619Y-127166666D01*
X155547619Y-127547619D01*
X155500000Y-127642857D01*
X155452380Y-127690476D01*
X155357142Y-127738095D01*
X155214285Y-127738095D01*
X155119047Y-127690476D01*
X155071428Y-127642857D01*
X155023809Y-127547619D01*
X155023809Y-127166666D01*
X154833333Y-128119047D02*
X154833333Y-128595238D01*
X154547619Y-128023809D02*
X155547619Y-128357142D01*
X154547619Y-128690476D01*
X155452380Y-128976190D02*
X155500000Y-129023809D01*
X155547619Y-129119047D01*
X155547619Y-129357142D01*
X155500000Y-129452380D01*
X155452380Y-129500000D01*
X155357142Y-129547619D01*
X155261904Y-129547619D01*
X155119047Y-129500000D01*
X154547619Y-128928571D01*
X154547619Y-129547619D01*
X155214285Y-130404761D02*
X154547619Y-130404761D01*
X155595238Y-130166666D02*
X154880952Y-129928571D01*
X154880952Y-130547619D01*
X154928571Y-130928571D02*
X154928571Y-131690476D01*
X155214285Y-132166666D02*
X154928571Y-132928571D01*
X154642857Y-132166666D01*
X154547619Y-133928571D02*
X154547619Y-133357142D01*
X154547619Y-133642857D02*
X155547619Y-133642857D01*
X155404761Y-133547619D01*
X155309523Y-133452380D01*
X155261904Y-133357142D01*
X155547619Y-134785714D02*
X155547619Y-134595238D01*
X155500000Y-134500000D01*
X155452380Y-134452380D01*
X155309523Y-134357142D01*
X155119047Y-134309523D01*
X154738095Y-134309523D01*
X154642857Y-134357142D01*
X154595238Y-134404761D01*
X154547619Y-134500000D01*
X154547619Y-134690476D01*
X154595238Y-134785714D01*
X154642857Y-134833333D01*
X154738095Y-134880952D01*
X154976190Y-134880952D01*
X155071428Y-134833333D01*
X155119047Y-134785714D01*
X155166666Y-134690476D01*
X155166666Y-134500000D01*
X155119047Y-134404761D01*
X155071428Y-134357142D01*
X154976190Y-134309523D01*
X88952380Y-133857142D02*
X87952380Y-133857142D01*
X87952380Y-133476190D01*
X88000000Y-133380952D01*
X88047619Y-133333333D01*
X88142857Y-133285714D01*
X88285714Y-133285714D01*
X88380952Y-133333333D01*
X88428571Y-133380952D01*
X88476190Y-133476190D01*
X88476190Y-133857142D01*
X88666666Y-132904761D02*
X88666666Y-132428571D01*
X88952380Y-133000000D02*
X87952380Y-132666666D01*
X88952380Y-132333333D01*
X87952380Y-131809523D02*
X87952380Y-131714285D01*
X88000000Y-131619047D01*
X88047619Y-131571428D01*
X88142857Y-131523809D01*
X88333333Y-131476190D01*
X88571428Y-131476190D01*
X88761904Y-131523809D01*
X88857142Y-131571428D01*
X88904761Y-131619047D01*
X88952380Y-131714285D01*
X88952380Y-131809523D01*
X88904761Y-131904761D01*
X88857142Y-131952380D01*
X88761904Y-132000000D01*
X88571428Y-132047619D01*
X88333333Y-132047619D01*
X88142857Y-132000000D01*
X88047619Y-131952380D01*
X88000000Y-131904761D01*
X87952380Y-131809523D01*
X87952380Y-131142857D02*
X87952380Y-130476190D01*
X88952380Y-130904761D01*
X88571428Y-130095238D02*
X88571428Y-129333333D01*
X88285714Y-128857142D02*
X88571428Y-128095238D01*
X88857142Y-128857142D01*
X87952380Y-127428571D02*
X87952380Y-127333333D01*
X88000000Y-127238095D01*
X88047619Y-127190476D01*
X88142857Y-127142857D01*
X88333333Y-127095238D01*
X88571428Y-127095238D01*
X88761904Y-127142857D01*
X88857142Y-127190476D01*
X88904761Y-127238095D01*
X88952380Y-127333333D01*
X88952380Y-127428571D01*
X88904761Y-127523809D01*
X88857142Y-127571428D01*
X88761904Y-127619047D01*
X88571428Y-127666666D01*
X88333333Y-127666666D01*
X88142857Y-127619047D01*
X88047619Y-127571428D01*
X88000000Y-127523809D01*
X87952380Y-127428571D01*
X140238095Y-127071428D02*
X141000000Y-127071428D01*
X140619047Y-127452380D02*
X140619047Y-126690476D01*
X141952380Y-126452380D02*
X141476190Y-126452380D01*
X141428571Y-126928571D01*
X141476190Y-126880952D01*
X141571428Y-126833333D01*
X141809523Y-126833333D01*
X141904761Y-126880952D01*
X141952380Y-126928571D01*
X142000000Y-127023809D01*
X142000000Y-127261904D01*
X141952380Y-127357142D01*
X141904761Y-127404761D01*
X141809523Y-127452380D01*
X141571428Y-127452380D01*
X141476190Y-127404761D01*
X141428571Y-127357142D01*
X142285714Y-126452380D02*
X142619047Y-127452380D01*
X142952380Y-126452380D01*
X143476190Y-126452380D02*
X143571428Y-126452380D01*
X143666666Y-126500000D01*
X143714285Y-126547619D01*
X143761904Y-126642857D01*
X143809523Y-126833333D01*
X143809523Y-127071428D01*
X143761904Y-127261904D01*
X143714285Y-127357142D01*
X143666666Y-127404761D01*
X143571428Y-127452380D01*
X143476190Y-127452380D01*
X143380952Y-127404761D01*
X143333333Y-127357142D01*
X143285714Y-127261904D01*
X143238095Y-127071428D01*
X143238095Y-126833333D01*
X143285714Y-126642857D01*
X143333333Y-126547619D01*
X143380952Y-126500000D01*
X143476190Y-126452380D01*
X108738095Y-126500000D02*
X108642857Y-126452380D01*
X108500000Y-126452380D01*
X108357142Y-126500000D01*
X108261904Y-126595238D01*
X108214285Y-126690476D01*
X108166666Y-126880952D01*
X108166666Y-127023809D01*
X108214285Y-127214285D01*
X108261904Y-127309523D01*
X108357142Y-127404761D01*
X108500000Y-127452380D01*
X108595238Y-127452380D01*
X108738095Y-127404761D01*
X108785714Y-127357142D01*
X108785714Y-127023809D01*
X108595238Y-127023809D01*
X109214285Y-127452380D02*
X109214285Y-126452380D01*
X109785714Y-127452380D01*
X109785714Y-126452380D01*
X110261904Y-127452380D02*
X110261904Y-126452380D01*
X110500000Y-126452380D01*
X110642857Y-126500000D01*
X110738095Y-126595238D01*
X110785714Y-126690476D01*
X110833333Y-126880952D01*
X110833333Y-127023809D01*
X110785714Y-127214285D01*
X110738095Y-127309523D01*
X110642857Y-127404761D01*
X110500000Y-127452380D01*
X110261904Y-127452380D01*
X99285714Y-127071428D02*
X100047619Y-127071428D01*
X99666666Y-127452380D02*
X99666666Y-126690476D01*
X100428571Y-126452380D02*
X101047619Y-126452380D01*
X100714285Y-126833333D01*
X100857142Y-126833333D01*
X100952380Y-126880952D01*
X101000000Y-126928571D01*
X101047619Y-127023809D01*
X101047619Y-127261904D01*
X101000000Y-127357142D01*
X100952380Y-127404761D01*
X100857142Y-127452380D01*
X100571428Y-127452380D01*
X100476190Y-127404761D01*
X100428571Y-127357142D01*
X101380952Y-126785714D02*
X101619047Y-127452380D01*
X101857142Y-126785714D01*
X102142857Y-126452380D02*
X102761904Y-126452380D01*
X102428571Y-126833333D01*
X102571428Y-126833333D01*
X102666666Y-126880952D01*
X102714285Y-126928571D01*
X102761904Y-127023809D01*
X102761904Y-127261904D01*
X102714285Y-127357142D01*
X102666666Y-127404761D01*
X102571428Y-127452380D01*
X102285714Y-127452380D01*
X102190476Y-127404761D01*
X102142857Y-127357142D01*
D12*
%TO.C,G\u002A\u002A\u002A*%
G36*
X132719894Y-149419643D02*
G01*
X132871620Y-149484492D01*
X133007677Y-149581652D01*
X133122300Y-149709539D01*
X133189627Y-149822403D01*
X133220458Y-149890439D01*
X133239018Y-149950136D01*
X133248300Y-150016831D01*
X133251296Y-150105864D01*
X133251417Y-150139123D01*
X133249889Y-150236321D01*
X133243094Y-150307094D01*
X133227715Y-150367304D01*
X133200432Y-150432815D01*
X133181978Y-150471118D01*
X133084414Y-150624203D01*
X132958353Y-150746437D01*
X132805661Y-150836467D01*
X132628206Y-150892941D01*
X132589959Y-150900082D01*
X132500000Y-150915054D01*
X132500000Y-150705077D01*
X132586609Y-150691227D01*
X132726541Y-150648219D01*
X132851489Y-150566023D01*
X132917030Y-150500720D01*
X132998674Y-150378660D01*
X133043198Y-150245669D01*
X133051951Y-150108484D01*
X133026283Y-149973840D01*
X132967545Y-149848474D01*
X132877087Y-149739123D01*
X132756258Y-149652523D01*
X132745951Y-149647103D01*
X132608572Y-149598747D01*
X132467799Y-149589088D01*
X132330553Y-149615766D01*
X132203759Y-149676420D01*
X132094338Y-149768690D01*
X132009213Y-149890215D01*
X132004229Y-149899986D01*
X131973190Y-149976668D01*
X131953426Y-150053156D01*
X131949667Y-150089989D01*
X131949667Y-150170500D01*
X131843834Y-150170500D01*
X131781170Y-150169061D01*
X131749920Y-150160510D01*
X131739172Y-150138494D01*
X131738000Y-150108885D01*
X131755628Y-149983232D01*
X131804142Y-149849498D01*
X131876982Y-149719356D01*
X131967592Y-149604477D01*
X132069414Y-149516534D01*
X132071619Y-149515065D01*
X132228363Y-149434817D01*
X132392500Y-149393221D01*
X132558266Y-149388692D01*
X132719894Y-149419643D01*
G37*
X132719894Y-149419643D02*
X132871620Y-149484492D01*
X133007677Y-149581652D01*
X133122300Y-149709539D01*
X133189627Y-149822403D01*
X133220458Y-149890439D01*
X133239018Y-149950136D01*
X133248300Y-150016831D01*
X133251296Y-150105864D01*
X133251417Y-150139123D01*
X133249889Y-150236321D01*
X133243094Y-150307094D01*
X133227715Y-150367304D01*
X133200432Y-150432815D01*
X133181978Y-150471118D01*
X133084414Y-150624203D01*
X132958353Y-150746437D01*
X132805661Y-150836467D01*
X132628206Y-150892941D01*
X132589959Y-150900082D01*
X132500000Y-150915054D01*
X132500000Y-150705077D01*
X132586609Y-150691227D01*
X132726541Y-150648219D01*
X132851489Y-150566023D01*
X132917030Y-150500720D01*
X132998674Y-150378660D01*
X133043198Y-150245669D01*
X133051951Y-150108484D01*
X133026283Y-149973840D01*
X132967545Y-149848474D01*
X132877087Y-149739123D01*
X132756258Y-149652523D01*
X132745951Y-149647103D01*
X132608572Y-149598747D01*
X132467799Y-149589088D01*
X132330553Y-149615766D01*
X132203759Y-149676420D01*
X132094338Y-149768690D01*
X132009213Y-149890215D01*
X132004229Y-149899986D01*
X131973190Y-149976668D01*
X131953426Y-150053156D01*
X131949667Y-150089989D01*
X131949667Y-150170500D01*
X131843834Y-150170500D01*
X131781170Y-150169061D01*
X131749920Y-150160510D01*
X131739172Y-150138494D01*
X131738000Y-150108885D01*
X131755628Y-149983232D01*
X131804142Y-149849498D01*
X131876982Y-149719356D01*
X131967592Y-149604477D01*
X132069414Y-149516534D01*
X132071619Y-149515065D01*
X132228363Y-149434817D01*
X132392500Y-149393221D01*
X132558266Y-149388692D01*
X132719894Y-149419643D01*
G36*
X131755923Y-147513164D02*
G01*
X131780657Y-147532475D01*
X131827033Y-147578857D01*
X131889803Y-147646682D01*
X131963722Y-147730323D01*
X132023021Y-147799691D01*
X132255126Y-148075000D01*
X132790101Y-148075000D01*
X133030786Y-147799833D01*
X133120003Y-147700337D01*
X133197000Y-147619390D01*
X133257680Y-147561032D01*
X133297947Y-147529304D01*
X133309722Y-147524666D01*
X133351208Y-147533121D01*
X133417854Y-147555704D01*
X133500316Y-147588247D01*
X133589248Y-147626577D01*
X133675306Y-147666524D01*
X133749143Y-147703919D01*
X133801416Y-147734590D01*
X133822520Y-147753515D01*
X133825554Y-147785706D01*
X133825306Y-147852268D01*
X133822026Y-147945386D01*
X133815963Y-148057245D01*
X133810002Y-148145165D01*
X133783868Y-148501331D01*
X133974772Y-148692235D01*
X134165675Y-148883139D01*
X134514374Y-148859276D01*
X134633442Y-148852002D01*
X134739164Y-148847183D01*
X134823683Y-148845050D01*
X134879143Y-148845831D01*
X134896167Y-148848113D01*
X134918179Y-148872771D01*
X134949602Y-148928159D01*
X134986530Y-149004826D01*
X135025056Y-149093317D01*
X135061272Y-149184181D01*
X135091271Y-149267965D01*
X135111146Y-149335216D01*
X135116990Y-149376481D01*
X135116223Y-149380508D01*
X135096561Y-149406499D01*
X135049882Y-149454068D01*
X134981839Y-149517872D01*
X134898086Y-149592568D01*
X134829077Y-149651916D01*
X134554202Y-149884750D01*
X134553684Y-150150888D01*
X134553167Y-150417027D01*
X134817568Y-150648305D01*
X134907196Y-150728847D01*
X134985467Y-150803236D01*
X135046659Y-150865711D01*
X135085052Y-150910514D01*
X135095176Y-150927793D01*
X135092213Y-150965501D01*
X135074473Y-151030361D01*
X135045897Y-151112825D01*
X135010427Y-151203346D01*
X134972004Y-151292375D01*
X134934569Y-151370364D01*
X134902063Y-151427765D01*
X134878426Y-151455029D01*
X134877353Y-151455507D01*
X134847653Y-151457611D01*
X134783321Y-151456558D01*
X134691914Y-151452652D01*
X134580991Y-151446200D01*
X134487368Y-151439715D01*
X134125882Y-151412987D01*
X133747952Y-151790917D01*
X133771661Y-152157590D01*
X133780526Y-152314242D01*
X133784174Y-152429961D01*
X133782610Y-152505824D01*
X133775842Y-152542910D01*
X133773833Y-152545800D01*
X133748002Y-152560855D01*
X133689964Y-152589037D01*
X133606588Y-152627189D01*
X133504742Y-152672152D01*
X133417190Y-152709796D01*
X133296016Y-152761795D01*
X133147577Y-152826257D01*
X132983191Y-152898222D01*
X132814175Y-152972730D01*
X132651845Y-153044820D01*
X132601911Y-153067127D01*
X132468146Y-153126397D01*
X132345988Y-153179404D01*
X132241101Y-153223783D01*
X132159150Y-153257165D01*
X132105798Y-153277182D01*
X132087916Y-153282000D01*
X132050956Y-153272847D01*
X131992284Y-153249336D01*
X131948963Y-153228726D01*
X131885249Y-153199644D01*
X131853083Y-153195894D01*
X131849860Y-153220564D01*
X131872975Y-153276741D01*
X131886167Y-153303166D01*
X131919660Y-153384437D01*
X131924633Y-153453010D01*
X131901308Y-153527270D01*
X131889170Y-153552718D01*
X131859971Y-153618302D01*
X131838616Y-153678878D01*
X131836297Y-153687680D01*
X131820395Y-153723408D01*
X131786166Y-153750731D01*
X131723282Y-153777091D01*
X131702324Y-153784253D01*
X131637046Y-153808922D01*
X131590529Y-153831977D01*
X131574851Y-153845530D01*
X131589316Y-153862704D01*
X131634022Y-153885276D01*
X131682359Y-153902773D01*
X131750601Y-153926095D01*
X131795638Y-153950469D01*
X131827708Y-153986244D01*
X131857051Y-154043769D01*
X131882466Y-154105030D01*
X131913452Y-154189163D01*
X131925074Y-154251756D01*
X131916938Y-154309112D01*
X131888651Y-154377537D01*
X131875227Y-154404536D01*
X131849517Y-154461406D01*
X131838209Y-154499581D01*
X131841375Y-154509666D01*
X131869892Y-154501342D01*
X131923374Y-154479831D01*
X131972080Y-154458108D01*
X132036181Y-154429712D01*
X132079420Y-154418164D01*
X132119224Y-154422255D01*
X132173019Y-154440777D01*
X132180557Y-154443651D01*
X132276837Y-154481787D01*
X132341740Y-154513347D01*
X132383899Y-154545581D01*
X132411949Y-154585737D01*
X132434525Y-154641064D01*
X132441993Y-154663125D01*
X132465956Y-154727319D01*
X132487526Y-154771420D01*
X132500000Y-154784833D01*
X132515417Y-154766403D01*
X132537697Y-154718499D01*
X132558008Y-154663125D01*
X132579447Y-154603162D01*
X132602259Y-154560885D01*
X132635090Y-154528932D01*
X132686589Y-154499939D01*
X132765402Y-154466542D01*
X132809175Y-154449256D01*
X132917267Y-154406842D01*
X133028236Y-154458254D01*
X133091730Y-154486214D01*
X133140156Y-154504887D01*
X133158625Y-154509666D01*
X133160606Y-154492843D01*
X133145612Y-154449336D01*
X133124773Y-154404536D01*
X133091534Y-154333215D01*
X133076421Y-154276556D01*
X133079801Y-154220796D01*
X133102038Y-154152171D01*
X133133404Y-154079307D01*
X133167309Y-154006892D01*
X133195628Y-153962558D01*
X133229486Y-153935491D01*
X133280006Y-153914876D01*
X133313751Y-153904000D01*
X133375721Y-153880868D01*
X133415868Y-153858880D01*
X133425172Y-153845599D01*
X133402556Y-153827113D01*
X133352860Y-153803661D01*
X133319566Y-153791392D01*
X133255147Y-153765380D01*
X133205353Y-153737617D01*
X133192019Y-153726500D01*
X133167445Y-153688047D01*
X133136930Y-153625439D01*
X133106669Y-153553543D01*
X133082861Y-153487227D01*
X133071701Y-153441359D01*
X133071500Y-153437323D01*
X133080141Y-153408650D01*
X133102217Y-153354774D01*
X133131961Y-153288215D01*
X133163605Y-153221498D01*
X133191379Y-153167144D01*
X133209515Y-153137677D01*
X133209541Y-153137648D01*
X133230086Y-153142288D01*
X133275230Y-153161792D01*
X133301930Y-153174940D01*
X133388295Y-153219000D01*
X133334268Y-153329875D01*
X133304465Y-153394546D01*
X133292501Y-153437566D01*
X133296476Y-153474731D01*
X133311921Y-153515776D01*
X133335989Y-153560734D01*
X133369860Y-153591024D01*
X133426194Y-153615920D01*
X133466842Y-153629276D01*
X133537136Y-153653284D01*
X133592644Y-153675958D01*
X133616542Y-153689133D01*
X133632289Y-153723538D01*
X133641400Y-153790496D01*
X133643000Y-153842227D01*
X133639060Y-153925506D01*
X133622052Y-153982085D01*
X133584199Y-154021650D01*
X133517720Y-154053887D01*
X133455712Y-154075422D01*
X133385100Y-154102621D01*
X133342951Y-154132796D01*
X133315994Y-154176016D01*
X133312521Y-154184053D01*
X133296556Y-154229831D01*
X133296165Y-154268088D01*
X133313377Y-154315883D01*
X133333025Y-154356286D01*
X133374306Y-154441244D01*
X133395573Y-154500082D01*
X133396474Y-154544175D01*
X133376653Y-154584895D01*
X133335756Y-154633617D01*
X133323977Y-154646450D01*
X133263319Y-154705239D01*
X133209785Y-154734811D01*
X133151693Y-154736660D01*
X133077362Y-154712284D01*
X133019558Y-154685421D01*
X132953912Y-154654535D01*
X132911301Y-154641187D01*
X132877077Y-154643627D01*
X132836592Y-154660107D01*
X132830776Y-154662870D01*
X132788342Y-154688605D01*
X132757617Y-154725039D01*
X132730494Y-154783963D01*
X132712739Y-154834527D01*
X132685179Y-154905612D01*
X132657042Y-154959428D01*
X132634738Y-154984079D01*
X132574411Y-154996474D01*
X132499368Y-154997902D01*
X132425253Y-154989702D01*
X132367709Y-154973215D01*
X132347250Y-154959458D01*
X132322544Y-154918719D01*
X132294303Y-154854528D01*
X132278313Y-154809920D01*
X132249857Y-154737523D01*
X132216881Y-154693123D01*
X132169255Y-154662884D01*
X132127069Y-154644868D01*
X132092869Y-154640687D01*
X132052006Y-154652090D01*
X131989831Y-154680824D01*
X131980442Y-154685421D01*
X131909850Y-154716271D01*
X131847698Y-154736997D01*
X131815910Y-154742500D01*
X131774485Y-154727027D01*
X131720513Y-154687876D01*
X131665869Y-154635945D01*
X131622430Y-154582133D01*
X131604950Y-154548897D01*
X131607487Y-154513239D01*
X131625721Y-154452994D01*
X131655724Y-154381084D01*
X131656339Y-154379781D01*
X131689151Y-154307851D01*
X131705005Y-154260990D01*
X131705911Y-154226423D01*
X131693877Y-154191371D01*
X131687955Y-154178665D01*
X131657061Y-154132961D01*
X131608287Y-154100005D01*
X131543579Y-154075186D01*
X131454588Y-154042553D01*
X131399258Y-154008763D01*
X131369796Y-153964083D01*
X131358405Y-153898782D01*
X131357000Y-153842227D01*
X131361355Y-153760318D01*
X131373326Y-153705286D01*
X131383459Y-153689133D01*
X131417224Y-153671459D01*
X131476902Y-153648067D01*
X131529694Y-153630368D01*
X131599591Y-153605749D01*
X131641215Y-153580170D01*
X131667580Y-153543304D01*
X131682377Y-153509214D01*
X131701474Y-153453123D01*
X131702232Y-153411873D01*
X131683397Y-153363312D01*
X131672927Y-153342416D01*
X131631142Y-153258572D01*
X131609047Y-153201006D01*
X131607237Y-153158213D01*
X131626305Y-153118690D01*
X131666844Y-153070935D01*
X131688107Y-153048123D01*
X131741886Y-152995005D01*
X131787870Y-152957301D01*
X131815584Y-152943333D01*
X131848703Y-152952403D01*
X131906258Y-152976089D01*
X131970327Y-153006577D01*
X132095613Y-153069821D01*
X132504182Y-152886800D01*
X132654683Y-152819583D01*
X132818875Y-152746590D01*
X132983159Y-152673845D01*
X133133939Y-152607369D01*
X133240834Y-152560508D01*
X133568917Y-152417236D01*
X133564823Y-152219909D01*
X133561336Y-152107810D01*
X133555785Y-151988611D01*
X133549243Y-151884582D01*
X133547780Y-151865973D01*
X133534830Y-151709363D01*
X133788882Y-151455312D01*
X134042933Y-151201261D01*
X134250425Y-151215805D01*
X134362711Y-151223918D01*
X134480412Y-151232813D01*
X134583091Y-151240935D01*
X134610308Y-151243190D01*
X134762700Y-151256031D01*
X134816683Y-151133965D01*
X134844808Y-151066395D01*
X134863879Y-151012928D01*
X134869445Y-150988074D01*
X134853741Y-150966455D01*
X134811385Y-150923126D01*
X134748135Y-150863609D01*
X134669749Y-150793426D01*
X134634939Y-150763166D01*
X134549151Y-150688159D01*
X134473179Y-150619759D01*
X134413735Y-150564156D01*
X134377532Y-150527539D01*
X134371578Y-150520331D01*
X134357538Y-150477787D01*
X134348274Y-150400574D01*
X134343928Y-150296100D01*
X134344640Y-150171776D01*
X134350552Y-150035010D01*
X134360004Y-149911987D01*
X134373250Y-149769891D01*
X134627250Y-149554674D01*
X134714482Y-149480748D01*
X134789832Y-149416867D01*
X134847613Y-149367851D01*
X134882142Y-149338525D01*
X134889309Y-149332406D01*
X134886303Y-149311000D01*
X134871082Y-149263409D01*
X134848485Y-149202191D01*
X134823352Y-149139907D01*
X134800521Y-149089117D01*
X134785582Y-149063190D01*
X134760431Y-149058802D01*
X134700478Y-149057702D01*
X134613118Y-149059752D01*
X134505743Y-149064815D01*
X134425478Y-149069881D01*
X134080357Y-149093797D01*
X133827969Y-148843690D01*
X133575580Y-148593583D01*
X133588801Y-148371333D01*
X133595935Y-148259020D01*
X133603978Y-148144200D01*
X133611642Y-148044851D01*
X133614871Y-148007243D01*
X133627720Y-147865402D01*
X133505726Y-147811451D01*
X133438177Y-147783352D01*
X133384731Y-147764332D01*
X133359908Y-147758823D01*
X133336220Y-147774545D01*
X133293277Y-147815418D01*
X133238738Y-147873918D01*
X133214419Y-147901698D01*
X133140197Y-147986874D01*
X133058488Y-148078836D01*
X132985928Y-148158874D01*
X132980318Y-148164958D01*
X132867881Y-148286666D01*
X132615149Y-148286482D01*
X132503182Y-148285267D01*
X132394961Y-148282119D01*
X132304187Y-148277543D01*
X132252563Y-148273101D01*
X132209781Y-148267185D01*
X132175185Y-148257833D01*
X132142532Y-148239996D01*
X132105576Y-148208622D01*
X132058072Y-148158663D01*
X131993775Y-148085067D01*
X131935063Y-148016351D01*
X131861604Y-147929858D01*
X131797681Y-147853973D01*
X131748473Y-147794889D01*
X131719154Y-147758798D01*
X131713673Y-147751472D01*
X131686562Y-147746845D01*
X131627483Y-147761364D01*
X131565506Y-147784057D01*
X131431084Y-147837967D01*
X131431108Y-147951192D01*
X131432530Y-148020094D01*
X131436349Y-148116758D01*
X131441931Y-148226719D01*
X131446695Y-148306163D01*
X131462257Y-148547910D01*
X130965417Y-149053332D01*
X130732169Y-149040601D01*
X130620292Y-149033873D01*
X130508478Y-149026097D01*
X130412885Y-149018445D01*
X130369266Y-149014318D01*
X130239610Y-149000767D01*
X130193429Y-149104091D01*
X130164942Y-149170637D01*
X130150216Y-149221961D01*
X130152486Y-149265753D01*
X130174987Y-149309701D01*
X130220953Y-149361494D01*
X130293619Y-149428821D01*
X130351584Y-149480053D01*
X130456018Y-149571484D01*
X130533755Y-149641105D01*
X130588708Y-149696349D01*
X130624789Y-149744650D01*
X130645911Y-149793441D01*
X130655985Y-149850156D01*
X130658923Y-149922228D01*
X130658640Y-150017092D01*
X130658500Y-150063201D01*
X130657563Y-150176195D01*
X130654997Y-150279201D01*
X130651172Y-150362146D01*
X130646456Y-150414953D01*
X130645385Y-150421282D01*
X130632367Y-150454188D01*
X130602657Y-150495103D01*
X130552044Y-150548463D01*
X130476319Y-150618705D01*
X130371270Y-150710263D01*
X130370219Y-150711163D01*
X130282402Y-150786651D01*
X130207099Y-150851991D01*
X130149663Y-150902491D01*
X130115444Y-150933457D01*
X130108167Y-150940972D01*
X130115545Y-150961806D01*
X130134810Y-151010796D01*
X130159524Y-151071779D01*
X130210882Y-151197083D01*
X130461149Y-151192327D01*
X130571856Y-151189330D01*
X130678049Y-151184891D01*
X130766256Y-151179660D01*
X130815129Y-151175303D01*
X130918840Y-151163034D01*
X131172918Y-151417111D01*
X131426995Y-151671188D01*
X131412717Y-151906263D01*
X131405424Y-152017762D01*
X131397294Y-152128506D01*
X131389523Y-152222755D01*
X131385305Y-152267007D01*
X131372170Y-152392677D01*
X131496877Y-152448064D01*
X131570284Y-152480241D01*
X131634259Y-152507545D01*
X131668653Y-152521574D01*
X131715722Y-152539696D01*
X131676302Y-152630389D01*
X131645616Y-152686322D01*
X131616945Y-152713249D01*
X131608066Y-152714118D01*
X131564586Y-152699677D01*
X131497456Y-152673116D01*
X131417586Y-152639260D01*
X131335887Y-152602935D01*
X131263270Y-152568967D01*
X131210645Y-152542181D01*
X131190612Y-152529486D01*
X131180481Y-152514022D01*
X131174448Y-152485902D01*
X131172522Y-152439215D01*
X131174715Y-152368048D01*
X131181037Y-152266490D01*
X131191316Y-152130911D01*
X131220825Y-151758610D01*
X130838417Y-151378734D01*
X130485369Y-151401871D01*
X130365852Y-151408931D01*
X130259965Y-151413731D01*
X130175421Y-151416037D01*
X130119932Y-151415613D01*
X130102434Y-151413540D01*
X130080784Y-151388937D01*
X130049879Y-151333504D01*
X130013538Y-151256674D01*
X129975580Y-151167880D01*
X129939826Y-151076556D01*
X129910095Y-150992133D01*
X129890207Y-150924046D01*
X129883981Y-150881727D01*
X129884947Y-150876444D01*
X129905171Y-150850224D01*
X129952383Y-150802492D01*
X130020871Y-150738619D01*
X130104920Y-150663976D01*
X130172807Y-150605785D01*
X130446834Y-150374320D01*
X130446834Y-149841171D01*
X130171667Y-149599000D01*
X130071593Y-149508721D01*
X129990494Y-149431100D01*
X129932294Y-149370138D01*
X129900915Y-149329837D01*
X129896500Y-149318308D01*
X129904474Y-149284386D01*
X129926155Y-149220956D01*
X129958182Y-149137252D01*
X129995128Y-149047366D01*
X130042166Y-148940757D01*
X130078816Y-148868600D01*
X130108404Y-148825294D01*
X130134258Y-148805242D01*
X130140151Y-148803299D01*
X130179315Y-148800536D01*
X130249971Y-148801958D01*
X130341530Y-148807163D01*
X130427815Y-148814255D01*
X130572579Y-148827849D01*
X130682728Y-148836491D01*
X130765873Y-148838229D01*
X130829626Y-148831110D01*
X130881597Y-148813182D01*
X130929399Y-148782493D01*
X130980642Y-148737091D01*
X131042938Y-148675022D01*
X131067622Y-148650145D01*
X131253610Y-148463290D01*
X131230698Y-148118134D01*
X131223659Y-147999221D01*
X131218984Y-147893246D01*
X131216906Y-147808247D01*
X131217653Y-147752265D01*
X131219726Y-147735358D01*
X131243488Y-147712986D01*
X131298119Y-147681287D01*
X131374267Y-147644134D01*
X131462580Y-147605403D01*
X131553704Y-147568971D01*
X131638289Y-147538712D01*
X131706981Y-147518501D01*
X131750428Y-147512215D01*
X131755923Y-147513164D01*
G37*
X131755923Y-147513164D02*
X131780657Y-147532475D01*
X131827033Y-147578857D01*
X131889803Y-147646682D01*
X131963722Y-147730323D01*
X132023021Y-147799691D01*
X132255126Y-148075000D01*
X132790101Y-148075000D01*
X133030786Y-147799833D01*
X133120003Y-147700337D01*
X133197000Y-147619390D01*
X133257680Y-147561032D01*
X133297947Y-147529304D01*
X133309722Y-147524666D01*
X133351208Y-147533121D01*
X133417854Y-147555704D01*
X133500316Y-147588247D01*
X133589248Y-147626577D01*
X133675306Y-147666524D01*
X133749143Y-147703919D01*
X133801416Y-147734590D01*
X133822520Y-147753515D01*
X133825554Y-147785706D01*
X133825306Y-147852268D01*
X133822026Y-147945386D01*
X133815963Y-148057245D01*
X133810002Y-148145165D01*
X133783868Y-148501331D01*
X133974772Y-148692235D01*
X134165675Y-148883139D01*
X134514374Y-148859276D01*
X134633442Y-148852002D01*
X134739164Y-148847183D01*
X134823683Y-148845050D01*
X134879143Y-148845831D01*
X134896167Y-148848113D01*
X134918179Y-148872771D01*
X134949602Y-148928159D01*
X134986530Y-149004826D01*
X135025056Y-149093317D01*
X135061272Y-149184181D01*
X135091271Y-149267965D01*
X135111146Y-149335216D01*
X135116990Y-149376481D01*
X135116223Y-149380508D01*
X135096561Y-149406499D01*
X135049882Y-149454068D01*
X134981839Y-149517872D01*
X134898086Y-149592568D01*
X134829077Y-149651916D01*
X134554202Y-149884750D01*
X134553684Y-150150888D01*
X134553167Y-150417027D01*
X134817568Y-150648305D01*
X134907196Y-150728847D01*
X134985467Y-150803236D01*
X135046659Y-150865711D01*
X135085052Y-150910514D01*
X135095176Y-150927793D01*
X135092213Y-150965501D01*
X135074473Y-151030361D01*
X135045897Y-151112825D01*
X135010427Y-151203346D01*
X134972004Y-151292375D01*
X134934569Y-151370364D01*
X134902063Y-151427765D01*
X134878426Y-151455029D01*
X134877353Y-151455507D01*
X134847653Y-151457611D01*
X134783321Y-151456558D01*
X134691914Y-151452652D01*
X134580991Y-151446200D01*
X134487368Y-151439715D01*
X134125882Y-151412987D01*
X133747952Y-151790917D01*
X133771661Y-152157590D01*
X133780526Y-152314242D01*
X133784174Y-152429961D01*
X133782610Y-152505824D01*
X133775842Y-152542910D01*
X133773833Y-152545800D01*
X133748002Y-152560855D01*
X133689964Y-152589037D01*
X133606588Y-152627189D01*
X133504742Y-152672152D01*
X133417190Y-152709796D01*
X133296016Y-152761795D01*
X133147577Y-152826257D01*
X132983191Y-152898222D01*
X132814175Y-152972730D01*
X132651845Y-153044820D01*
X132601911Y-153067127D01*
X132468146Y-153126397D01*
X132345988Y-153179404D01*
X132241101Y-153223783D01*
X132159150Y-153257165D01*
X132105798Y-153277182D01*
X132087916Y-153282000D01*
X132050956Y-153272847D01*
X131992284Y-153249336D01*
X131948963Y-153228726D01*
X131885249Y-153199644D01*
X131853083Y-153195894D01*
X131849860Y-153220564D01*
X131872975Y-153276741D01*
X131886167Y-153303166D01*
X131919660Y-153384437D01*
X131924633Y-153453010D01*
X131901308Y-153527270D01*
X131889170Y-153552718D01*
X131859971Y-153618302D01*
X131838616Y-153678878D01*
X131836297Y-153687680D01*
X131820395Y-153723408D01*
X131786166Y-153750731D01*
X131723282Y-153777091D01*
X131702324Y-153784253D01*
X131637046Y-153808922D01*
X131590529Y-153831977D01*
X131574851Y-153845530D01*
X131589316Y-153862704D01*
X131634022Y-153885276D01*
X131682359Y-153902773D01*
X131750601Y-153926095D01*
X131795638Y-153950469D01*
X131827708Y-153986244D01*
X131857051Y-154043769D01*
X131882466Y-154105030D01*
X131913452Y-154189163D01*
X131925074Y-154251756D01*
X131916938Y-154309112D01*
X131888651Y-154377537D01*
X131875227Y-154404536D01*
X131849517Y-154461406D01*
X131838209Y-154499581D01*
X131841375Y-154509666D01*
X131869892Y-154501342D01*
X131923374Y-154479831D01*
X131972080Y-154458108D01*
X132036181Y-154429712D01*
X132079420Y-154418164D01*
X132119224Y-154422255D01*
X132173019Y-154440777D01*
X132180557Y-154443651D01*
X132276837Y-154481787D01*
X132341740Y-154513347D01*
X132383899Y-154545581D01*
X132411949Y-154585737D01*
X132434525Y-154641064D01*
X132441993Y-154663125D01*
X132465956Y-154727319D01*
X132487526Y-154771420D01*
X132500000Y-154784833D01*
X132515417Y-154766403D01*
X132537697Y-154718499D01*
X132558008Y-154663125D01*
X132579447Y-154603162D01*
X132602259Y-154560885D01*
X132635090Y-154528932D01*
X132686589Y-154499939D01*
X132765402Y-154466542D01*
X132809175Y-154449256D01*
X132917267Y-154406842D01*
X133028236Y-154458254D01*
X133091730Y-154486214D01*
X133140156Y-154504887D01*
X133158625Y-154509666D01*
X133160606Y-154492843D01*
X133145612Y-154449336D01*
X133124773Y-154404536D01*
X133091534Y-154333215D01*
X133076421Y-154276556D01*
X133079801Y-154220796D01*
X133102038Y-154152171D01*
X133133404Y-154079307D01*
X133167309Y-154006892D01*
X133195628Y-153962558D01*
X133229486Y-153935491D01*
X133280006Y-153914876D01*
X133313751Y-153904000D01*
X133375721Y-153880868D01*
X133415868Y-153858880D01*
X133425172Y-153845599D01*
X133402556Y-153827113D01*
X133352860Y-153803661D01*
X133319566Y-153791392D01*
X133255147Y-153765380D01*
X133205353Y-153737617D01*
X133192019Y-153726500D01*
X133167445Y-153688047D01*
X133136930Y-153625439D01*
X133106669Y-153553543D01*
X133082861Y-153487227D01*
X133071701Y-153441359D01*
X133071500Y-153437323D01*
X133080141Y-153408650D01*
X133102217Y-153354774D01*
X133131961Y-153288215D01*
X133163605Y-153221498D01*
X133191379Y-153167144D01*
X133209515Y-153137677D01*
X133209541Y-153137648D01*
X133230086Y-153142288D01*
X133275230Y-153161792D01*
X133301930Y-153174940D01*
X133388295Y-153219000D01*
X133334268Y-153329875D01*
X133304465Y-153394546D01*
X133292501Y-153437566D01*
X133296476Y-153474731D01*
X133311921Y-153515776D01*
X133335989Y-153560734D01*
X133369860Y-153591024D01*
X133426194Y-153615920D01*
X133466842Y-153629276D01*
X133537136Y-153653284D01*
X133592644Y-153675958D01*
X133616542Y-153689133D01*
X133632289Y-153723538D01*
X133641400Y-153790496D01*
X133643000Y-153842227D01*
X133639060Y-153925506D01*
X133622052Y-153982085D01*
X133584199Y-154021650D01*
X133517720Y-154053887D01*
X133455712Y-154075422D01*
X133385100Y-154102621D01*
X133342951Y-154132796D01*
X133315994Y-154176016D01*
X133312521Y-154184053D01*
X133296556Y-154229831D01*
X133296165Y-154268088D01*
X133313377Y-154315883D01*
X133333025Y-154356286D01*
X133374306Y-154441244D01*
X133395573Y-154500082D01*
X133396474Y-154544175D01*
X133376653Y-154584895D01*
X133335756Y-154633617D01*
X133323977Y-154646450D01*
X133263319Y-154705239D01*
X133209785Y-154734811D01*
X133151693Y-154736660D01*
X133077362Y-154712284D01*
X133019558Y-154685421D01*
X132953912Y-154654535D01*
X132911301Y-154641187D01*
X132877077Y-154643627D01*
X132836592Y-154660107D01*
X132830776Y-154662870D01*
X132788342Y-154688605D01*
X132757617Y-154725039D01*
X132730494Y-154783963D01*
X132712739Y-154834527D01*
X132685179Y-154905612D01*
X132657042Y-154959428D01*
X132634738Y-154984079D01*
X132574411Y-154996474D01*
X132499368Y-154997902D01*
X132425253Y-154989702D01*
X132367709Y-154973215D01*
X132347250Y-154959458D01*
X132322544Y-154918719D01*
X132294303Y-154854528D01*
X132278313Y-154809920D01*
X132249857Y-154737523D01*
X132216881Y-154693123D01*
X132169255Y-154662884D01*
X132127069Y-154644868D01*
X132092869Y-154640687D01*
X132052006Y-154652090D01*
X131989831Y-154680824D01*
X131980442Y-154685421D01*
X131909850Y-154716271D01*
X131847698Y-154736997D01*
X131815910Y-154742500D01*
X131774485Y-154727027D01*
X131720513Y-154687876D01*
X131665869Y-154635945D01*
X131622430Y-154582133D01*
X131604950Y-154548897D01*
X131607487Y-154513239D01*
X131625721Y-154452994D01*
X131655724Y-154381084D01*
X131656339Y-154379781D01*
X131689151Y-154307851D01*
X131705005Y-154260990D01*
X131705911Y-154226423D01*
X131693877Y-154191371D01*
X131687955Y-154178665D01*
X131657061Y-154132961D01*
X131608287Y-154100005D01*
X131543579Y-154075186D01*
X131454588Y-154042553D01*
X131399258Y-154008763D01*
X131369796Y-153964083D01*
X131358405Y-153898782D01*
X131357000Y-153842227D01*
X131361355Y-153760318D01*
X131373326Y-153705286D01*
X131383459Y-153689133D01*
X131417224Y-153671459D01*
X131476902Y-153648067D01*
X131529694Y-153630368D01*
X131599591Y-153605749D01*
X131641215Y-153580170D01*
X131667580Y-153543304D01*
X131682377Y-153509214D01*
X131701474Y-153453123D01*
X131702232Y-153411873D01*
X131683397Y-153363312D01*
X131672927Y-153342416D01*
X131631142Y-153258572D01*
X131609047Y-153201006D01*
X131607237Y-153158213D01*
X131626305Y-153118690D01*
X131666844Y-153070935D01*
X131688107Y-153048123D01*
X131741886Y-152995005D01*
X131787870Y-152957301D01*
X131815584Y-152943333D01*
X131848703Y-152952403D01*
X131906258Y-152976089D01*
X131970327Y-153006577D01*
X132095613Y-153069821D01*
X132504182Y-152886800D01*
X132654683Y-152819583D01*
X132818875Y-152746590D01*
X132983159Y-152673845D01*
X133133939Y-152607369D01*
X133240834Y-152560508D01*
X133568917Y-152417236D01*
X133564823Y-152219909D01*
X133561336Y-152107810D01*
X133555785Y-151988611D01*
X133549243Y-151884582D01*
X133547780Y-151865973D01*
X133534830Y-151709363D01*
X133788882Y-151455312D01*
X134042933Y-151201261D01*
X134250425Y-151215805D01*
X134362711Y-151223918D01*
X134480412Y-151232813D01*
X134583091Y-151240935D01*
X134610308Y-151243190D01*
X134762700Y-151256031D01*
X134816683Y-151133965D01*
X134844808Y-151066395D01*
X134863879Y-151012928D01*
X134869445Y-150988074D01*
X134853741Y-150966455D01*
X134811385Y-150923126D01*
X134748135Y-150863609D01*
X134669749Y-150793426D01*
X134634939Y-150763166D01*
X134549151Y-150688159D01*
X134473179Y-150619759D01*
X134413735Y-150564156D01*
X134377532Y-150527539D01*
X134371578Y-150520331D01*
X134357538Y-150477787D01*
X134348274Y-150400574D01*
X134343928Y-150296100D01*
X134344640Y-150171776D01*
X134350552Y-150035010D01*
X134360004Y-149911987D01*
X134373250Y-149769891D01*
X134627250Y-149554674D01*
X134714482Y-149480748D01*
X134789832Y-149416867D01*
X134847613Y-149367851D01*
X134882142Y-149338525D01*
X134889309Y-149332406D01*
X134886303Y-149311000D01*
X134871082Y-149263409D01*
X134848485Y-149202191D01*
X134823352Y-149139907D01*
X134800521Y-149089117D01*
X134785582Y-149063190D01*
X134760431Y-149058802D01*
X134700478Y-149057702D01*
X134613118Y-149059752D01*
X134505743Y-149064815D01*
X134425478Y-149069881D01*
X134080357Y-149093797D01*
X133827969Y-148843690D01*
X133575580Y-148593583D01*
X133588801Y-148371333D01*
X133595935Y-148259020D01*
X133603978Y-148144200D01*
X133611642Y-148044851D01*
X133614871Y-148007243D01*
X133627720Y-147865402D01*
X133505726Y-147811451D01*
X133438177Y-147783352D01*
X133384731Y-147764332D01*
X133359908Y-147758823D01*
X133336220Y-147774545D01*
X133293277Y-147815418D01*
X133238738Y-147873918D01*
X133214419Y-147901698D01*
X133140197Y-147986874D01*
X133058488Y-148078836D01*
X132985928Y-148158874D01*
X132980318Y-148164958D01*
X132867881Y-148286666D01*
X132615149Y-148286482D01*
X132503182Y-148285267D01*
X132394961Y-148282119D01*
X132304187Y-148277543D01*
X132252563Y-148273101D01*
X132209781Y-148267185D01*
X132175185Y-148257833D01*
X132142532Y-148239996D01*
X132105576Y-148208622D01*
X132058072Y-148158663D01*
X131993775Y-148085067D01*
X131935063Y-148016351D01*
X131861604Y-147929858D01*
X131797681Y-147853973D01*
X131748473Y-147794889D01*
X131719154Y-147758798D01*
X131713673Y-147751472D01*
X131686562Y-147746845D01*
X131627483Y-147761364D01*
X131565506Y-147784057D01*
X131431084Y-147837967D01*
X131431108Y-147951192D01*
X131432530Y-148020094D01*
X131436349Y-148116758D01*
X131441931Y-148226719D01*
X131446695Y-148306163D01*
X131462257Y-148547910D01*
X130965417Y-149053332D01*
X130732169Y-149040601D01*
X130620292Y-149033873D01*
X130508478Y-149026097D01*
X130412885Y-149018445D01*
X130369266Y-149014318D01*
X130239610Y-149000767D01*
X130193429Y-149104091D01*
X130164942Y-149170637D01*
X130150216Y-149221961D01*
X130152486Y-149265753D01*
X130174987Y-149309701D01*
X130220953Y-149361494D01*
X130293619Y-149428821D01*
X130351584Y-149480053D01*
X130456018Y-149571484D01*
X130533755Y-149641105D01*
X130588708Y-149696349D01*
X130624789Y-149744650D01*
X130645911Y-149793441D01*
X130655985Y-149850156D01*
X130658923Y-149922228D01*
X130658640Y-150017092D01*
X130658500Y-150063201D01*
X130657563Y-150176195D01*
X130654997Y-150279201D01*
X130651172Y-150362146D01*
X130646456Y-150414953D01*
X130645385Y-150421282D01*
X130632367Y-150454188D01*
X130602657Y-150495103D01*
X130552044Y-150548463D01*
X130476319Y-150618705D01*
X130371270Y-150710263D01*
X130370219Y-150711163D01*
X130282402Y-150786651D01*
X130207099Y-150851991D01*
X130149663Y-150902491D01*
X130115444Y-150933457D01*
X130108167Y-150940972D01*
X130115545Y-150961806D01*
X130134810Y-151010796D01*
X130159524Y-151071779D01*
X130210882Y-151197083D01*
X130461149Y-151192327D01*
X130571856Y-151189330D01*
X130678049Y-151184891D01*
X130766256Y-151179660D01*
X130815129Y-151175303D01*
X130918840Y-151163034D01*
X131172918Y-151417111D01*
X131426995Y-151671188D01*
X131412717Y-151906263D01*
X131405424Y-152017762D01*
X131397294Y-152128506D01*
X131389523Y-152222755D01*
X131385305Y-152267007D01*
X131372170Y-152392677D01*
X131496877Y-152448064D01*
X131570284Y-152480241D01*
X131634259Y-152507545D01*
X131668653Y-152521574D01*
X131715722Y-152539696D01*
X131676302Y-152630389D01*
X131645616Y-152686322D01*
X131616945Y-152713249D01*
X131608066Y-152714118D01*
X131564586Y-152699677D01*
X131497456Y-152673116D01*
X131417586Y-152639260D01*
X131335887Y-152602935D01*
X131263270Y-152568967D01*
X131210645Y-152542181D01*
X131190612Y-152529486D01*
X131180481Y-152514022D01*
X131174448Y-152485902D01*
X131172522Y-152439215D01*
X131174715Y-152368048D01*
X131181037Y-152266490D01*
X131191316Y-152130911D01*
X131220825Y-151758610D01*
X130838417Y-151378734D01*
X130485369Y-151401871D01*
X130365852Y-151408931D01*
X130259965Y-151413731D01*
X130175421Y-151416037D01*
X130119932Y-151415613D01*
X130102434Y-151413540D01*
X130080784Y-151388937D01*
X130049879Y-151333504D01*
X130013538Y-151256674D01*
X129975580Y-151167880D01*
X129939826Y-151076556D01*
X129910095Y-150992133D01*
X129890207Y-150924046D01*
X129883981Y-150881727D01*
X129884947Y-150876444D01*
X129905171Y-150850224D01*
X129952383Y-150802492D01*
X130020871Y-150738619D01*
X130104920Y-150663976D01*
X130172807Y-150605785D01*
X130446834Y-150374320D01*
X130446834Y-149841171D01*
X130171667Y-149599000D01*
X130071593Y-149508721D01*
X129990494Y-149431100D01*
X129932294Y-149370138D01*
X129900915Y-149329837D01*
X129896500Y-149318308D01*
X129904474Y-149284386D01*
X129926155Y-149220956D01*
X129958182Y-149137252D01*
X129995128Y-149047366D01*
X130042166Y-148940757D01*
X130078816Y-148868600D01*
X130108404Y-148825294D01*
X130134258Y-148805242D01*
X130140151Y-148803299D01*
X130179315Y-148800536D01*
X130249971Y-148801958D01*
X130341530Y-148807163D01*
X130427815Y-148814255D01*
X130572579Y-148827849D01*
X130682728Y-148836491D01*
X130765873Y-148838229D01*
X130829626Y-148831110D01*
X130881597Y-148813182D01*
X130929399Y-148782493D01*
X130980642Y-148737091D01*
X131042938Y-148675022D01*
X131067622Y-148650145D01*
X131253610Y-148463290D01*
X131230698Y-148118134D01*
X131223659Y-147999221D01*
X131218984Y-147893246D01*
X131216906Y-147808247D01*
X131217653Y-147752265D01*
X131219726Y-147735358D01*
X131243488Y-147712986D01*
X131298119Y-147681287D01*
X131374267Y-147644134D01*
X131462580Y-147605403D01*
X131553704Y-147568971D01*
X131638289Y-147538712D01*
X131706981Y-147518501D01*
X131750428Y-147512215D01*
X131755923Y-147513164D01*
D11*
%TO.C,J2*%
X112535000Y-138816000D02*
X112535000Y-138751000D01*
X116065000Y-138816000D02*
X116065000Y-138751000D01*
X112535000Y-145221000D02*
X112535000Y-145156000D01*
X116065000Y-145221000D02*
X116065000Y-145156000D01*
X117390000Y-145156000D02*
X116065000Y-145156000D01*
X116065000Y-138751000D02*
X112535000Y-138751000D01*
X116065000Y-145221000D02*
X112535000Y-145221000D01*
%TO.C,J4*%
X117004556Y-121997601D02*
X117004556Y-122541799D01*
X126199356Y-119512398D02*
X126199356Y-116378801D01*
X117004556Y-125738202D02*
X117004556Y-126107000D01*
X126199356Y-122541793D02*
X126199356Y-121997601D01*
X126199356Y-126107000D02*
X126199356Y-125738206D01*
X117004556Y-126107000D02*
X126199356Y-126107000D01*
X117004556Y-116378801D02*
X117004556Y-119512398D01*
X126199356Y-116378801D02*
X117004556Y-116378801D01*
X126996296Y-124775129D02*
G75*
G02*
X126804856Y-125499856I-161940J-344871D01*
G01*
%TO.C,SW3*%
X146700000Y-159980000D02*
X147700000Y-159980000D01*
X147200000Y-159480000D02*
X147200000Y-160480000D01*
X153900000Y-163680000D02*
X153900000Y-166280000D01*
X153900000Y-158680000D02*
X153900000Y-161280000D01*
X153900000Y-153680000D02*
X153900000Y-156280000D01*
X140000000Y-155880000D02*
X139700000Y-156180000D01*
X139400000Y-155880000D02*
X140000000Y-155880000D01*
X139700000Y-156180000D02*
X139400000Y-155880000D01*
X140500000Y-153680000D02*
X140500000Y-156180000D01*
X145300000Y-153680000D02*
X140500000Y-153680000D01*
X140500000Y-166280000D02*
X140500000Y-163480000D01*
X145400000Y-166280000D02*
X140500000Y-166280000D01*
X153900000Y-166280000D02*
X149000000Y-166280000D01*
X149000000Y-153680000D02*
X153900000Y-153680000D01*
X150200000Y-159980000D02*
G75*
G03*
X150200000Y-159980000I-3000000J0D01*
G01*
%TO.C,R15*%
X132477500Y-162814724D02*
X132477500Y-162305276D01*
X133522500Y-162814724D02*
X133522500Y-162305276D01*
%TO.C,R14*%
X136637500Y-162814724D02*
X136637500Y-162305276D01*
X137682500Y-162814724D02*
X137682500Y-162305276D01*
%TO.C,U2*%
X127399999Y-133070001D02*
X126624997Y-133070001D01*
X128625001Y-136169999D02*
X126650001Y-136169999D01*
%TO.C,JP2*%
X97730000Y-130870000D02*
X97730000Y-129540000D01*
X99060000Y-130870000D02*
X97730000Y-130870000D01*
X100330000Y-130870000D02*
X100330000Y-128210000D01*
X100330000Y-128210000D02*
X102930000Y-128210000D01*
X100330000Y-130870000D02*
X102930000Y-130870000D01*
X102930000Y-130870000D02*
X102930000Y-128210000D01*
%TO.C,JP1*%
X143570000Y-128210000D02*
X143570000Y-129540000D01*
X142240000Y-128210000D02*
X143570000Y-128210000D01*
X140970000Y-128210000D02*
X140970000Y-130870000D01*
X140970000Y-130870000D02*
X138370000Y-130870000D01*
X140970000Y-128210000D02*
X138370000Y-128210000D01*
X138370000Y-128210000D02*
X138370000Y-130870000D01*
D13*
%TO.C,U1*%
G36*
X121077950Y-154910401D02*
G01*
X121077950Y-154656401D01*
X121458950Y-154656401D01*
X121458950Y-154910401D01*
X121077950Y-154910401D01*
G37*
X121077950Y-154910401D02*
X121077950Y-154656401D01*
X121458950Y-154656401D01*
X121458950Y-154910401D01*
X121077950Y-154910401D01*
G36*
X127832049Y-160229499D02*
G01*
X127832049Y-160610499D01*
X127578049Y-160610499D01*
X127578049Y-160229499D01*
X127832049Y-160229499D01*
G37*
X127832049Y-160229499D02*
X127832049Y-160610499D01*
X127578049Y-160610499D01*
X127578049Y-160229499D01*
X127832049Y-160229499D01*
G36*
X120277949Y-165129599D02*
G01*
X120277949Y-165383599D01*
X120658949Y-165383599D01*
X120658949Y-165129599D01*
X120277949Y-165129599D01*
G37*
X120277949Y-165129599D02*
X120277949Y-165383599D01*
X120658949Y-165383599D01*
X120658949Y-165129599D01*
X120277949Y-165129599D01*
D11*
%TO.C,SW2*%
X97140000Y-160060000D02*
X96140000Y-160060000D01*
X96640000Y-160560000D02*
X96640000Y-159560000D01*
X89940000Y-156360000D02*
X89940000Y-153760000D01*
X89940000Y-161360000D02*
X89940000Y-158760000D01*
X89940000Y-166360000D02*
X89940000Y-163760000D01*
X103840000Y-164160000D02*
X104140000Y-163860000D01*
X104440000Y-164160000D02*
X103840000Y-164160000D01*
X104140000Y-163860000D02*
X104440000Y-164160000D01*
X103340000Y-166360000D02*
X103340000Y-163860000D01*
X98540000Y-166360000D02*
X103340000Y-166360000D01*
X103340000Y-153760000D02*
X103340000Y-156560000D01*
X98440000Y-153760000D02*
X103340000Y-153760000D01*
X89940000Y-153760000D02*
X94840000Y-153760000D01*
X94840000Y-166360000D02*
X89940000Y-166360000D01*
X99640000Y-160060000D02*
G75*
G03*
X99640000Y-160060000I-3000000J0D01*
G01*
%TO.C,SW1*%
X101164000Y-139518000D02*
X101164000Y-145978000D01*
X105694000Y-139518000D02*
X103094000Y-139518000D01*
X107624000Y-139518000D02*
X107624000Y-145978000D01*
X105694000Y-145978000D02*
X103094000Y-145978000D01*
X107594000Y-139518000D02*
X107624000Y-139518000D01*
X101164000Y-139518000D02*
X101194000Y-139518000D01*
X101164000Y-145978000D02*
X101194000Y-145978000D01*
X107624000Y-145978000D02*
X107594000Y-145978000D01*
%TO.C,R19*%
X153795276Y-168670500D02*
X154304724Y-168670500D01*
X153795276Y-167625500D02*
X154304724Y-167625500D01*
%TO.C,R18*%
X150762474Y-167625500D02*
X150253026Y-167625500D01*
X150762474Y-168670500D02*
X150253026Y-168670500D01*
%TO.C,R17*%
X131825276Y-165622500D02*
X132334724Y-165622500D01*
X131825276Y-164577500D02*
X132334724Y-164577500D01*
%TO.C,R16*%
X135985276Y-165622500D02*
X136494724Y-165622500D01*
X135985276Y-164577500D02*
X136494724Y-164577500D01*
%TO.C,R13*%
X90020224Y-167625500D02*
X89510776Y-167625500D01*
X90020224Y-168670500D02*
X89510776Y-168670500D01*
%TO.C,R12*%
X93142026Y-168670500D02*
X93651474Y-168670500D01*
X93142026Y-167625500D02*
X93651474Y-167625500D01*
%TO.C,R11*%
X107854724Y-164577500D02*
X107345276Y-164577500D01*
X107854724Y-165622500D02*
X107345276Y-165622500D01*
%TO.C,R10*%
X112279724Y-164577500D02*
X111770276Y-164577500D01*
X112279724Y-165622500D02*
X111770276Y-165622500D01*
%TO.C,R9*%
X107197500Y-162814724D02*
X107197500Y-162305276D01*
X106152500Y-162814724D02*
X106152500Y-162305276D01*
%TO.C,R8*%
X111647500Y-162814724D02*
X111647500Y-162305276D01*
X110602500Y-162814724D02*
X110602500Y-162305276D01*
%TO.C,R7*%
X128538500Y-125222724D02*
X128538500Y-124713276D01*
X127493500Y-125222724D02*
X127493500Y-124713276D01*
%TO.C,R6*%
X131586500Y-125222724D02*
X131586500Y-124713276D01*
X130541500Y-125222724D02*
X130541500Y-124713276D01*
%TO.C,R5*%
X128538500Y-121666724D02*
X128538500Y-121157276D01*
X127493500Y-121666724D02*
X127493500Y-121157276D01*
%TO.C,R4*%
X131586500Y-121666724D02*
X131586500Y-121157276D01*
X130541500Y-121666724D02*
X130541500Y-121157276D01*
%TO.C,R3*%
X114539500Y-124797776D02*
X114539500Y-125307224D01*
X115584500Y-124797776D02*
X115584500Y-125307224D01*
%TO.C,R2*%
X111395276Y-147080500D02*
X111904724Y-147080500D01*
X111395276Y-146035500D02*
X111904724Y-146035500D01*
%TO.C,R1*%
X109488500Y-144272724D02*
X109488500Y-143763276D01*
X108443500Y-144272724D02*
X108443500Y-143763276D01*
%TO.C,J7*%
X105350000Y-120590000D02*
X106680000Y-120590000D01*
X105350000Y-121920000D02*
X105350000Y-120590000D01*
X107950000Y-120590000D02*
X110550000Y-120590000D01*
X107950000Y-123190000D02*
X107950000Y-120590000D01*
X105350000Y-123190000D02*
X107950000Y-123190000D01*
X110550000Y-120590000D02*
X110550000Y-125790000D01*
X105350000Y-123190000D02*
X105350000Y-125790000D01*
X105350000Y-125790000D02*
X110550000Y-125790000D01*
%TO.C,J6*%
X97730000Y-120590000D02*
X99060000Y-120590000D01*
X97730000Y-121920000D02*
X97730000Y-120590000D01*
X100330000Y-120590000D02*
X102930000Y-120590000D01*
X100330000Y-123190000D02*
X100330000Y-120590000D01*
X97730000Y-123190000D02*
X100330000Y-123190000D01*
X102930000Y-120590000D02*
X102930000Y-125790000D01*
X97730000Y-123190000D02*
X97730000Y-125790000D01*
X97730000Y-125790000D02*
X102930000Y-125790000D01*
%TO.C,J5*%
X138370000Y-120590000D02*
X139700000Y-120590000D01*
X138370000Y-121920000D02*
X138370000Y-120590000D01*
X140970000Y-120590000D02*
X143570000Y-120590000D01*
X140970000Y-123190000D02*
X140970000Y-120590000D01*
X138370000Y-123190000D02*
X140970000Y-123190000D01*
X143570000Y-120590000D02*
X143570000Y-125790000D01*
X138370000Y-123190000D02*
X138370000Y-125790000D01*
X138370000Y-125790000D02*
X143570000Y-125790000D01*
%TO.C,J3*%
X151070000Y-120590000D02*
X152400000Y-120590000D01*
X151070000Y-121920000D02*
X151070000Y-120590000D01*
X151070000Y-123190000D02*
X153730000Y-123190000D01*
X153730000Y-123190000D02*
X153730000Y-141030000D01*
X151070000Y-123190000D02*
X151070000Y-141030000D01*
X151070000Y-141030000D02*
X153730000Y-141030000D01*
%TO.C,J1*%
X92770000Y-141030000D02*
X91440000Y-141030000D01*
X92770000Y-139700000D02*
X92770000Y-141030000D01*
X92770000Y-138430000D02*
X90110000Y-138430000D01*
X90110000Y-138430000D02*
X90110000Y-120590000D01*
X92770000Y-138430000D02*
X92770000Y-120590000D01*
X92770000Y-120590000D02*
X90110000Y-120590000D01*
%TO.C,FB1*%
X102122500Y-134874724D02*
X102122500Y-134365276D01*
X101077500Y-134874724D02*
X101077500Y-134365276D01*
%TO.C,D2*%
X133730000Y-133220003D02*
X133730000Y-140120003D01*
X130430000Y-133220003D02*
X130430000Y-140120003D01*
X133730000Y-133220003D02*
X130430000Y-133220003D01*
%TO.C,D1*%
X117014390Y-130554000D02*
X117014390Y-129094000D01*
X120174390Y-130554000D02*
X120174390Y-128394000D01*
X120174390Y-130554000D02*
X119244390Y-130554000D01*
X117014390Y-130554000D02*
X117944390Y-130554000D01*
%TO.C,C14*%
X147111767Y-167638000D02*
X146819233Y-167638000D01*
X147111767Y-168658000D02*
X146819233Y-168658000D01*
%TO.C,C13*%
X131670000Y-162706267D02*
X131670000Y-162413733D01*
X130650000Y-162706267D02*
X130650000Y-162413733D01*
%TO.C,C12*%
X135830000Y-162706267D02*
X135830000Y-162413733D01*
X134810000Y-162706267D02*
X134810000Y-162413733D01*
%TO.C,C11*%
X96881733Y-168658000D02*
X97174267Y-168658000D01*
X96881733Y-167638000D02*
X97174267Y-167638000D01*
%TO.C,C10*%
X109035000Y-162706267D02*
X109035000Y-162413733D01*
X108015000Y-162706267D02*
X108015000Y-162413733D01*
%TO.C,C9*%
X113460000Y-162706267D02*
X113460000Y-162413733D01*
X112440000Y-162706267D02*
X112440000Y-162413733D01*
%TO.C,C8*%
X127261252Y-138965000D02*
X126738748Y-138965000D01*
X127261252Y-140435000D02*
X126738748Y-140435000D01*
%TO.C,C7*%
X106145000Y-134756252D02*
X106145000Y-134233748D01*
X104675000Y-134756252D02*
X104675000Y-134233748D01*
%TO.C,C6*%
X136625000Y-135256255D02*
X136625000Y-134733751D01*
X135155000Y-135256255D02*
X135155000Y-134733751D01*
%TO.C,C5*%
X113803001Y-125198767D02*
X113803001Y-124906233D01*
X112783001Y-125198767D02*
X112783001Y-124906233D01*
%TO.C,C4*%
X121778450Y-151530267D02*
X121778450Y-151237733D01*
X120758450Y-151530267D02*
X120758450Y-151237733D01*
%TO.C,C3*%
X124179000Y-151415252D02*
X124179000Y-150892748D01*
X122709000Y-151415252D02*
X122709000Y-150892748D01*
%TO.C,C2*%
X111503733Y-149862000D02*
X111796267Y-149862000D01*
X111503733Y-148842000D02*
X111796267Y-148842000D01*
%TO.C,C1*%
X117028500Y-165652233D02*
X117028500Y-165944767D01*
X118048500Y-165652233D02*
X118048500Y-165944767D01*
%TO.C,REF\u002A\u002A*%
D10*
X160416666Y-149952380D02*
X160083333Y-149476190D01*
X159845238Y-149952380D02*
X159845238Y-148952380D01*
X160226190Y-148952380D01*
X160321428Y-149000000D01*
X160369047Y-149047619D01*
X160416666Y-149142857D01*
X160416666Y-149285714D01*
X160369047Y-149380952D01*
X160321428Y-149428571D01*
X160226190Y-149476190D01*
X159845238Y-149476190D01*
X160845238Y-149428571D02*
X161178571Y-149428571D01*
X161321428Y-149952380D02*
X160845238Y-149952380D01*
X160845238Y-148952380D01*
X161321428Y-148952380D01*
X162083333Y-149428571D02*
X161750000Y-149428571D01*
X161750000Y-149952380D02*
X161750000Y-148952380D01*
X162226190Y-148952380D01*
X162750000Y-148952380D02*
X162750000Y-149190476D01*
X162511904Y-149095238D02*
X162750000Y-149190476D01*
X162988095Y-149095238D01*
X162607142Y-149380952D02*
X162750000Y-149190476D01*
X162892857Y-149380952D01*
X163511904Y-148952380D02*
X163511904Y-149190476D01*
X163273809Y-149095238D02*
X163511904Y-149190476D01*
X163750000Y-149095238D01*
X163369047Y-149380952D02*
X163511904Y-149190476D01*
X163654761Y-149380952D01*
X79666666Y-148702380D02*
X79333333Y-148226190D01*
X79095238Y-148702380D02*
X79095238Y-147702380D01*
X79476190Y-147702380D01*
X79571428Y-147750000D01*
X79619047Y-147797619D01*
X79666666Y-147892857D01*
X79666666Y-148035714D01*
X79619047Y-148130952D01*
X79571428Y-148178571D01*
X79476190Y-148226190D01*
X79095238Y-148226190D01*
X80095238Y-148178571D02*
X80428571Y-148178571D01*
X80571428Y-148702380D02*
X80095238Y-148702380D01*
X80095238Y-147702380D01*
X80571428Y-147702380D01*
X81333333Y-148178571D02*
X81000000Y-148178571D01*
X81000000Y-148702380D02*
X81000000Y-147702380D01*
X81476190Y-147702380D01*
X82000000Y-147702380D02*
X82000000Y-147940476D01*
X81761904Y-147845238D02*
X82000000Y-147940476D01*
X82238095Y-147845238D01*
X81857142Y-148130952D02*
X82000000Y-147940476D01*
X82142857Y-148130952D01*
X82761904Y-147702380D02*
X82761904Y-147940476D01*
X82523809Y-147845238D02*
X82761904Y-147940476D01*
X83000000Y-147845238D01*
X82619047Y-148130952D02*
X82761904Y-147940476D01*
X82904761Y-148130952D01*
X94166666Y-115702380D02*
X93833333Y-115226190D01*
X93595238Y-115702380D02*
X93595238Y-114702380D01*
X93976190Y-114702380D01*
X94071428Y-114750000D01*
X94119047Y-114797619D01*
X94166666Y-114892857D01*
X94166666Y-115035714D01*
X94119047Y-115130952D01*
X94071428Y-115178571D01*
X93976190Y-115226190D01*
X93595238Y-115226190D01*
X94595238Y-115178571D02*
X94928571Y-115178571D01*
X95071428Y-115702380D02*
X94595238Y-115702380D01*
X94595238Y-114702380D01*
X95071428Y-114702380D01*
X95833333Y-115178571D02*
X95500000Y-115178571D01*
X95500000Y-115702380D02*
X95500000Y-114702380D01*
X95976190Y-114702380D01*
X96500000Y-114702380D02*
X96500000Y-114940476D01*
X96261904Y-114845238D02*
X96500000Y-114940476D01*
X96738095Y-114845238D01*
X96357142Y-115130952D02*
X96500000Y-114940476D01*
X96642857Y-115130952D01*
X97261904Y-114702380D02*
X97261904Y-114940476D01*
X97023809Y-114845238D02*
X97261904Y-114940476D01*
X97500000Y-114845238D01*
X97119047Y-115130952D02*
X97261904Y-114940476D01*
X97404761Y-115130952D01*
X145666666Y-117202380D02*
X145333333Y-116726190D01*
X145095238Y-117202380D02*
X145095238Y-116202380D01*
X145476190Y-116202380D01*
X145571428Y-116250000D01*
X145619047Y-116297619D01*
X145666666Y-116392857D01*
X145666666Y-116535714D01*
X145619047Y-116630952D01*
X145571428Y-116678571D01*
X145476190Y-116726190D01*
X145095238Y-116726190D01*
X146095238Y-116678571D02*
X146428571Y-116678571D01*
X146571428Y-117202380D02*
X146095238Y-117202380D01*
X146095238Y-116202380D01*
X146571428Y-116202380D01*
X147333333Y-116678571D02*
X147000000Y-116678571D01*
X147000000Y-117202380D02*
X147000000Y-116202380D01*
X147476190Y-116202380D01*
X148000000Y-116202380D02*
X148000000Y-116440476D01*
X147761904Y-116345238D02*
X148000000Y-116440476D01*
X148238095Y-116345238D01*
X147857142Y-116630952D02*
X148000000Y-116440476D01*
X148142857Y-116630952D01*
X148761904Y-116202380D02*
X148761904Y-116440476D01*
X148523809Y-116345238D02*
X148761904Y-116440476D01*
X149000000Y-116345238D01*
X148619047Y-116630952D02*
X148761904Y-116440476D01*
X148904761Y-116630952D01*
%TO.C,J2*%
X118166666Y-138702380D02*
X118166666Y-139416666D01*
X118119047Y-139559523D01*
X118023809Y-139654761D01*
X117880952Y-139702380D01*
X117785714Y-139702380D01*
X118595238Y-138797619D02*
X118642857Y-138750000D01*
X118738095Y-138702380D01*
X118976190Y-138702380D01*
X119071428Y-138750000D01*
X119119047Y-138797619D01*
X119166666Y-138892857D01*
X119166666Y-138988095D01*
X119119047Y-139130952D01*
X118547619Y-139702380D01*
X119166666Y-139702380D01*
%TO.C,J4*%
X118258622Y-120697380D02*
X118258622Y-121411666D01*
X118211003Y-121554523D01*
X118115765Y-121649761D01*
X117972908Y-121697380D01*
X117877670Y-121697380D01*
X119163384Y-121030714D02*
X119163384Y-121697380D01*
X118925289Y-120649761D02*
X118687194Y-121364047D01*
X119306241Y-121364047D01*
X121566956Y-121372380D02*
X121566956Y-121610476D01*
X121328860Y-121515238D02*
X121566956Y-121610476D01*
X121805051Y-121515238D01*
X121424098Y-121800952D02*
X121566956Y-121610476D01*
X121709813Y-121800952D01*
%TO.C,SW3*%
X145616666Y-152404761D02*
X145759523Y-152452380D01*
X145997619Y-152452380D01*
X146092857Y-152404761D01*
X146140476Y-152357142D01*
X146188095Y-152261904D01*
X146188095Y-152166666D01*
X146140476Y-152071428D01*
X146092857Y-152023809D01*
X145997619Y-151976190D01*
X145807142Y-151928571D01*
X145711904Y-151880952D01*
X145664285Y-151833333D01*
X145616666Y-151738095D01*
X145616666Y-151642857D01*
X145664285Y-151547619D01*
X145711904Y-151500000D01*
X145807142Y-151452380D01*
X146045238Y-151452380D01*
X146188095Y-151500000D01*
X146521428Y-151452380D02*
X146759523Y-152452380D01*
X146950000Y-151738095D01*
X147140476Y-152452380D01*
X147378571Y-151452380D01*
X147664285Y-151452380D02*
X148283333Y-151452380D01*
X147950000Y-151833333D01*
X148092857Y-151833333D01*
X148188095Y-151880952D01*
X148235714Y-151928571D01*
X148283333Y-152023809D01*
X148283333Y-152261904D01*
X148235714Y-152357142D01*
X148188095Y-152404761D01*
X148092857Y-152452380D01*
X147807142Y-152452380D01*
X147711904Y-152404761D01*
X147664285Y-152357142D01*
%TO.C,R15*%
X133548380Y-160154857D02*
X133072190Y-160488190D01*
X133548380Y-160726285D02*
X132548380Y-160726285D01*
X132548380Y-160345333D01*
X132596000Y-160250095D01*
X132643619Y-160202476D01*
X132738857Y-160154857D01*
X132881714Y-160154857D01*
X132976952Y-160202476D01*
X133024571Y-160250095D01*
X133072190Y-160345333D01*
X133072190Y-160726285D01*
X133548380Y-159202476D02*
X133548380Y-159773904D01*
X133548380Y-159488190D02*
X132548380Y-159488190D01*
X132691238Y-159583428D01*
X132786476Y-159678666D01*
X132834095Y-159773904D01*
X132548380Y-158297714D02*
X132548380Y-158773904D01*
X133024571Y-158821523D01*
X132976952Y-158773904D01*
X132929333Y-158678666D01*
X132929333Y-158440571D01*
X132976952Y-158345333D01*
X133024571Y-158297714D01*
X133119809Y-158250095D01*
X133357904Y-158250095D01*
X133453142Y-158297714D01*
X133500761Y-158345333D01*
X133548380Y-158440571D01*
X133548380Y-158678666D01*
X133500761Y-158773904D01*
X133453142Y-158821523D01*
%TO.C,R14*%
X137612380Y-160154857D02*
X137136190Y-160488190D01*
X137612380Y-160726285D02*
X136612380Y-160726285D01*
X136612380Y-160345333D01*
X136660000Y-160250095D01*
X136707619Y-160202476D01*
X136802857Y-160154857D01*
X136945714Y-160154857D01*
X137040952Y-160202476D01*
X137088571Y-160250095D01*
X137136190Y-160345333D01*
X137136190Y-160726285D01*
X137612380Y-159202476D02*
X137612380Y-159773904D01*
X137612380Y-159488190D02*
X136612380Y-159488190D01*
X136755238Y-159583428D01*
X136850476Y-159678666D01*
X136898095Y-159773904D01*
X136945714Y-158345333D02*
X137612380Y-158345333D01*
X136564761Y-158583428D02*
X137279047Y-158821523D01*
X137279047Y-158202476D01*
%TO.C,U2*%
X126738095Y-131452380D02*
X126738095Y-132261904D01*
X126785714Y-132357142D01*
X126833333Y-132404761D01*
X126928571Y-132452380D01*
X127119047Y-132452380D01*
X127214285Y-132404761D01*
X127261904Y-132357142D01*
X127309523Y-132261904D01*
X127309523Y-131452380D01*
X127738095Y-131547619D02*
X127785714Y-131500000D01*
X127880952Y-131452380D01*
X128119047Y-131452380D01*
X128214285Y-131500000D01*
X128261904Y-131547619D01*
X128309523Y-131642857D01*
X128309523Y-131738095D01*
X128261904Y-131880952D01*
X127690476Y-132452380D01*
X128309523Y-132452380D01*
X127000000Y-134072380D02*
X127000000Y-134310476D01*
X126761904Y-134215238D02*
X127000000Y-134310476D01*
X127238095Y-134215238D01*
X126857142Y-134500952D02*
X127000000Y-134310476D01*
X127142857Y-134500952D01*
%TO.C,JP2*%
X96182380Y-130373333D02*
X96896666Y-130373333D01*
X97039523Y-130420952D01*
X97134761Y-130516190D01*
X97182380Y-130659047D01*
X97182380Y-130754285D01*
X97182380Y-129897142D02*
X96182380Y-129897142D01*
X96182380Y-129516190D01*
X96230000Y-129420952D01*
X96277619Y-129373333D01*
X96372857Y-129325714D01*
X96515714Y-129325714D01*
X96610952Y-129373333D01*
X96658571Y-129420952D01*
X96706190Y-129516190D01*
X96706190Y-129897142D01*
X96277619Y-128944761D02*
X96230000Y-128897142D01*
X96182380Y-128801904D01*
X96182380Y-128563809D01*
X96230000Y-128468571D01*
X96277619Y-128420952D01*
X96372857Y-128373333D01*
X96468095Y-128373333D01*
X96610952Y-128420952D01*
X97182380Y-128992380D01*
X97182380Y-128373333D01*
%TO.C,JP1*%
X144452380Y-130333333D02*
X145166666Y-130333333D01*
X145309523Y-130380952D01*
X145404761Y-130476190D01*
X145452380Y-130619047D01*
X145452380Y-130714285D01*
X145452380Y-129857142D02*
X144452380Y-129857142D01*
X144452380Y-129476190D01*
X144500000Y-129380952D01*
X144547619Y-129333333D01*
X144642857Y-129285714D01*
X144785714Y-129285714D01*
X144880952Y-129333333D01*
X144928571Y-129380952D01*
X144976190Y-129476190D01*
X144976190Y-129857142D01*
X145452380Y-128333333D02*
X145452380Y-128904761D01*
X145452380Y-128619047D02*
X144452380Y-128619047D01*
X144595238Y-128714285D01*
X144690476Y-128809523D01*
X144738095Y-128904761D01*
%TO.C,U1*%
X121706545Y-159472380D02*
X121706545Y-160281904D01*
X121754164Y-160377142D01*
X121801783Y-160424761D01*
X121897021Y-160472380D01*
X122087497Y-160472380D01*
X122182735Y-160424761D01*
X122230354Y-160377142D01*
X122277973Y-160281904D01*
X122277973Y-159472380D01*
X123277973Y-160472380D02*
X122706545Y-160472380D01*
X122992259Y-160472380D02*
X122992259Y-159472380D01*
X122897021Y-159615238D01*
X122801783Y-159710476D01*
X122706545Y-159758095D01*
X116977850Y-155891380D02*
X116977850Y-156129476D01*
X116739754Y-156034238D02*
X116977850Y-156129476D01*
X117215945Y-156034238D01*
X116834992Y-156319952D02*
X116977850Y-156129476D01*
X117120707Y-156319952D01*
X116977850Y-155891380D02*
X116977850Y-156129476D01*
X116739754Y-156034238D02*
X116977850Y-156129476D01*
X117215945Y-156034238D01*
X116834992Y-156319952D02*
X116977850Y-156129476D01*
X117120707Y-156319952D01*
%TO.C,SW2*%
X95556666Y-152404761D02*
X95699523Y-152452380D01*
X95937619Y-152452380D01*
X96032857Y-152404761D01*
X96080476Y-152357142D01*
X96128095Y-152261904D01*
X96128095Y-152166666D01*
X96080476Y-152071428D01*
X96032857Y-152023809D01*
X95937619Y-151976190D01*
X95747142Y-151928571D01*
X95651904Y-151880952D01*
X95604285Y-151833333D01*
X95556666Y-151738095D01*
X95556666Y-151642857D01*
X95604285Y-151547619D01*
X95651904Y-151500000D01*
X95747142Y-151452380D01*
X95985238Y-151452380D01*
X96128095Y-151500000D01*
X96461428Y-151452380D02*
X96699523Y-152452380D01*
X96890000Y-151738095D01*
X97080476Y-152452380D01*
X97318571Y-151452380D01*
X97651904Y-151547619D02*
X97699523Y-151500000D01*
X97794761Y-151452380D01*
X98032857Y-151452380D01*
X98128095Y-151500000D01*
X98175714Y-151547619D01*
X98223333Y-151642857D01*
X98223333Y-151738095D01*
X98175714Y-151880952D01*
X97604285Y-152452380D01*
X98223333Y-152452380D01*
%TO.C,SW1*%
X100404761Y-144081334D02*
X100452380Y-143938477D01*
X100452380Y-143700381D01*
X100404761Y-143605143D01*
X100357142Y-143557524D01*
X100261904Y-143509905D01*
X100166666Y-143509905D01*
X100071428Y-143557524D01*
X100023809Y-143605143D01*
X99976190Y-143700381D01*
X99928571Y-143890858D01*
X99880952Y-143986096D01*
X99833333Y-144033715D01*
X99738095Y-144081334D01*
X99642857Y-144081334D01*
X99547619Y-144033715D01*
X99500000Y-143986096D01*
X99452380Y-143890858D01*
X99452380Y-143652762D01*
X99500000Y-143509905D01*
X99452380Y-143176572D02*
X100452380Y-142938477D01*
X99738095Y-142748001D01*
X100452380Y-142557524D01*
X99452380Y-142319429D01*
X100452380Y-141414667D02*
X100452380Y-141986096D01*
X100452380Y-141700381D02*
X99452380Y-141700381D01*
X99595238Y-141795620D01*
X99690476Y-141890858D01*
X99738095Y-141986096D01*
%TO.C,R19*%
X153407142Y-170030380D02*
X153073809Y-169554190D01*
X152835714Y-170030380D02*
X152835714Y-169030380D01*
X153216666Y-169030380D01*
X153311904Y-169078000D01*
X153359523Y-169125619D01*
X153407142Y-169220857D01*
X153407142Y-169363714D01*
X153359523Y-169458952D01*
X153311904Y-169506571D01*
X153216666Y-169554190D01*
X152835714Y-169554190D01*
X154359523Y-170030380D02*
X153788095Y-170030380D01*
X154073809Y-170030380D02*
X154073809Y-169030380D01*
X153978571Y-169173238D01*
X153883333Y-169268476D01*
X153788095Y-169316095D01*
X154835714Y-170030380D02*
X155026190Y-170030380D01*
X155121428Y-169982761D01*
X155169047Y-169935142D01*
X155264285Y-169792285D01*
X155311904Y-169601809D01*
X155311904Y-169220857D01*
X155264285Y-169125619D01*
X155216666Y-169078000D01*
X155121428Y-169030380D01*
X154930952Y-169030380D01*
X154835714Y-169078000D01*
X154788095Y-169125619D01*
X154740476Y-169220857D01*
X154740476Y-169458952D01*
X154788095Y-169554190D01*
X154835714Y-169601809D01*
X154930952Y-169649428D01*
X155121428Y-169649428D01*
X155216666Y-169601809D01*
X155264285Y-169554190D01*
X155311904Y-169458952D01*
%TO.C,R18*%
X149864892Y-170030380D02*
X149531559Y-169554190D01*
X149293464Y-170030380D02*
X149293464Y-169030380D01*
X149674416Y-169030380D01*
X149769654Y-169078000D01*
X149817273Y-169125619D01*
X149864892Y-169220857D01*
X149864892Y-169363714D01*
X149817273Y-169458952D01*
X149769654Y-169506571D01*
X149674416Y-169554190D01*
X149293464Y-169554190D01*
X150817273Y-170030380D02*
X150245845Y-170030380D01*
X150531559Y-170030380D02*
X150531559Y-169030380D01*
X150436321Y-169173238D01*
X150341083Y-169268476D01*
X150245845Y-169316095D01*
X151388702Y-169458952D02*
X151293464Y-169411333D01*
X151245845Y-169363714D01*
X151198226Y-169268476D01*
X151198226Y-169220857D01*
X151245845Y-169125619D01*
X151293464Y-169078000D01*
X151388702Y-169030380D01*
X151579178Y-169030380D01*
X151674416Y-169078000D01*
X151722035Y-169125619D01*
X151769654Y-169220857D01*
X151769654Y-169268476D01*
X151722035Y-169363714D01*
X151674416Y-169411333D01*
X151579178Y-169458952D01*
X151388702Y-169458952D01*
X151293464Y-169506571D01*
X151245845Y-169554190D01*
X151198226Y-169649428D01*
X151198226Y-169839904D01*
X151245845Y-169935142D01*
X151293464Y-169982761D01*
X151388702Y-170030380D01*
X151579178Y-170030380D01*
X151674416Y-169982761D01*
X151722035Y-169935142D01*
X151769654Y-169839904D01*
X151769654Y-169649428D01*
X151722035Y-169554190D01*
X151674416Y-169506571D01*
X151579178Y-169458952D01*
%TO.C,R17*%
X131437142Y-167076380D02*
X131103809Y-166600190D01*
X130865714Y-167076380D02*
X130865714Y-166076380D01*
X131246666Y-166076380D01*
X131341904Y-166124000D01*
X131389523Y-166171619D01*
X131437142Y-166266857D01*
X131437142Y-166409714D01*
X131389523Y-166504952D01*
X131341904Y-166552571D01*
X131246666Y-166600190D01*
X130865714Y-166600190D01*
X132389523Y-167076380D02*
X131818095Y-167076380D01*
X132103809Y-167076380D02*
X132103809Y-166076380D01*
X132008571Y-166219238D01*
X131913333Y-166314476D01*
X131818095Y-166362095D01*
X132722857Y-166076380D02*
X133389523Y-166076380D01*
X132960952Y-167076380D01*
%TO.C,R16*%
X135597142Y-167076380D02*
X135263809Y-166600190D01*
X135025714Y-167076380D02*
X135025714Y-166076380D01*
X135406666Y-166076380D01*
X135501904Y-166124000D01*
X135549523Y-166171619D01*
X135597142Y-166266857D01*
X135597142Y-166409714D01*
X135549523Y-166504952D01*
X135501904Y-166552571D01*
X135406666Y-166600190D01*
X135025714Y-166600190D01*
X136549523Y-167076380D02*
X135978095Y-167076380D01*
X136263809Y-167076380D02*
X136263809Y-166076380D01*
X136168571Y-166219238D01*
X136073333Y-166314476D01*
X135978095Y-166362095D01*
X137406666Y-166076380D02*
X137216190Y-166076380D01*
X137120952Y-166124000D01*
X137073333Y-166171619D01*
X136978095Y-166314476D01*
X136930476Y-166504952D01*
X136930476Y-166885904D01*
X136978095Y-166981142D01*
X137025714Y-167028761D01*
X137120952Y-167076380D01*
X137311428Y-167076380D01*
X137406666Y-167028761D01*
X137454285Y-166981142D01*
X137501904Y-166885904D01*
X137501904Y-166647809D01*
X137454285Y-166552571D01*
X137406666Y-166504952D01*
X137311428Y-166457333D01*
X137120952Y-166457333D01*
X137025714Y-166504952D01*
X136978095Y-166552571D01*
X136930476Y-166647809D01*
%TO.C,R13*%
X88765142Y-169997380D02*
X88431809Y-169521190D01*
X88193714Y-169997380D02*
X88193714Y-168997380D01*
X88574666Y-168997380D01*
X88669904Y-169045000D01*
X88717523Y-169092619D01*
X88765142Y-169187857D01*
X88765142Y-169330714D01*
X88717523Y-169425952D01*
X88669904Y-169473571D01*
X88574666Y-169521190D01*
X88193714Y-169521190D01*
X89717523Y-169997380D02*
X89146095Y-169997380D01*
X89431809Y-169997380D02*
X89431809Y-168997380D01*
X89336571Y-169140238D01*
X89241333Y-169235476D01*
X89146095Y-169283095D01*
X90050857Y-168997380D02*
X90669904Y-168997380D01*
X90336571Y-169378333D01*
X90479428Y-169378333D01*
X90574666Y-169425952D01*
X90622285Y-169473571D01*
X90669904Y-169568809D01*
X90669904Y-169806904D01*
X90622285Y-169902142D01*
X90574666Y-169949761D01*
X90479428Y-169997380D01*
X90193714Y-169997380D01*
X90098476Y-169949761D01*
X90050857Y-169902142D01*
%TO.C,R12*%
X92321142Y-169997380D02*
X91987809Y-169521190D01*
X91749714Y-169997380D02*
X91749714Y-168997380D01*
X92130666Y-168997380D01*
X92225904Y-169045000D01*
X92273523Y-169092619D01*
X92321142Y-169187857D01*
X92321142Y-169330714D01*
X92273523Y-169425952D01*
X92225904Y-169473571D01*
X92130666Y-169521190D01*
X91749714Y-169521190D01*
X93273523Y-169997380D02*
X92702095Y-169997380D01*
X92987809Y-169997380D02*
X92987809Y-168997380D01*
X92892571Y-169140238D01*
X92797333Y-169235476D01*
X92702095Y-169283095D01*
X93654476Y-169092619D02*
X93702095Y-169045000D01*
X93797333Y-168997380D01*
X94035428Y-168997380D01*
X94130666Y-169045000D01*
X94178285Y-169092619D01*
X94225904Y-169187857D01*
X94225904Y-169283095D01*
X94178285Y-169425952D01*
X93606857Y-169997380D01*
X94225904Y-169997380D01*
%TO.C,R11*%
X106957142Y-166982380D02*
X106623809Y-166506190D01*
X106385714Y-166982380D02*
X106385714Y-165982380D01*
X106766666Y-165982380D01*
X106861904Y-166030000D01*
X106909523Y-166077619D01*
X106957142Y-166172857D01*
X106957142Y-166315714D01*
X106909523Y-166410952D01*
X106861904Y-166458571D01*
X106766666Y-166506190D01*
X106385714Y-166506190D01*
X107909523Y-166982380D02*
X107338095Y-166982380D01*
X107623809Y-166982380D02*
X107623809Y-165982380D01*
X107528571Y-166125238D01*
X107433333Y-166220476D01*
X107338095Y-166268095D01*
X108861904Y-166982380D02*
X108290476Y-166982380D01*
X108576190Y-166982380D02*
X108576190Y-165982380D01*
X108480952Y-166125238D01*
X108385714Y-166220476D01*
X108290476Y-166268095D01*
%TO.C,R10*%
X111382142Y-166982380D02*
X111048809Y-166506190D01*
X110810714Y-166982380D02*
X110810714Y-165982380D01*
X111191666Y-165982380D01*
X111286904Y-166030000D01*
X111334523Y-166077619D01*
X111382142Y-166172857D01*
X111382142Y-166315714D01*
X111334523Y-166410952D01*
X111286904Y-166458571D01*
X111191666Y-166506190D01*
X110810714Y-166506190D01*
X112334523Y-166982380D02*
X111763095Y-166982380D01*
X112048809Y-166982380D02*
X112048809Y-165982380D01*
X111953571Y-166125238D01*
X111858333Y-166220476D01*
X111763095Y-166268095D01*
X112953571Y-165982380D02*
X113048809Y-165982380D01*
X113144047Y-166030000D01*
X113191666Y-166077619D01*
X113239285Y-166172857D01*
X113286904Y-166363333D01*
X113286904Y-166601428D01*
X113239285Y-166791904D01*
X113191666Y-166887142D01*
X113144047Y-166934761D01*
X113048809Y-166982380D01*
X112953571Y-166982380D01*
X112858333Y-166934761D01*
X112810714Y-166887142D01*
X112763095Y-166791904D01*
X112715476Y-166601428D01*
X112715476Y-166363333D01*
X112763095Y-166172857D01*
X112810714Y-166077619D01*
X112858333Y-166030000D01*
X112953571Y-165982380D01*
%TO.C,R9*%
X107127380Y-160186666D02*
X106651190Y-160520000D01*
X107127380Y-160758095D02*
X106127380Y-160758095D01*
X106127380Y-160377142D01*
X106175000Y-160281904D01*
X106222619Y-160234285D01*
X106317857Y-160186666D01*
X106460714Y-160186666D01*
X106555952Y-160234285D01*
X106603571Y-160281904D01*
X106651190Y-160377142D01*
X106651190Y-160758095D01*
X107127380Y-159710476D02*
X107127380Y-159520000D01*
X107079761Y-159424761D01*
X107032142Y-159377142D01*
X106889285Y-159281904D01*
X106698809Y-159234285D01*
X106317857Y-159234285D01*
X106222619Y-159281904D01*
X106175000Y-159329523D01*
X106127380Y-159424761D01*
X106127380Y-159615238D01*
X106175000Y-159710476D01*
X106222619Y-159758095D01*
X106317857Y-159805714D01*
X106555952Y-159805714D01*
X106651190Y-159758095D01*
X106698809Y-159710476D01*
X106746428Y-159615238D01*
X106746428Y-159424761D01*
X106698809Y-159329523D01*
X106651190Y-159281904D01*
X106555952Y-159234285D01*
%TO.C,R8*%
X111577380Y-160186666D02*
X111101190Y-160520000D01*
X111577380Y-160758095D02*
X110577380Y-160758095D01*
X110577380Y-160377142D01*
X110625000Y-160281904D01*
X110672619Y-160234285D01*
X110767857Y-160186666D01*
X110910714Y-160186666D01*
X111005952Y-160234285D01*
X111053571Y-160281904D01*
X111101190Y-160377142D01*
X111101190Y-160758095D01*
X111005952Y-159615238D02*
X110958333Y-159710476D01*
X110910714Y-159758095D01*
X110815476Y-159805714D01*
X110767857Y-159805714D01*
X110672619Y-159758095D01*
X110625000Y-159710476D01*
X110577380Y-159615238D01*
X110577380Y-159424761D01*
X110625000Y-159329523D01*
X110672619Y-159281904D01*
X110767857Y-159234285D01*
X110815476Y-159234285D01*
X110910714Y-159281904D01*
X110958333Y-159329523D01*
X111005952Y-159424761D01*
X111005952Y-159615238D01*
X111053571Y-159710476D01*
X111101190Y-159758095D01*
X111196428Y-159805714D01*
X111386904Y-159805714D01*
X111482142Y-159758095D01*
X111529761Y-159710476D01*
X111577380Y-159615238D01*
X111577380Y-159424761D01*
X111529761Y-159329523D01*
X111482142Y-159281904D01*
X111386904Y-159234285D01*
X111196428Y-159234285D01*
X111101190Y-159281904D01*
X111053571Y-159329523D01*
X111005952Y-159424761D01*
%TO.C,R7*%
X129992380Y-125134666D02*
X129516190Y-125468000D01*
X129992380Y-125706095D02*
X128992380Y-125706095D01*
X128992380Y-125325142D01*
X129040000Y-125229904D01*
X129087619Y-125182285D01*
X129182857Y-125134666D01*
X129325714Y-125134666D01*
X129420952Y-125182285D01*
X129468571Y-125229904D01*
X129516190Y-125325142D01*
X129516190Y-125706095D01*
X128992380Y-124801333D02*
X128992380Y-124134666D01*
X129992380Y-124563238D01*
%TO.C,R6*%
X133040380Y-125134666D02*
X132564190Y-125468000D01*
X133040380Y-125706095D02*
X132040380Y-125706095D01*
X132040380Y-125325142D01*
X132088000Y-125229904D01*
X132135619Y-125182285D01*
X132230857Y-125134666D01*
X132373714Y-125134666D01*
X132468952Y-125182285D01*
X132516571Y-125229904D01*
X132564190Y-125325142D01*
X132564190Y-125706095D01*
X132040380Y-124277523D02*
X132040380Y-124468000D01*
X132088000Y-124563238D01*
X132135619Y-124610857D01*
X132278476Y-124706095D01*
X132468952Y-124753714D01*
X132849904Y-124753714D01*
X132945142Y-124706095D01*
X132992761Y-124658476D01*
X133040380Y-124563238D01*
X133040380Y-124372761D01*
X132992761Y-124277523D01*
X132945142Y-124229904D01*
X132849904Y-124182285D01*
X132611809Y-124182285D01*
X132516571Y-124229904D01*
X132468952Y-124277523D01*
X132421333Y-124372761D01*
X132421333Y-124563238D01*
X132468952Y-124658476D01*
X132516571Y-124706095D01*
X132611809Y-124753714D01*
%TO.C,R5*%
X129992380Y-121578666D02*
X129516190Y-121912000D01*
X129992380Y-122150095D02*
X128992380Y-122150095D01*
X128992380Y-121769142D01*
X129040000Y-121673904D01*
X129087619Y-121626285D01*
X129182857Y-121578666D01*
X129325714Y-121578666D01*
X129420952Y-121626285D01*
X129468571Y-121673904D01*
X129516190Y-121769142D01*
X129516190Y-122150095D01*
X128992380Y-120673904D02*
X128992380Y-121150095D01*
X129468571Y-121197714D01*
X129420952Y-121150095D01*
X129373333Y-121054857D01*
X129373333Y-120816761D01*
X129420952Y-120721523D01*
X129468571Y-120673904D01*
X129563809Y-120626285D01*
X129801904Y-120626285D01*
X129897142Y-120673904D01*
X129944761Y-120721523D01*
X129992380Y-120816761D01*
X129992380Y-121054857D01*
X129944761Y-121150095D01*
X129897142Y-121197714D01*
%TO.C,R4*%
X133040380Y-121578666D02*
X132564190Y-121912000D01*
X133040380Y-122150095D02*
X132040380Y-122150095D01*
X132040380Y-121769142D01*
X132088000Y-121673904D01*
X132135619Y-121626285D01*
X132230857Y-121578666D01*
X132373714Y-121578666D01*
X132468952Y-121626285D01*
X132516571Y-121673904D01*
X132564190Y-121769142D01*
X132564190Y-122150095D01*
X132373714Y-120721523D02*
X133040380Y-120721523D01*
X131992761Y-120959619D02*
X132707047Y-121197714D01*
X132707047Y-120578666D01*
%TO.C,R3*%
X115514380Y-122594666D02*
X115038190Y-122928000D01*
X115514380Y-123166095D02*
X114514380Y-123166095D01*
X114514380Y-122785142D01*
X114562000Y-122689904D01*
X114609619Y-122642285D01*
X114704857Y-122594666D01*
X114847714Y-122594666D01*
X114942952Y-122642285D01*
X114990571Y-122689904D01*
X115038190Y-122785142D01*
X115038190Y-123166095D01*
X114514380Y-122261333D02*
X114514380Y-121642285D01*
X114895333Y-121975619D01*
X114895333Y-121832761D01*
X114942952Y-121737523D01*
X114990571Y-121689904D01*
X115085809Y-121642285D01*
X115323904Y-121642285D01*
X115419142Y-121689904D01*
X115466761Y-121737523D01*
X115514380Y-121832761D01*
X115514380Y-122118476D01*
X115466761Y-122213714D01*
X115419142Y-122261333D01*
%TO.C,R2*%
X114333333Y-146952380D02*
X114000000Y-146476190D01*
X113761904Y-146952380D02*
X113761904Y-145952380D01*
X114142857Y-145952380D01*
X114238095Y-146000000D01*
X114285714Y-146047619D01*
X114333333Y-146142857D01*
X114333333Y-146285714D01*
X114285714Y-146380952D01*
X114238095Y-146428571D01*
X114142857Y-146476190D01*
X113761904Y-146476190D01*
X114714285Y-146047619D02*
X114761904Y-146000000D01*
X114857142Y-145952380D01*
X115095238Y-145952380D01*
X115190476Y-146000000D01*
X115238095Y-146047619D01*
X115285714Y-146142857D01*
X115285714Y-146238095D01*
X115238095Y-146380952D01*
X114666666Y-146952380D01*
X115285714Y-146952380D01*
%TO.C,R1*%
X109452380Y-141666666D02*
X108976190Y-142000000D01*
X109452380Y-142238095D02*
X108452380Y-142238095D01*
X108452380Y-141857142D01*
X108500000Y-141761904D01*
X108547619Y-141714285D01*
X108642857Y-141666666D01*
X108785714Y-141666666D01*
X108880952Y-141714285D01*
X108928571Y-141761904D01*
X108976190Y-141857142D01*
X108976190Y-142238095D01*
X109452380Y-140714285D02*
X109452380Y-141285714D01*
X109452380Y-141000000D02*
X108452380Y-141000000D01*
X108595238Y-141095238D01*
X108690476Y-141190476D01*
X108738095Y-141285714D01*
%TO.C,J7*%
X105166666Y-126452380D02*
X105166666Y-127166666D01*
X105119047Y-127309523D01*
X105023809Y-127404761D01*
X104880952Y-127452380D01*
X104785714Y-127452380D01*
X105547619Y-126452380D02*
X106214285Y-126452380D01*
X105785714Y-127452380D01*
%TO.C,J6*%
X97666666Y-126452380D02*
X97666666Y-127166666D01*
X97619047Y-127309523D01*
X97523809Y-127404761D01*
X97380952Y-127452380D01*
X97285714Y-127452380D01*
X98571428Y-126452380D02*
X98380952Y-126452380D01*
X98285714Y-126500000D01*
X98238095Y-126547619D01*
X98142857Y-126690476D01*
X98095238Y-126880952D01*
X98095238Y-127261904D01*
X98142857Y-127357142D01*
X98190476Y-127404761D01*
X98285714Y-127452380D01*
X98476190Y-127452380D01*
X98571428Y-127404761D01*
X98619047Y-127357142D01*
X98666666Y-127261904D01*
X98666666Y-127023809D01*
X98619047Y-126928571D01*
X98571428Y-126880952D01*
X98476190Y-126833333D01*
X98285714Y-126833333D01*
X98190476Y-126880952D01*
X98142857Y-126928571D01*
X98095238Y-127023809D01*
%TO.C,J5*%
X138166666Y-126452380D02*
X138166666Y-127166666D01*
X138119047Y-127309523D01*
X138023809Y-127404761D01*
X137880952Y-127452380D01*
X137785714Y-127452380D01*
X139119047Y-126452380D02*
X138642857Y-126452380D01*
X138595238Y-126928571D01*
X138642857Y-126880952D01*
X138738095Y-126833333D01*
X138976190Y-126833333D01*
X139071428Y-126880952D01*
X139119047Y-126928571D01*
X139166666Y-127023809D01*
X139166666Y-127261904D01*
X139119047Y-127357142D01*
X139071428Y-127404761D01*
X138976190Y-127452380D01*
X138738095Y-127452380D01*
X138642857Y-127404761D01*
X138595238Y-127357142D01*
%TO.C,J3*%
X152066666Y-141952380D02*
X152066666Y-142666666D01*
X152019047Y-142809523D01*
X151923809Y-142904761D01*
X151780952Y-142952380D01*
X151685714Y-142952380D01*
X152447619Y-141952380D02*
X153066666Y-141952380D01*
X152733333Y-142333333D01*
X152876190Y-142333333D01*
X152971428Y-142380952D01*
X153019047Y-142428571D01*
X153066666Y-142523809D01*
X153066666Y-142761904D01*
X153019047Y-142857142D01*
X152971428Y-142904761D01*
X152876190Y-142952380D01*
X152590476Y-142952380D01*
X152495238Y-142904761D01*
X152447619Y-142857142D01*
%TO.C,J1*%
X91106666Y-141482380D02*
X91106666Y-142196666D01*
X91059047Y-142339523D01*
X90963809Y-142434761D01*
X90820952Y-142482380D01*
X90725714Y-142482380D01*
X92106666Y-142482380D02*
X91535238Y-142482380D01*
X91820952Y-142482380D02*
X91820952Y-141482380D01*
X91725714Y-141625238D01*
X91630476Y-141720476D01*
X91535238Y-141768095D01*
%TO.C,FB1*%
X100098571Y-135453333D02*
X100098571Y-135786666D01*
X100622380Y-135786666D02*
X99622380Y-135786666D01*
X99622380Y-135310476D01*
X100098571Y-134596190D02*
X100146190Y-134453333D01*
X100193809Y-134405714D01*
X100289047Y-134358095D01*
X100431904Y-134358095D01*
X100527142Y-134405714D01*
X100574761Y-134453333D01*
X100622380Y-134548571D01*
X100622380Y-134929523D01*
X99622380Y-134929523D01*
X99622380Y-134596190D01*
X99670000Y-134500952D01*
X99717619Y-134453333D01*
X99812857Y-134405714D01*
X99908095Y-134405714D01*
X100003333Y-134453333D01*
X100050952Y-134500952D01*
X100098571Y-134596190D01*
X100098571Y-134929523D01*
X100622380Y-133405714D02*
X100622380Y-133977142D01*
X100622380Y-133691428D02*
X99622380Y-133691428D01*
X99765238Y-133786666D01*
X99860476Y-133881904D01*
X99908095Y-133977142D01*
%TO.C,D2*%
X131261904Y-132952380D02*
X131261904Y-131952380D01*
X131500000Y-131952380D01*
X131642857Y-132000000D01*
X131738095Y-132095238D01*
X131785714Y-132190476D01*
X131833333Y-132380952D01*
X131833333Y-132523809D01*
X131785714Y-132714285D01*
X131738095Y-132809523D01*
X131642857Y-132904761D01*
X131500000Y-132952380D01*
X131261904Y-132952380D01*
X132214285Y-132047619D02*
X132261904Y-132000000D01*
X132357142Y-131952380D01*
X132595238Y-131952380D01*
X132690476Y-132000000D01*
X132738095Y-132047619D01*
X132785714Y-132142857D01*
X132785714Y-132238095D01*
X132738095Y-132380952D01*
X132166666Y-132952380D01*
X132785714Y-132952380D01*
%TO.C,D1*%
X116452380Y-130532095D02*
X115452380Y-130532095D01*
X115452380Y-130294000D01*
X115500000Y-130151142D01*
X115595238Y-130055904D01*
X115690476Y-130008285D01*
X115880952Y-129960666D01*
X116023809Y-129960666D01*
X116214285Y-130008285D01*
X116309523Y-130055904D01*
X116404761Y-130151142D01*
X116452380Y-130294000D01*
X116452380Y-130532095D01*
X116452380Y-129008285D02*
X116452380Y-129579714D01*
X116452380Y-129294000D02*
X115452380Y-129294000D01*
X115595238Y-129389238D01*
X115690476Y-129484476D01*
X115738095Y-129579714D01*
%TO.C,C14*%
X146322642Y-169935142D02*
X146275023Y-169982761D01*
X146132166Y-170030380D01*
X146036928Y-170030380D01*
X145894071Y-169982761D01*
X145798833Y-169887523D01*
X145751214Y-169792285D01*
X145703595Y-169601809D01*
X145703595Y-169458952D01*
X145751214Y-169268476D01*
X145798833Y-169173238D01*
X145894071Y-169078000D01*
X146036928Y-169030380D01*
X146132166Y-169030380D01*
X146275023Y-169078000D01*
X146322642Y-169125619D01*
X147275023Y-170030380D02*
X146703595Y-170030380D01*
X146989309Y-170030380D02*
X146989309Y-169030380D01*
X146894071Y-169173238D01*
X146798833Y-169268476D01*
X146703595Y-169316095D01*
X148132166Y-169363714D02*
X148132166Y-170030380D01*
X147894071Y-168982761D02*
X147655976Y-169697047D01*
X148275023Y-169697047D01*
%TO.C,C13*%
X131548142Y-160281857D02*
X131595761Y-160329476D01*
X131643380Y-160472333D01*
X131643380Y-160567571D01*
X131595761Y-160710428D01*
X131500523Y-160805666D01*
X131405285Y-160853285D01*
X131214809Y-160900904D01*
X131071952Y-160900904D01*
X130881476Y-160853285D01*
X130786238Y-160805666D01*
X130691000Y-160710428D01*
X130643380Y-160567571D01*
X130643380Y-160472333D01*
X130691000Y-160329476D01*
X130738619Y-160281857D01*
X131643380Y-159329476D02*
X131643380Y-159900904D01*
X131643380Y-159615190D02*
X130643380Y-159615190D01*
X130786238Y-159710428D01*
X130881476Y-159805666D01*
X130929095Y-159900904D01*
X130643380Y-158996142D02*
X130643380Y-158377095D01*
X131024333Y-158710428D01*
X131024333Y-158567571D01*
X131071952Y-158472333D01*
X131119571Y-158424714D01*
X131214809Y-158377095D01*
X131452904Y-158377095D01*
X131548142Y-158424714D01*
X131595761Y-158472333D01*
X131643380Y-158567571D01*
X131643380Y-158853285D01*
X131595761Y-158948523D01*
X131548142Y-158996142D01*
%TO.C,C12*%
X135739142Y-160154857D02*
X135786761Y-160202476D01*
X135834380Y-160345333D01*
X135834380Y-160440571D01*
X135786761Y-160583428D01*
X135691523Y-160678666D01*
X135596285Y-160726285D01*
X135405809Y-160773904D01*
X135262952Y-160773904D01*
X135072476Y-160726285D01*
X134977238Y-160678666D01*
X134882000Y-160583428D01*
X134834380Y-160440571D01*
X134834380Y-160345333D01*
X134882000Y-160202476D01*
X134929619Y-160154857D01*
X135834380Y-159202476D02*
X135834380Y-159773904D01*
X135834380Y-159488190D02*
X134834380Y-159488190D01*
X134977238Y-159583428D01*
X135072476Y-159678666D01*
X135120095Y-159773904D01*
X134929619Y-158821523D02*
X134882000Y-158773904D01*
X134834380Y-158678666D01*
X134834380Y-158440571D01*
X134882000Y-158345333D01*
X134929619Y-158297714D01*
X135024857Y-158250095D01*
X135120095Y-158250095D01*
X135262952Y-158297714D01*
X135834380Y-158869142D01*
X135834380Y-158250095D01*
%TO.C,C11*%
X96131142Y-169902142D02*
X96083523Y-169949761D01*
X95940666Y-169997380D01*
X95845428Y-169997380D01*
X95702571Y-169949761D01*
X95607333Y-169854523D01*
X95559714Y-169759285D01*
X95512095Y-169568809D01*
X95512095Y-169425952D01*
X95559714Y-169235476D01*
X95607333Y-169140238D01*
X95702571Y-169045000D01*
X95845428Y-168997380D01*
X95940666Y-168997380D01*
X96083523Y-169045000D01*
X96131142Y-169092619D01*
X97083523Y-169997380D02*
X96512095Y-169997380D01*
X96797809Y-169997380D02*
X96797809Y-168997380D01*
X96702571Y-169140238D01*
X96607333Y-169235476D01*
X96512095Y-169283095D01*
X98035904Y-169997380D02*
X97464476Y-169997380D01*
X97750190Y-169997380D02*
X97750190Y-168997380D01*
X97654952Y-169140238D01*
X97559714Y-169235476D01*
X97464476Y-169283095D01*
%TO.C,C10*%
X108882142Y-160154857D02*
X108929761Y-160202476D01*
X108977380Y-160345333D01*
X108977380Y-160440571D01*
X108929761Y-160583428D01*
X108834523Y-160678666D01*
X108739285Y-160726285D01*
X108548809Y-160773904D01*
X108405952Y-160773904D01*
X108215476Y-160726285D01*
X108120238Y-160678666D01*
X108025000Y-160583428D01*
X107977380Y-160440571D01*
X107977380Y-160345333D01*
X108025000Y-160202476D01*
X108072619Y-160154857D01*
X108977380Y-159202476D02*
X108977380Y-159773904D01*
X108977380Y-159488190D02*
X107977380Y-159488190D01*
X108120238Y-159583428D01*
X108215476Y-159678666D01*
X108263095Y-159773904D01*
X107977380Y-158583428D02*
X107977380Y-158488190D01*
X108025000Y-158392952D01*
X108072619Y-158345333D01*
X108167857Y-158297714D01*
X108358333Y-158250095D01*
X108596428Y-158250095D01*
X108786904Y-158297714D01*
X108882142Y-158345333D01*
X108929761Y-158392952D01*
X108977380Y-158488190D01*
X108977380Y-158583428D01*
X108929761Y-158678666D01*
X108882142Y-158726285D01*
X108786904Y-158773904D01*
X108596428Y-158821523D01*
X108358333Y-158821523D01*
X108167857Y-158773904D01*
X108072619Y-158726285D01*
X108025000Y-158678666D01*
X107977380Y-158583428D01*
%TO.C,C9*%
X113387142Y-160186666D02*
X113434761Y-160234285D01*
X113482380Y-160377142D01*
X113482380Y-160472380D01*
X113434761Y-160615238D01*
X113339523Y-160710476D01*
X113244285Y-160758095D01*
X113053809Y-160805714D01*
X112910952Y-160805714D01*
X112720476Y-160758095D01*
X112625238Y-160710476D01*
X112530000Y-160615238D01*
X112482380Y-160472380D01*
X112482380Y-160377142D01*
X112530000Y-160234285D01*
X112577619Y-160186666D01*
X113482380Y-159710476D02*
X113482380Y-159520000D01*
X113434761Y-159424761D01*
X113387142Y-159377142D01*
X113244285Y-159281904D01*
X113053809Y-159234285D01*
X112672857Y-159234285D01*
X112577619Y-159281904D01*
X112530000Y-159329523D01*
X112482380Y-159424761D01*
X112482380Y-159615238D01*
X112530000Y-159710476D01*
X112577619Y-159758095D01*
X112672857Y-159805714D01*
X112910952Y-159805714D01*
X113006190Y-159758095D01*
X113053809Y-159710476D01*
X113101428Y-159615238D01*
X113101428Y-159424761D01*
X113053809Y-159329523D01*
X113006190Y-159281904D01*
X112910952Y-159234285D01*
%TO.C,C8*%
X126833333Y-138357142D02*
X126785714Y-138404761D01*
X126642857Y-138452380D01*
X126547619Y-138452380D01*
X126404761Y-138404761D01*
X126309523Y-138309523D01*
X126261904Y-138214285D01*
X126214285Y-138023809D01*
X126214285Y-137880952D01*
X126261904Y-137690476D01*
X126309523Y-137595238D01*
X126404761Y-137500000D01*
X126547619Y-137452380D01*
X126642857Y-137452380D01*
X126785714Y-137500000D01*
X126833333Y-137547619D01*
X127404761Y-137880952D02*
X127309523Y-137833333D01*
X127261904Y-137785714D01*
X127214285Y-137690476D01*
X127214285Y-137642857D01*
X127261904Y-137547619D01*
X127309523Y-137500000D01*
X127404761Y-137452380D01*
X127595238Y-137452380D01*
X127690476Y-137500000D01*
X127738095Y-137547619D01*
X127785714Y-137642857D01*
X127785714Y-137690476D01*
X127738095Y-137785714D01*
X127690476Y-137833333D01*
X127595238Y-137880952D01*
X127404761Y-137880952D01*
X127309523Y-137928571D01*
X127261904Y-137976190D01*
X127214285Y-138071428D01*
X127214285Y-138261904D01*
X127261904Y-138357142D01*
X127309523Y-138404761D01*
X127404761Y-138452380D01*
X127595238Y-138452380D01*
X127690476Y-138404761D01*
X127738095Y-138357142D01*
X127785714Y-138261904D01*
X127785714Y-138071428D01*
X127738095Y-137976190D01*
X127690476Y-137928571D01*
X127595238Y-137880952D01*
%TO.C,C7*%
X104087142Y-134661666D02*
X104134761Y-134709285D01*
X104182380Y-134852142D01*
X104182380Y-134947380D01*
X104134761Y-135090238D01*
X104039523Y-135185476D01*
X103944285Y-135233095D01*
X103753809Y-135280714D01*
X103610952Y-135280714D01*
X103420476Y-135233095D01*
X103325238Y-135185476D01*
X103230000Y-135090238D01*
X103182380Y-134947380D01*
X103182380Y-134852142D01*
X103230000Y-134709285D01*
X103277619Y-134661666D01*
X103182380Y-134328333D02*
X103182380Y-133661666D01*
X104182380Y-134090238D01*
%TO.C,C6*%
X135833333Y-132857142D02*
X135785714Y-132904761D01*
X135642857Y-132952380D01*
X135547619Y-132952380D01*
X135404761Y-132904761D01*
X135309523Y-132809523D01*
X135261904Y-132714285D01*
X135214285Y-132523809D01*
X135214285Y-132380952D01*
X135261904Y-132190476D01*
X135309523Y-132095238D01*
X135404761Y-132000000D01*
X135547619Y-131952380D01*
X135642857Y-131952380D01*
X135785714Y-132000000D01*
X135833333Y-132047619D01*
X136690476Y-131952380D02*
X136500000Y-131952380D01*
X136404761Y-132000000D01*
X136357142Y-132047619D01*
X136261904Y-132190476D01*
X136214285Y-132380952D01*
X136214285Y-132761904D01*
X136261904Y-132857142D01*
X136309523Y-132904761D01*
X136404761Y-132952380D01*
X136595238Y-132952380D01*
X136690476Y-132904761D01*
X136738095Y-132857142D01*
X136785714Y-132761904D01*
X136785714Y-132523809D01*
X136738095Y-132428571D01*
X136690476Y-132380952D01*
X136595238Y-132333333D01*
X136404761Y-132333333D01*
X136309523Y-132380952D01*
X136261904Y-132428571D01*
X136214285Y-132523809D01*
%TO.C,C5*%
X113641142Y-122594666D02*
X113688761Y-122642285D01*
X113736380Y-122785142D01*
X113736380Y-122880380D01*
X113688761Y-123023238D01*
X113593523Y-123118476D01*
X113498285Y-123166095D01*
X113307809Y-123213714D01*
X113164952Y-123213714D01*
X112974476Y-123166095D01*
X112879238Y-123118476D01*
X112784000Y-123023238D01*
X112736380Y-122880380D01*
X112736380Y-122785142D01*
X112784000Y-122642285D01*
X112831619Y-122594666D01*
X112736380Y-121689904D02*
X112736380Y-122166095D01*
X113212571Y-122213714D01*
X113164952Y-122166095D01*
X113117333Y-122070857D01*
X113117333Y-121832761D01*
X113164952Y-121737523D01*
X113212571Y-121689904D01*
X113307809Y-121642285D01*
X113545904Y-121642285D01*
X113641142Y-121689904D01*
X113688761Y-121737523D01*
X113736380Y-121832761D01*
X113736380Y-122070857D01*
X113688761Y-122166095D01*
X113641142Y-122213714D01*
%TO.C,C4*%
X120195592Y-151550666D02*
X120243211Y-151598285D01*
X120290830Y-151741142D01*
X120290830Y-151836380D01*
X120243211Y-151979238D01*
X120147973Y-152074476D01*
X120052735Y-152122095D01*
X119862259Y-152169714D01*
X119719402Y-152169714D01*
X119528926Y-152122095D01*
X119433688Y-152074476D01*
X119338450Y-151979238D01*
X119290830Y-151836380D01*
X119290830Y-151741142D01*
X119338450Y-151598285D01*
X119386069Y-151550666D01*
X119624164Y-150693523D02*
X120290830Y-150693523D01*
X119243211Y-150931619D02*
X119957497Y-151169714D01*
X119957497Y-150550666D01*
%TO.C,C3*%
X125607142Y-151320666D02*
X125654761Y-151368285D01*
X125702380Y-151511142D01*
X125702380Y-151606380D01*
X125654761Y-151749238D01*
X125559523Y-151844476D01*
X125464285Y-151892095D01*
X125273809Y-151939714D01*
X125130952Y-151939714D01*
X124940476Y-151892095D01*
X124845238Y-151844476D01*
X124750000Y-151749238D01*
X124702380Y-151606380D01*
X124702380Y-151511142D01*
X124750000Y-151368285D01*
X124797619Y-151320666D01*
X124702380Y-150987333D02*
X124702380Y-150368285D01*
X125083333Y-150701619D01*
X125083333Y-150558761D01*
X125130952Y-150463523D01*
X125178571Y-150415904D01*
X125273809Y-150368285D01*
X125511904Y-150368285D01*
X125607142Y-150415904D01*
X125654761Y-150463523D01*
X125702380Y-150558761D01*
X125702380Y-150844476D01*
X125654761Y-150939714D01*
X125607142Y-150987333D01*
%TO.C,C2*%
X114333333Y-149641642D02*
X114285714Y-149689261D01*
X114142857Y-149736880D01*
X114047619Y-149736880D01*
X113904761Y-149689261D01*
X113809523Y-149594023D01*
X113761904Y-149498785D01*
X113714285Y-149308309D01*
X113714285Y-149165452D01*
X113761904Y-148974976D01*
X113809523Y-148879738D01*
X113904761Y-148784500D01*
X114047619Y-148736880D01*
X114142857Y-148736880D01*
X114285714Y-148784500D01*
X114333333Y-148832119D01*
X114714285Y-148832119D02*
X114761904Y-148784500D01*
X114857142Y-148736880D01*
X115095238Y-148736880D01*
X115190476Y-148784500D01*
X115238095Y-148832119D01*
X115285714Y-148927357D01*
X115285714Y-149022595D01*
X115238095Y-149165452D01*
X114666666Y-149736880D01*
X115285714Y-149736880D01*
%TO.C,C1*%
X116562142Y-165012666D02*
X116609761Y-165060285D01*
X116657380Y-165203142D01*
X116657380Y-165298380D01*
X116609761Y-165441238D01*
X116514523Y-165536476D01*
X116419285Y-165584095D01*
X116228809Y-165631714D01*
X116085952Y-165631714D01*
X115895476Y-165584095D01*
X115800238Y-165536476D01*
X115705000Y-165441238D01*
X115657380Y-165298380D01*
X115657380Y-165203142D01*
X115705000Y-165060285D01*
X115752619Y-165012666D01*
X116657380Y-164060285D02*
X116657380Y-164631714D01*
X116657380Y-164346000D02*
X115657380Y-164346000D01*
X115800238Y-164441238D01*
X115895476Y-164536476D01*
X115943095Y-164631714D01*
%TD*%
M02*
