%TF.GenerationSoftware,KiCad,Pcbnew,5.1.12-84ad8e8a86~92~ubuntu21.04.1*%
%TF.CreationDate,2021-11-23T21:41:36+01:00*%
%TF.ProjectId,main,6d61696e-2e6b-4696-9361-645f70636258,rev?*%
%TF.SameCoordinates,Original*%
%TF.FileFunction,Copper,L2,Bot*%
%TF.FilePolarity,Positive*%
%FSLAX46Y46*%
G04 Gerber Fmt 4.6, Leading zero omitted, Abs format (unit mm)*
G04 Created by KiCad (PCBNEW 5.1.12-84ad8e8a86~92~ubuntu21.04.1) date 2021-11-23 21:41:36*
%MOMM*%
%LPD*%
G01*
G04 APERTURE LIST*
%TA.AperFunction,NonConductor*%
%ADD10C,0.150000*%
%TD*%
%TA.AperFunction,ComponentPad*%
%ADD11O,1.117600X2.616200*%
%TD*%
%TA.AperFunction,ComponentPad*%
%ADD12O,1.117600X1.905000*%
%TD*%
%TA.AperFunction,ComponentPad*%
%ADD13C,0.660400*%
%TD*%
%TA.AperFunction,ComponentPad*%
%ADD14C,2.000000*%
%TD*%
%TA.AperFunction,ComponentPad*%
%ADD15R,3.000000X2.500000*%
%TD*%
%TA.AperFunction,ComponentPad*%
%ADD16R,2.000000X2.000000*%
%TD*%
%TA.AperFunction,ComponentPad*%
%ADD17O,1.700000X1.700000*%
%TD*%
%TA.AperFunction,ComponentPad*%
%ADD18R,1.700000X1.700000*%
%TD*%
%TA.AperFunction,ViaPad*%
%ADD19C,0.800000*%
%TD*%
%TA.AperFunction,Conductor*%
%ADD20C,0.600000*%
%TD*%
%TA.AperFunction,Conductor*%
%ADD21C,0.200000*%
%TD*%
%TA.AperFunction,Conductor*%
%ADD22C,0.254000*%
%TD*%
%TA.AperFunction,Conductor*%
%ADD23C,0.100000*%
%TD*%
G04 APERTURE END LIST*
D10*
X131238095Y-167952380D02*
X130904761Y-168952380D01*
X130571428Y-167952380D01*
X129714285Y-168952380D02*
X130285714Y-168952380D01*
X130000000Y-168952380D02*
X130000000Y-167952380D01*
X130095238Y-168095238D01*
X130190476Y-168190476D01*
X130285714Y-168238095D01*
X129285714Y-168857142D02*
X129238095Y-168904761D01*
X129285714Y-168952380D01*
X129333333Y-168904761D01*
X129285714Y-168857142D01*
X129285714Y-168952380D01*
X128619047Y-167952380D02*
X128523809Y-167952380D01*
X128428571Y-168000000D01*
X128380952Y-168047619D01*
X128333333Y-168142857D01*
X128285714Y-168333333D01*
X128285714Y-168571428D01*
X128333333Y-168761904D01*
X128380952Y-168857142D01*
X128428571Y-168904761D01*
X128523809Y-168952380D01*
X128619047Y-168952380D01*
X128714285Y-168904761D01*
X128761904Y-168857142D01*
X128809523Y-168761904D01*
X128857142Y-168571428D01*
X128857142Y-168333333D01*
X128809523Y-168142857D01*
X128761904Y-168047619D01*
X128714285Y-168000000D01*
X128619047Y-167952380D01*
X127857142Y-168857142D02*
X127809523Y-168904761D01*
X127857142Y-168952380D01*
X127904761Y-168904761D01*
X127857142Y-168857142D01*
X127857142Y-168952380D01*
X127190476Y-167952380D02*
X127095238Y-167952380D01*
X127000000Y-168000000D01*
X126952380Y-168047619D01*
X126904761Y-168142857D01*
X126857142Y-168333333D01*
X126857142Y-168571428D01*
X126904761Y-168761904D01*
X126952380Y-168857142D01*
X127000000Y-168904761D01*
X127095238Y-168952380D01*
X127190476Y-168952380D01*
X127285714Y-168904761D01*
X127333333Y-168857142D01*
X127380952Y-168761904D01*
X127428571Y-168571428D01*
X127428571Y-168333333D01*
X127380952Y-168142857D01*
X127333333Y-168047619D01*
X127285714Y-168000000D01*
X127190476Y-167952380D01*
D11*
%TO.P,J4,18*%
%TO.N,GND*%
X117276971Y-124140000D03*
%TO.P,J4,17*%
%TO.N,Net-(J4-Pad17)*%
X125926956Y-124139999D03*
D12*
%TO.P,J4,20*%
%TO.N,Net-(J4-Pad20)*%
X117276971Y-120755000D03*
%TO.P,J4,19*%
%TO.N,Net-(J4-Pad19)*%
X125926941Y-120755000D03*
D13*
%TO.P,J4,16*%
%TO.N,GND*%
X118626955Y-123770000D03*
%TO.P,J4,15*%
%TO.N,/Power supply/V_USB*%
X119476956Y-123770000D03*
%TO.P,J4,14*%
%TO.N,Net-(J4-Pad14)*%
X120326954Y-123770000D03*
%TO.P,J4,13*%
%TO.N,/USB port/USB_D+*%
X121176955Y-123770000D03*
%TO.P,J4,12*%
%TO.N,/USB port/USB_D-*%
X122026956Y-123770000D03*
%TO.P,J4,11*%
%TO.N,Net-(J4-Pad11)*%
X122876957Y-123770000D03*
%TO.P,J4,10*%
%TO.N,/Power supply/V_USB*%
X123726955Y-123770000D03*
%TO.P,J4,9*%
%TO.N,GND*%
X124576956Y-123770000D03*
%TO.P,J4,8*%
X118626955Y-125120000D03*
%TO.P,J4,7*%
%TO.N,/Power supply/V_USB*%
X119476956Y-125120000D03*
%TO.P,J4,6*%
%TO.N,Net-(J4-Pad6)*%
X120326954Y-125120000D03*
%TO.P,J4,5*%
%TO.N,/USB port/USB_D-*%
X121176955Y-125120000D03*
%TO.P,J4,4*%
%TO.N,/USB port/USB_D+*%
X122026956Y-125120000D03*
%TO.P,J4,3*%
%TO.N,Net-(J4-Pad3)*%
X122876957Y-125120000D03*
%TO.P,J4,2*%
%TO.N,/Power supply/V_USB*%
X123726955Y-125120000D03*
%TO.P,J4,1*%
%TO.N,GND*%
X124576956Y-125120000D03*
%TD*%
D14*
%TO.P,SW3,S2*%
%TO.N,GND*%
X154200000Y-162480000D03*
%TO.P,SW3,S1*%
%TO.N,Net-(R18-Pad1)*%
X154200000Y-157480000D03*
D15*
%TO.P,SW3,MP*%
%TO.N,N/C*%
X147200000Y-165580000D03*
X147200000Y-154380000D03*
D14*
%TO.P,SW3,B*%
%TO.N,Net-(R14-Pad1)*%
X139700000Y-162480000D03*
%TO.P,SW3,C*%
%TO.N,GND*%
X139700000Y-159980000D03*
D16*
%TO.P,SW3,A*%
%TO.N,Net-(R15-Pad1)*%
X139700000Y-157480000D03*
%TD*%
D17*
%TO.P,JP2,2*%
%TO.N,Net-(C8-Pad1)*%
X101600000Y-129540000D03*
D18*
%TO.P,JP2,1*%
%TO.N,+3V3*%
X99060000Y-129540000D03*
%TD*%
D17*
%TO.P,JP1,2*%
%TO.N,/Power supply/V_USB*%
X139700000Y-129540000D03*
D18*
%TO.P,JP1,1*%
%TO.N,+5V*%
X142240000Y-129540000D03*
%TD*%
D14*
%TO.P,SW2,S2*%
%TO.N,GND*%
X89640000Y-157560000D03*
%TO.P,SW2,S1*%
%TO.N,Net-(R12-Pad1)*%
X89640000Y-162560000D03*
D15*
%TO.P,SW2,MP*%
%TO.N,N/C*%
X96640000Y-154460000D03*
X96640000Y-165660000D03*
D14*
%TO.P,SW2,B*%
%TO.N,Net-(R10-Pad2)*%
X104140000Y-157560000D03*
%TO.P,SW2,C*%
%TO.N,GND*%
X104140000Y-160060000D03*
D16*
%TO.P,SW2,A*%
%TO.N,Net-(R11-Pad2)*%
X104140000Y-162560000D03*
%TD*%
D17*
%TO.P,J7,4*%
%TO.N,GND*%
X109220000Y-124460000D03*
%TO.P,J7,3*%
X106680000Y-124460000D03*
%TO.P,J7,2*%
X109220000Y-121920000D03*
D18*
%TO.P,J7,1*%
X106680000Y-121920000D03*
%TD*%
D17*
%TO.P,J6,4*%
%TO.N,+3V3*%
X101600000Y-124460000D03*
%TO.P,J6,3*%
X99060000Y-124460000D03*
%TO.P,J6,2*%
X101600000Y-121920000D03*
D18*
%TO.P,J6,1*%
X99060000Y-121920000D03*
%TD*%
D17*
%TO.P,J5,4*%
%TO.N,+5V*%
X142240000Y-124460000D03*
%TO.P,J5,3*%
X139700000Y-124460000D03*
%TO.P,J5,2*%
X142240000Y-121920000D03*
D18*
%TO.P,J5,1*%
X139700000Y-121920000D03*
%TD*%
D17*
%TO.P,J3,8*%
%TO.N,Net-(J3-Pad8)*%
X152400000Y-139700000D03*
%TO.P,J3,7*%
%TO.N,Net-(J3-Pad7)*%
X152400000Y-137160000D03*
%TO.P,J3,6*%
%TO.N,Net-(J3-Pad6)*%
X152400000Y-134620000D03*
%TO.P,J3,5*%
%TO.N,Net-(J3-Pad5)*%
X152400000Y-132080000D03*
%TO.P,J3,4*%
%TO.N,Net-(J3-Pad4)*%
X152400000Y-129540000D03*
%TO.P,J3,3*%
%TO.N,Net-(J3-Pad3)*%
X152400000Y-127000000D03*
%TO.P,J3,2*%
%TO.N,Net-(J3-Pad2)*%
X152400000Y-124460000D03*
D18*
%TO.P,J3,1*%
%TO.N,GND*%
X152400000Y-121920000D03*
%TD*%
D17*
%TO.P,J1,8*%
%TO.N,Net-(J1-Pad8)*%
X91440000Y-121920000D03*
%TO.P,J1,7*%
%TO.N,Net-(J1-Pad7)*%
X91440000Y-124460000D03*
%TO.P,J1,6*%
%TO.N,Net-(J1-Pad6)*%
X91440000Y-127000000D03*
%TO.P,J1,5*%
%TO.N,Net-(J1-Pad5)*%
X91440000Y-129540000D03*
%TO.P,J1,4*%
%TO.N,Net-(J1-Pad4)*%
X91440000Y-132080000D03*
%TO.P,J1,3*%
%TO.N,Net-(J1-Pad3)*%
X91440000Y-134620000D03*
%TO.P,J1,2*%
%TO.N,Net-(J1-Pad2)*%
X91440000Y-137160000D03*
D18*
%TO.P,J1,1*%
%TO.N,Net-(J1-Pad1)*%
X91440000Y-139700000D03*
%TD*%
D19*
%TO.N,GND*%
X129540000Y-134620000D03*
X135890000Y-138430000D03*
X119701076Y-165865576D03*
X105410000Y-132080000D03*
X129657990Y-140852010D03*
X112950000Y-160401000D03*
X108525000Y-160401000D03*
X131160000Y-160401000D03*
X135320000Y-160336000D03*
X123444000Y-149098000D03*
X121268450Y-149098000D03*
X123444000Y-153670000D03*
X118110000Y-141986000D03*
X118110000Y-143256000D03*
X104394000Y-142748000D03*
X118594390Y-132611610D03*
X134088500Y-125880500D03*
%TO.N,+3.3VA*%
X116472250Y-166002250D03*
X103481500Y-135532500D03*
%TO.N,Net-(C2-Pad2)*%
X120015000Y-157480000D03*
X118364000Y-155829000D03*
%TO.N,+3V3*%
X119888000Y-149098000D03*
X109977000Y-157221000D03*
X133832602Y-157251398D03*
%TO.N,Net-(C8-Pad1)*%
X123509999Y-135570001D03*
X105410000Y-129540000D03*
%TO.N,/USB port/USB_D+*%
X118062781Y-126746000D03*
%TO.N,/USB port/USB_D-*%
X119125999Y-126746000D03*
%TO.N,Net-(J2-Pad10)*%
X107545500Y-143105500D03*
X114300000Y-139446000D03*
%TO.N,Net-(J4-Pad3)*%
X122876957Y-127059043D03*
X129667000Y-123317000D03*
%TD*%
D20*
%TO.N,GND*%
X124576956Y-125120000D02*
X124576956Y-123770000D01*
X118626955Y-123770000D02*
X118626955Y-122428000D01*
X132360000Y-122200000D02*
X132588000Y-122428000D01*
X123929929Y-122200000D02*
X111100000Y-122200000D01*
X124576956Y-122223044D02*
X124600000Y-122200000D01*
X124600000Y-122200000D02*
X132360000Y-122200000D01*
X124576956Y-123770000D02*
X124576956Y-122223044D01*
X123929929Y-122200000D02*
X124600000Y-122200000D01*
%TO.N,+3.3VA*%
X116472250Y-166002250D02*
X113564500Y-168910000D01*
X90170000Y-168910000D02*
X87630000Y-166370000D01*
X113564500Y-168910000D02*
X90170000Y-168910000D01*
X103481500Y-135532500D02*
X87630000Y-151384000D01*
X87630000Y-166370000D02*
X87630000Y-151384000D01*
D21*
%TO.N,Net-(C2-Pad2)*%
X120015000Y-157480000D02*
X118364000Y-155829000D01*
X118364000Y-155829000D02*
X118364000Y-155829000D01*
D20*
%TO.N,+3V3*%
X119888000Y-149098000D02*
X119888000Y-148082000D01*
X119888000Y-148082000D02*
X120396000Y-147574000D01*
X124155204Y-147574000D02*
X133832602Y-157251398D01*
X120396000Y-147574000D02*
X124155204Y-147574000D01*
X119888000Y-151384000D02*
X114051000Y-157221000D01*
X114051000Y-157221000D02*
X109977000Y-157221000D01*
X119888000Y-149098000D02*
X119888000Y-151384000D01*
%TO.N,Net-(C8-Pad1)*%
X111440001Y-135570001D02*
X105410000Y-129540000D01*
X123509999Y-135570001D02*
X111440001Y-135570001D01*
D21*
%TO.N,/USB port/USB_D+*%
X118062781Y-124859516D02*
X118062781Y-126746000D01*
X118359498Y-124562799D02*
X118062781Y-124859516D01*
X120384156Y-124562799D02*
X118359498Y-124562799D01*
X121176955Y-123770000D02*
X120384156Y-124562799D01*
X118062781Y-126746000D02*
X118062781Y-126746000D01*
%TO.N,/USB port/USB_D-*%
X122026956Y-124269999D02*
X121176955Y-125120000D01*
X122026956Y-123770000D02*
X122026956Y-124269999D01*
X119126000Y-126238000D02*
X119126000Y-126746000D01*
X119686799Y-125677201D02*
X119126000Y-126238000D01*
X120619754Y-125677201D02*
X119686799Y-125677201D01*
X121176955Y-125120000D02*
X120619754Y-125677201D01*
X119126000Y-126746000D02*
X119126000Y-126746000D01*
D20*
%TO.N,Net-(J2-Pad10)*%
X110640500Y-143105500D02*
X114300000Y-139446000D01*
X107545500Y-143105500D02*
X110640500Y-143105500D01*
D21*
%TO.N,Net-(J4-Pad3)*%
X122876957Y-127059043D02*
X124908957Y-127059043D01*
X124908957Y-127059043D02*
X124908957Y-127059043D01*
X124908957Y-127059043D02*
X125924957Y-127059043D01*
X125924957Y-127059043D02*
X129667000Y-123317000D01*
X129667000Y-123317000D02*
X129667000Y-123317000D01*
%TD*%
D22*
%TO.N,GND*%
X111633000Y-132080000D02*
X111635440Y-132104776D01*
X111642667Y-132128601D01*
X111654403Y-132150557D01*
X111670197Y-132169803D01*
X111689443Y-132185597D01*
X111711399Y-132197333D01*
X111735224Y-132204560D01*
X111760000Y-132207000D01*
X132080000Y-132207000D01*
X132104776Y-132204560D01*
X132128601Y-132197333D01*
X132150557Y-132185597D01*
X132169803Y-132169803D01*
X132185597Y-132150557D01*
X132197333Y-132128601D01*
X132204560Y-132104776D01*
X132207000Y-132080000D01*
X132207000Y-129393740D01*
X138215000Y-129393740D01*
X138215000Y-129686260D01*
X138272068Y-129973158D01*
X138384010Y-130243411D01*
X138546525Y-130486632D01*
X138753368Y-130693475D01*
X138996589Y-130855990D01*
X139266842Y-130967932D01*
X139553740Y-131025000D01*
X139846260Y-131025000D01*
X140133158Y-130967932D01*
X140403411Y-130855990D01*
X140646632Y-130693475D01*
X140778487Y-130561620D01*
X140800498Y-130634180D01*
X140859463Y-130744494D01*
X140938815Y-130841185D01*
X141035506Y-130920537D01*
X141145820Y-130979502D01*
X141265518Y-131015812D01*
X141390000Y-131028072D01*
X143090000Y-131028072D01*
X143214482Y-131015812D01*
X143334180Y-130979502D01*
X143444494Y-130920537D01*
X143541185Y-130841185D01*
X143620537Y-130744494D01*
X143679502Y-130634180D01*
X143715812Y-130514482D01*
X143728072Y-130390000D01*
X143728072Y-128690000D01*
X143715812Y-128565518D01*
X143679502Y-128445820D01*
X143620537Y-128335506D01*
X143541185Y-128238815D01*
X143444494Y-128159463D01*
X143334180Y-128100498D01*
X143214482Y-128064188D01*
X143090000Y-128051928D01*
X141390000Y-128051928D01*
X141265518Y-128064188D01*
X141145820Y-128100498D01*
X141035506Y-128159463D01*
X140938815Y-128238815D01*
X140859463Y-128335506D01*
X140800498Y-128445820D01*
X140778487Y-128518380D01*
X140646632Y-128386525D01*
X140403411Y-128224010D01*
X140133158Y-128112068D01*
X139846260Y-128055000D01*
X139553740Y-128055000D01*
X139266842Y-128112068D01*
X138996589Y-128224010D01*
X138753368Y-128386525D01*
X138546525Y-128593368D01*
X138384010Y-128836589D01*
X138272068Y-129106842D01*
X138215000Y-129393740D01*
X132207000Y-129393740D01*
X132207000Y-121070000D01*
X138211928Y-121070000D01*
X138211928Y-122770000D01*
X138224188Y-122894482D01*
X138260498Y-123014180D01*
X138319463Y-123124494D01*
X138398815Y-123221185D01*
X138495506Y-123300537D01*
X138605820Y-123359502D01*
X138678380Y-123381513D01*
X138546525Y-123513368D01*
X138384010Y-123756589D01*
X138272068Y-124026842D01*
X138215000Y-124313740D01*
X138215000Y-124606260D01*
X138272068Y-124893158D01*
X138384010Y-125163411D01*
X138546525Y-125406632D01*
X138753368Y-125613475D01*
X138996589Y-125775990D01*
X139266842Y-125887932D01*
X139553740Y-125945000D01*
X139846260Y-125945000D01*
X140133158Y-125887932D01*
X140403411Y-125775990D01*
X140646632Y-125613475D01*
X140853475Y-125406632D01*
X140970000Y-125232240D01*
X141086525Y-125406632D01*
X141293368Y-125613475D01*
X141536589Y-125775990D01*
X141806842Y-125887932D01*
X142093740Y-125945000D01*
X142386260Y-125945000D01*
X142673158Y-125887932D01*
X142943411Y-125775990D01*
X143186632Y-125613475D01*
X143393475Y-125406632D01*
X143555990Y-125163411D01*
X143667932Y-124893158D01*
X143725000Y-124606260D01*
X143725000Y-124313740D01*
X143667932Y-124026842D01*
X143555990Y-123756589D01*
X143393475Y-123513368D01*
X143186632Y-123306525D01*
X143012240Y-123190000D01*
X143186632Y-123073475D01*
X143393475Y-122866632D01*
X143555990Y-122623411D01*
X143574337Y-122579117D01*
X145515000Y-122579117D01*
X145515000Y-122920883D01*
X145581675Y-123256081D01*
X145712463Y-123571831D01*
X145902337Y-123855998D01*
X146144002Y-124097663D01*
X146428169Y-124287537D01*
X146743919Y-124418325D01*
X147079117Y-124485000D01*
X147420883Y-124485000D01*
X147756081Y-124418325D01*
X148071831Y-124287537D01*
X148355998Y-124097663D01*
X148597663Y-123855998D01*
X148787537Y-123571831D01*
X148918325Y-123256081D01*
X148985000Y-122920883D01*
X148985000Y-122770000D01*
X150911928Y-122770000D01*
X150924188Y-122894482D01*
X150960498Y-123014180D01*
X151019463Y-123124494D01*
X151098815Y-123221185D01*
X151195506Y-123300537D01*
X151305820Y-123359502D01*
X151378380Y-123381513D01*
X151246525Y-123513368D01*
X151084010Y-123756589D01*
X150972068Y-124026842D01*
X150915000Y-124313740D01*
X150915000Y-124606260D01*
X150972068Y-124893158D01*
X151084010Y-125163411D01*
X151246525Y-125406632D01*
X151453368Y-125613475D01*
X151627760Y-125730000D01*
X151453368Y-125846525D01*
X151246525Y-126053368D01*
X151084010Y-126296589D01*
X150972068Y-126566842D01*
X150915000Y-126853740D01*
X150915000Y-127146260D01*
X150972068Y-127433158D01*
X151084010Y-127703411D01*
X151246525Y-127946632D01*
X151453368Y-128153475D01*
X151627760Y-128270000D01*
X151453368Y-128386525D01*
X151246525Y-128593368D01*
X151084010Y-128836589D01*
X150972068Y-129106842D01*
X150915000Y-129393740D01*
X150915000Y-129686260D01*
X150972068Y-129973158D01*
X151084010Y-130243411D01*
X151246525Y-130486632D01*
X151453368Y-130693475D01*
X151627760Y-130810000D01*
X151453368Y-130926525D01*
X151246525Y-131133368D01*
X151084010Y-131376589D01*
X150972068Y-131646842D01*
X150915000Y-131933740D01*
X150915000Y-132226260D01*
X150972068Y-132513158D01*
X151084010Y-132783411D01*
X151246525Y-133026632D01*
X151453368Y-133233475D01*
X151627760Y-133350000D01*
X151453368Y-133466525D01*
X151246525Y-133673368D01*
X151084010Y-133916589D01*
X150972068Y-134186842D01*
X150915000Y-134473740D01*
X150915000Y-134766260D01*
X150972068Y-135053158D01*
X151084010Y-135323411D01*
X151246525Y-135566632D01*
X151453368Y-135773475D01*
X151627760Y-135890000D01*
X151453368Y-136006525D01*
X151246525Y-136213368D01*
X151084010Y-136456589D01*
X150972068Y-136726842D01*
X150915000Y-137013740D01*
X150915000Y-137306260D01*
X150972068Y-137593158D01*
X151084010Y-137863411D01*
X151246525Y-138106632D01*
X151453368Y-138313475D01*
X151627760Y-138430000D01*
X151453368Y-138546525D01*
X151246525Y-138753368D01*
X151084010Y-138996589D01*
X150972068Y-139266842D01*
X150915000Y-139553740D01*
X150915000Y-139846260D01*
X150972068Y-140133158D01*
X151084010Y-140403411D01*
X151246525Y-140646632D01*
X151453368Y-140853475D01*
X151696589Y-141015990D01*
X151966842Y-141127932D01*
X152253740Y-141185000D01*
X152546260Y-141185000D01*
X152833158Y-141127932D01*
X153103411Y-141015990D01*
X153346632Y-140853475D01*
X153553475Y-140646632D01*
X153715990Y-140403411D01*
X153827932Y-140133158D01*
X153885000Y-139846260D01*
X153885000Y-139553740D01*
X153827932Y-139266842D01*
X153715990Y-138996589D01*
X153553475Y-138753368D01*
X153346632Y-138546525D01*
X153172240Y-138430000D01*
X153346632Y-138313475D01*
X153553475Y-138106632D01*
X153715990Y-137863411D01*
X153827932Y-137593158D01*
X153885000Y-137306260D01*
X153885000Y-137013740D01*
X153827932Y-136726842D01*
X153715990Y-136456589D01*
X153553475Y-136213368D01*
X153346632Y-136006525D01*
X153172240Y-135890000D01*
X153346632Y-135773475D01*
X153553475Y-135566632D01*
X153715990Y-135323411D01*
X153827932Y-135053158D01*
X153885000Y-134766260D01*
X153885000Y-134473740D01*
X153827932Y-134186842D01*
X153715990Y-133916589D01*
X153553475Y-133673368D01*
X153346632Y-133466525D01*
X153172240Y-133350000D01*
X153346632Y-133233475D01*
X153553475Y-133026632D01*
X153715990Y-132783411D01*
X153827932Y-132513158D01*
X153885000Y-132226260D01*
X153885000Y-131933740D01*
X153827932Y-131646842D01*
X153715990Y-131376589D01*
X153553475Y-131133368D01*
X153346632Y-130926525D01*
X153172240Y-130810000D01*
X153346632Y-130693475D01*
X153553475Y-130486632D01*
X153715990Y-130243411D01*
X153827932Y-129973158D01*
X153885000Y-129686260D01*
X153885000Y-129393740D01*
X153827932Y-129106842D01*
X153715990Y-128836589D01*
X153553475Y-128593368D01*
X153346632Y-128386525D01*
X153172240Y-128270000D01*
X153346632Y-128153475D01*
X153553475Y-127946632D01*
X153715990Y-127703411D01*
X153827932Y-127433158D01*
X153885000Y-127146260D01*
X153885000Y-126853740D01*
X153827932Y-126566842D01*
X153715990Y-126296589D01*
X153553475Y-126053368D01*
X153346632Y-125846525D01*
X153172240Y-125730000D01*
X153346632Y-125613475D01*
X153553475Y-125406632D01*
X153715990Y-125163411D01*
X153827932Y-124893158D01*
X153885000Y-124606260D01*
X153885000Y-124313740D01*
X153827932Y-124026842D01*
X153715990Y-123756589D01*
X153553475Y-123513368D01*
X153421620Y-123381513D01*
X153494180Y-123359502D01*
X153604494Y-123300537D01*
X153701185Y-123221185D01*
X153780537Y-123124494D01*
X153839502Y-123014180D01*
X153875812Y-122894482D01*
X153888072Y-122770000D01*
X153885000Y-122205750D01*
X153726250Y-122047000D01*
X152527000Y-122047000D01*
X152527000Y-122067000D01*
X152273000Y-122067000D01*
X152273000Y-122047000D01*
X151073750Y-122047000D01*
X150915000Y-122205750D01*
X150911928Y-122770000D01*
X148985000Y-122770000D01*
X148985000Y-122579117D01*
X148918325Y-122243919D01*
X148787537Y-121928169D01*
X148597663Y-121644002D01*
X148355998Y-121402337D01*
X148071831Y-121212463D01*
X147756081Y-121081675D01*
X147697387Y-121070000D01*
X150911928Y-121070000D01*
X150915000Y-121634250D01*
X151073750Y-121793000D01*
X152273000Y-121793000D01*
X152273000Y-120593750D01*
X152527000Y-120593750D01*
X152527000Y-121793000D01*
X153726250Y-121793000D01*
X153885000Y-121634250D01*
X153888072Y-121070000D01*
X153875812Y-120945518D01*
X153839502Y-120825820D01*
X153780537Y-120715506D01*
X153701185Y-120618815D01*
X153604494Y-120539463D01*
X153494180Y-120480498D01*
X153374482Y-120444188D01*
X153250000Y-120431928D01*
X152685750Y-120435000D01*
X152527000Y-120593750D01*
X152273000Y-120593750D01*
X152114250Y-120435000D01*
X151550000Y-120431928D01*
X151425518Y-120444188D01*
X151305820Y-120480498D01*
X151195506Y-120539463D01*
X151098815Y-120618815D01*
X151019463Y-120715506D01*
X150960498Y-120825820D01*
X150924188Y-120945518D01*
X150911928Y-121070000D01*
X147697387Y-121070000D01*
X147420883Y-121015000D01*
X147079117Y-121015000D01*
X146743919Y-121081675D01*
X146428169Y-121212463D01*
X146144002Y-121402337D01*
X145902337Y-121644002D01*
X145712463Y-121928169D01*
X145581675Y-122243919D01*
X145515000Y-122579117D01*
X143574337Y-122579117D01*
X143667932Y-122353158D01*
X143725000Y-122066260D01*
X143725000Y-121773740D01*
X143667932Y-121486842D01*
X143555990Y-121216589D01*
X143393475Y-120973368D01*
X143186632Y-120766525D01*
X142943411Y-120604010D01*
X142673158Y-120492068D01*
X142386260Y-120435000D01*
X142093740Y-120435000D01*
X141806842Y-120492068D01*
X141536589Y-120604010D01*
X141293368Y-120766525D01*
X141161513Y-120898380D01*
X141139502Y-120825820D01*
X141080537Y-120715506D01*
X141001185Y-120618815D01*
X140904494Y-120539463D01*
X140794180Y-120480498D01*
X140674482Y-120444188D01*
X140550000Y-120431928D01*
X138850000Y-120431928D01*
X138725518Y-120444188D01*
X138605820Y-120480498D01*
X138495506Y-120539463D01*
X138398815Y-120618815D01*
X138319463Y-120715506D01*
X138260498Y-120825820D01*
X138224188Y-120945518D01*
X138211928Y-121070000D01*
X132207000Y-121070000D01*
X132207000Y-120040000D01*
X156820001Y-120040000D01*
X156820000Y-169520000D01*
X132043334Y-169520000D01*
X132043334Y-167107500D01*
X125956667Y-167107500D01*
X125956667Y-169520000D01*
X114276789Y-169520000D01*
X116817109Y-166979681D01*
X116962506Y-166919455D01*
X117132024Y-166806187D01*
X117276187Y-166662024D01*
X117389455Y-166492506D01*
X117467476Y-166304148D01*
X117507250Y-166104189D01*
X117507250Y-165900311D01*
X117467476Y-165700352D01*
X117389455Y-165511994D01*
X117276187Y-165342476D01*
X117132024Y-165198313D01*
X116962506Y-165085045D01*
X116774148Y-165007024D01*
X116574189Y-164967250D01*
X116370311Y-164967250D01*
X116170352Y-165007024D01*
X115981994Y-165085045D01*
X115812476Y-165198313D01*
X115668313Y-165342476D01*
X115555045Y-165511994D01*
X115494819Y-165657391D01*
X113177211Y-167975000D01*
X90557290Y-167975000D01*
X88565000Y-165982711D01*
X88565000Y-164410000D01*
X94501928Y-164410000D01*
X94501928Y-166910000D01*
X94514188Y-167034482D01*
X94550498Y-167154180D01*
X94609463Y-167264494D01*
X94688815Y-167361185D01*
X94785506Y-167440537D01*
X94895820Y-167499502D01*
X95015518Y-167535812D01*
X95140000Y-167548072D01*
X98140000Y-167548072D01*
X98264482Y-167535812D01*
X98384180Y-167499502D01*
X98494494Y-167440537D01*
X98591185Y-167361185D01*
X98670537Y-167264494D01*
X98729502Y-167154180D01*
X98765812Y-167034482D01*
X98778072Y-166910000D01*
X98778072Y-164410000D01*
X98770193Y-164330000D01*
X145061928Y-164330000D01*
X145061928Y-166830000D01*
X145074188Y-166954482D01*
X145110498Y-167074180D01*
X145169463Y-167184494D01*
X145248815Y-167281185D01*
X145345506Y-167360537D01*
X145455820Y-167419502D01*
X145575518Y-167455812D01*
X145700000Y-167468072D01*
X148700000Y-167468072D01*
X148824482Y-167455812D01*
X148944180Y-167419502D01*
X149054494Y-167360537D01*
X149151185Y-167281185D01*
X149230537Y-167184494D01*
X149289502Y-167074180D01*
X149325812Y-166954482D01*
X149338072Y-166830000D01*
X149338072Y-164330000D01*
X149325812Y-164205518D01*
X149289502Y-164085820D01*
X149230537Y-163975506D01*
X149151185Y-163878815D01*
X149054494Y-163799463D01*
X148944180Y-163740498D01*
X148824482Y-163704188D01*
X148700000Y-163691928D01*
X145700000Y-163691928D01*
X145575518Y-163704188D01*
X145455820Y-163740498D01*
X145345506Y-163799463D01*
X145248815Y-163878815D01*
X145169463Y-163975506D01*
X145110498Y-164085820D01*
X145074188Y-164205518D01*
X145061928Y-164330000D01*
X98770193Y-164330000D01*
X98765812Y-164285518D01*
X98729502Y-164165820D01*
X98670537Y-164055506D01*
X98591185Y-163958815D01*
X98494494Y-163879463D01*
X98384180Y-163820498D01*
X98264482Y-163784188D01*
X98140000Y-163771928D01*
X95140000Y-163771928D01*
X95015518Y-163784188D01*
X94895820Y-163820498D01*
X94785506Y-163879463D01*
X94688815Y-163958815D01*
X94609463Y-164055506D01*
X94550498Y-164165820D01*
X94514188Y-164285518D01*
X94501928Y-164410000D01*
X88565000Y-164410000D01*
X88565000Y-163797239D01*
X88597748Y-163829987D01*
X88865537Y-164008918D01*
X89163088Y-164132168D01*
X89478967Y-164195000D01*
X89801033Y-164195000D01*
X90116912Y-164132168D01*
X90414463Y-164008918D01*
X90682252Y-163829987D01*
X90909987Y-163602252D01*
X91088918Y-163334463D01*
X91212168Y-163036912D01*
X91275000Y-162721033D01*
X91275000Y-162398967D01*
X91212168Y-162083088D01*
X91088918Y-161785537D01*
X90909987Y-161517748D01*
X90682252Y-161290013D01*
X90414463Y-161111082D01*
X90116912Y-160987832D01*
X89801033Y-160925000D01*
X89478967Y-160925000D01*
X89163088Y-160987832D01*
X88865537Y-161111082D01*
X88597748Y-161290013D01*
X88565000Y-161322761D01*
X88565000Y-160122595D01*
X102498282Y-160122595D01*
X102542039Y-160441675D01*
X102647205Y-160746088D01*
X102740186Y-160920044D01*
X102889223Y-160974024D01*
X102785506Y-161029463D01*
X102688815Y-161108815D01*
X102609463Y-161205506D01*
X102550498Y-161315820D01*
X102514188Y-161435518D01*
X102501928Y-161560000D01*
X102501928Y-163560000D01*
X102514188Y-163684482D01*
X102550498Y-163804180D01*
X102609463Y-163914494D01*
X102688815Y-164011185D01*
X102785506Y-164090537D01*
X102895820Y-164149502D01*
X103015518Y-164185812D01*
X103140000Y-164198072D01*
X105140000Y-164198072D01*
X105264482Y-164185812D01*
X105384180Y-164149502D01*
X105494494Y-164090537D01*
X105591185Y-164011185D01*
X105670537Y-163914494D01*
X105729502Y-163804180D01*
X105765812Y-163684482D01*
X105778072Y-163560000D01*
X105778072Y-162318967D01*
X138065000Y-162318967D01*
X138065000Y-162641033D01*
X138127832Y-162956912D01*
X138251082Y-163254463D01*
X138430013Y-163522252D01*
X138657748Y-163749987D01*
X138925537Y-163928918D01*
X139223088Y-164052168D01*
X139538967Y-164115000D01*
X139861033Y-164115000D01*
X140176912Y-164052168D01*
X140474463Y-163928918D01*
X140742252Y-163749987D01*
X140876826Y-163615413D01*
X153244192Y-163615413D01*
X153339956Y-163879814D01*
X153629571Y-164020704D01*
X153941108Y-164102384D01*
X154262595Y-164121718D01*
X154581675Y-164077961D01*
X154886088Y-163972795D01*
X155060044Y-163879814D01*
X155155808Y-163615413D01*
X154200000Y-162659605D01*
X153244192Y-163615413D01*
X140876826Y-163615413D01*
X140969987Y-163522252D01*
X141148918Y-163254463D01*
X141272168Y-162956912D01*
X141335000Y-162641033D01*
X141335000Y-162542595D01*
X152558282Y-162542595D01*
X152602039Y-162861675D01*
X152707205Y-163166088D01*
X152800186Y-163340044D01*
X153064587Y-163435808D01*
X154020395Y-162480000D01*
X154379605Y-162480000D01*
X155335413Y-163435808D01*
X155599814Y-163340044D01*
X155740704Y-163050429D01*
X155822384Y-162738892D01*
X155841718Y-162417405D01*
X155797961Y-162098325D01*
X155692795Y-161793912D01*
X155599814Y-161619956D01*
X155335413Y-161524192D01*
X154379605Y-162480000D01*
X154020395Y-162480000D01*
X153064587Y-161524192D01*
X152800186Y-161619956D01*
X152659296Y-161909571D01*
X152577616Y-162221108D01*
X152558282Y-162542595D01*
X141335000Y-162542595D01*
X141335000Y-162318967D01*
X141272168Y-162003088D01*
X141148918Y-161705537D01*
X140969987Y-161437748D01*
X140876826Y-161344587D01*
X153244192Y-161344587D01*
X154200000Y-162300395D01*
X155155808Y-161344587D01*
X155060044Y-161080186D01*
X154770429Y-160939296D01*
X154458892Y-160857616D01*
X154137405Y-160838282D01*
X153818325Y-160882039D01*
X153513912Y-160987205D01*
X153339956Y-161080186D01*
X153244192Y-161344587D01*
X140876826Y-161344587D01*
X140742252Y-161210013D01*
X140645065Y-161145075D01*
X140655808Y-161115413D01*
X139700000Y-160159605D01*
X138744192Y-161115413D01*
X138754935Y-161145075D01*
X138657748Y-161210013D01*
X138430013Y-161437748D01*
X138251082Y-161705537D01*
X138127832Y-162003088D01*
X138065000Y-162318967D01*
X105778072Y-162318967D01*
X105778072Y-161560000D01*
X105765812Y-161435518D01*
X105729502Y-161315820D01*
X105670537Y-161205506D01*
X105591185Y-161108815D01*
X105494494Y-161029463D01*
X105390777Y-160974024D01*
X105539814Y-160920044D01*
X105680704Y-160630429D01*
X105762384Y-160318892D01*
X105779000Y-160042595D01*
X138058282Y-160042595D01*
X138102039Y-160361675D01*
X138207205Y-160666088D01*
X138300186Y-160840044D01*
X138564587Y-160935808D01*
X139520395Y-159980000D01*
X139506253Y-159965858D01*
X139685858Y-159786253D01*
X139700000Y-159800395D01*
X139714143Y-159786253D01*
X139893748Y-159965858D01*
X139879605Y-159980000D01*
X140835413Y-160935808D01*
X141099814Y-160840044D01*
X141240704Y-160550429D01*
X141322384Y-160238892D01*
X141341718Y-159917405D01*
X141297961Y-159598325D01*
X141192795Y-159293912D01*
X141099814Y-159119956D01*
X140950777Y-159065976D01*
X141054494Y-159010537D01*
X141151185Y-158931185D01*
X141230537Y-158834494D01*
X141289502Y-158724180D01*
X141325812Y-158604482D01*
X141338072Y-158480000D01*
X141338072Y-157318967D01*
X152565000Y-157318967D01*
X152565000Y-157641033D01*
X152627832Y-157956912D01*
X152751082Y-158254463D01*
X152930013Y-158522252D01*
X153157748Y-158749987D01*
X153425537Y-158928918D01*
X153723088Y-159052168D01*
X154038967Y-159115000D01*
X154361033Y-159115000D01*
X154676912Y-159052168D01*
X154974463Y-158928918D01*
X155242252Y-158749987D01*
X155469987Y-158522252D01*
X155648918Y-158254463D01*
X155772168Y-157956912D01*
X155835000Y-157641033D01*
X155835000Y-157318967D01*
X155772168Y-157003088D01*
X155648918Y-156705537D01*
X155469987Y-156437748D01*
X155242252Y-156210013D01*
X154974463Y-156031082D01*
X154676912Y-155907832D01*
X154361033Y-155845000D01*
X154038967Y-155845000D01*
X153723088Y-155907832D01*
X153425537Y-156031082D01*
X153157748Y-156210013D01*
X152930013Y-156437748D01*
X152751082Y-156705537D01*
X152627832Y-157003088D01*
X152565000Y-157318967D01*
X141338072Y-157318967D01*
X141338072Y-156480000D01*
X141325812Y-156355518D01*
X141289502Y-156235820D01*
X141230537Y-156125506D01*
X141151185Y-156028815D01*
X141054494Y-155949463D01*
X140944180Y-155890498D01*
X140824482Y-155854188D01*
X140700000Y-155841928D01*
X138700000Y-155841928D01*
X138575518Y-155854188D01*
X138455820Y-155890498D01*
X138345506Y-155949463D01*
X138248815Y-156028815D01*
X138169463Y-156125506D01*
X138110498Y-156235820D01*
X138074188Y-156355518D01*
X138061928Y-156480000D01*
X138061928Y-158480000D01*
X138074188Y-158604482D01*
X138110498Y-158724180D01*
X138169463Y-158834494D01*
X138248815Y-158931185D01*
X138345506Y-159010537D01*
X138449223Y-159065976D01*
X138300186Y-159119956D01*
X138159296Y-159409571D01*
X138077616Y-159721108D01*
X138058282Y-160042595D01*
X105779000Y-160042595D01*
X105781718Y-159997405D01*
X105737961Y-159678325D01*
X105632795Y-159373912D01*
X105539814Y-159199956D01*
X105275413Y-159104192D01*
X104319605Y-160060000D01*
X104333748Y-160074143D01*
X104154143Y-160253748D01*
X104140000Y-160239605D01*
X104125858Y-160253748D01*
X103946253Y-160074143D01*
X103960395Y-160060000D01*
X103004587Y-159104192D01*
X102740186Y-159199956D01*
X102599296Y-159489571D01*
X102517616Y-159801108D01*
X102498282Y-160122595D01*
X88565000Y-160122595D01*
X88565000Y-158807558D01*
X88568525Y-158811083D01*
X88684193Y-158695415D01*
X88779956Y-158959814D01*
X89069571Y-159100704D01*
X89381108Y-159182384D01*
X89702595Y-159201718D01*
X90021675Y-159157961D01*
X90326088Y-159052795D01*
X90500044Y-158959814D01*
X90595808Y-158695413D01*
X89640000Y-157739605D01*
X89625858Y-157753748D01*
X89446253Y-157574143D01*
X89460395Y-157560000D01*
X89819605Y-157560000D01*
X90775413Y-158515808D01*
X91039814Y-158420044D01*
X91180704Y-158130429D01*
X91262384Y-157818892D01*
X91281718Y-157497405D01*
X91268219Y-157398967D01*
X102505000Y-157398967D01*
X102505000Y-157721033D01*
X102567832Y-158036912D01*
X102691082Y-158334463D01*
X102870013Y-158602252D01*
X103097748Y-158829987D01*
X103194935Y-158894925D01*
X103184192Y-158924587D01*
X104140000Y-159880395D01*
X105095808Y-158924587D01*
X105085065Y-158894925D01*
X105182252Y-158829987D01*
X105409987Y-158602252D01*
X105588918Y-158334463D01*
X105712168Y-158036912D01*
X105775000Y-157721033D01*
X105775000Y-157398967D01*
X105719324Y-157119061D01*
X108942000Y-157119061D01*
X108942000Y-157322939D01*
X108981774Y-157522898D01*
X109059795Y-157711256D01*
X109173063Y-157880774D01*
X109317226Y-158024937D01*
X109486744Y-158138205D01*
X109675102Y-158216226D01*
X109875061Y-158256000D01*
X110078939Y-158256000D01*
X110278898Y-158216226D01*
X110424295Y-158156000D01*
X114005068Y-158156000D01*
X114051000Y-158160524D01*
X114096932Y-158156000D01*
X114234292Y-158142471D01*
X114410540Y-158089007D01*
X114572972Y-158002186D01*
X114715344Y-157885344D01*
X114744630Y-157849659D01*
X116867228Y-155727061D01*
X117329000Y-155727061D01*
X117329000Y-155930939D01*
X117368774Y-156130898D01*
X117446795Y-156319256D01*
X117560063Y-156488774D01*
X117704226Y-156632937D01*
X117873744Y-156746205D01*
X118062102Y-156824226D01*
X118262061Y-156864000D01*
X118359554Y-156864000D01*
X118980000Y-157484447D01*
X118980000Y-157581939D01*
X119019774Y-157781898D01*
X119097795Y-157970256D01*
X119211063Y-158139774D01*
X119355226Y-158283937D01*
X119524744Y-158397205D01*
X119713102Y-158475226D01*
X119913061Y-158515000D01*
X120116939Y-158515000D01*
X120316898Y-158475226D01*
X120505256Y-158397205D01*
X120674774Y-158283937D01*
X120818937Y-158139774D01*
X120932205Y-157970256D01*
X121010226Y-157781898D01*
X121050000Y-157581939D01*
X121050000Y-157378061D01*
X121010226Y-157178102D01*
X120932205Y-156989744D01*
X120818937Y-156820226D01*
X120674774Y-156676063D01*
X120505256Y-156562795D01*
X120316898Y-156484774D01*
X120116939Y-156445000D01*
X120019447Y-156445000D01*
X119399000Y-155824554D01*
X119399000Y-155727061D01*
X119359226Y-155527102D01*
X119281205Y-155338744D01*
X119167937Y-155169226D01*
X119023774Y-155025063D01*
X118854256Y-154911795D01*
X118665898Y-154833774D01*
X118465939Y-154794000D01*
X118262061Y-154794000D01*
X118062102Y-154833774D01*
X117873744Y-154911795D01*
X117704226Y-155025063D01*
X117560063Y-155169226D01*
X117446795Y-155338744D01*
X117368774Y-155527102D01*
X117329000Y-155727061D01*
X116867228Y-155727061D01*
X120516659Y-152077630D01*
X120552344Y-152048344D01*
X120669186Y-151905972D01*
X120725765Y-151800120D01*
X120756007Y-151743541D01*
X120809472Y-151567292D01*
X120827524Y-151384000D01*
X120823000Y-151338065D01*
X120823000Y-149545295D01*
X120883226Y-149399898D01*
X120923000Y-149199939D01*
X120923000Y-148996061D01*
X120883226Y-148796102D01*
X120823000Y-148650705D01*
X120823000Y-148509000D01*
X123767915Y-148509000D01*
X132855171Y-157596257D01*
X132915397Y-157741654D01*
X133028665Y-157911172D01*
X133172828Y-158055335D01*
X133342346Y-158168603D01*
X133530704Y-158246624D01*
X133730663Y-158286398D01*
X133934541Y-158286398D01*
X134134500Y-158246624D01*
X134322858Y-158168603D01*
X134492376Y-158055335D01*
X134636539Y-157911172D01*
X134749807Y-157741654D01*
X134827828Y-157553296D01*
X134867602Y-157353337D01*
X134867602Y-157149459D01*
X134827828Y-156949500D01*
X134749807Y-156761142D01*
X134636539Y-156591624D01*
X134492376Y-156447461D01*
X134322858Y-156334193D01*
X134177461Y-156273967D01*
X131033494Y-153130000D01*
X145061928Y-153130000D01*
X145061928Y-155630000D01*
X145074188Y-155754482D01*
X145110498Y-155874180D01*
X145169463Y-155984494D01*
X145248815Y-156081185D01*
X145345506Y-156160537D01*
X145455820Y-156219502D01*
X145575518Y-156255812D01*
X145700000Y-156268072D01*
X148700000Y-156268072D01*
X148824482Y-156255812D01*
X148944180Y-156219502D01*
X149054494Y-156160537D01*
X149151185Y-156081185D01*
X149230537Y-155984494D01*
X149289502Y-155874180D01*
X149325812Y-155754482D01*
X149338072Y-155630000D01*
X149338072Y-153130000D01*
X149325812Y-153005518D01*
X149289502Y-152885820D01*
X149230537Y-152775506D01*
X149151185Y-152678815D01*
X149054494Y-152599463D01*
X148944180Y-152540498D01*
X148824482Y-152504188D01*
X148700000Y-152491928D01*
X145700000Y-152491928D01*
X145575518Y-152504188D01*
X145455820Y-152540498D01*
X145345506Y-152599463D01*
X145248815Y-152678815D01*
X145169463Y-152775506D01*
X145110498Y-152885820D01*
X145074188Y-153005518D01*
X145061928Y-153130000D01*
X131033494Y-153130000D01*
X127482611Y-149579117D01*
X145515000Y-149579117D01*
X145515000Y-149920883D01*
X145581675Y-150256081D01*
X145712463Y-150571831D01*
X145902337Y-150855998D01*
X146144002Y-151097663D01*
X146428169Y-151287537D01*
X146743919Y-151418325D01*
X147079117Y-151485000D01*
X147420883Y-151485000D01*
X147756081Y-151418325D01*
X148071831Y-151287537D01*
X148355998Y-151097663D01*
X148597663Y-150855998D01*
X148787537Y-150571831D01*
X148918325Y-150256081D01*
X148985000Y-149920883D01*
X148985000Y-149579117D01*
X148918325Y-149243919D01*
X148787537Y-148928169D01*
X148597663Y-148644002D01*
X148355998Y-148402337D01*
X148071831Y-148212463D01*
X147756081Y-148081675D01*
X147420883Y-148015000D01*
X147079117Y-148015000D01*
X146743919Y-148081675D01*
X146428169Y-148212463D01*
X146144002Y-148402337D01*
X145902337Y-148644002D01*
X145712463Y-148928169D01*
X145581675Y-149243919D01*
X145515000Y-149579117D01*
X127482611Y-149579117D01*
X124848834Y-146945341D01*
X124819548Y-146909656D01*
X124677176Y-146792814D01*
X124514744Y-146705993D01*
X124338496Y-146652529D01*
X124201136Y-146639000D01*
X124155204Y-146634476D01*
X124109272Y-146639000D01*
X120441924Y-146639000D01*
X120395999Y-146634477D01*
X120350074Y-146639000D01*
X120350068Y-146639000D01*
X120231110Y-146650717D01*
X120212707Y-146652529D01*
X120159243Y-146668747D01*
X120036460Y-146705993D01*
X119874028Y-146792814D01*
X119731656Y-146909656D01*
X119702370Y-146945341D01*
X119259336Y-147388375D01*
X119223657Y-147417656D01*
X119106815Y-147560028D01*
X119019994Y-147722460D01*
X118966529Y-147898709D01*
X118948476Y-148082000D01*
X118953001Y-148127941D01*
X118953000Y-148650704D01*
X118892774Y-148796102D01*
X118853000Y-148996061D01*
X118853000Y-149199939D01*
X118892774Y-149399898D01*
X118953000Y-149545296D01*
X118953001Y-150996710D01*
X113663711Y-156286000D01*
X110424295Y-156286000D01*
X110278898Y-156225774D01*
X110078939Y-156186000D01*
X109875061Y-156186000D01*
X109675102Y-156225774D01*
X109486744Y-156303795D01*
X109317226Y-156417063D01*
X109173063Y-156561226D01*
X109059795Y-156730744D01*
X108981774Y-156919102D01*
X108942000Y-157119061D01*
X105719324Y-157119061D01*
X105712168Y-157083088D01*
X105588918Y-156785537D01*
X105409987Y-156517748D01*
X105182252Y-156290013D01*
X104914463Y-156111082D01*
X104616912Y-155987832D01*
X104301033Y-155925000D01*
X103978967Y-155925000D01*
X103663088Y-155987832D01*
X103365537Y-156111082D01*
X103097748Y-156290013D01*
X102870013Y-156517748D01*
X102691082Y-156785537D01*
X102567832Y-157083088D01*
X102505000Y-157398967D01*
X91268219Y-157398967D01*
X91237961Y-157178325D01*
X91132795Y-156873912D01*
X91039814Y-156699956D01*
X90775413Y-156604192D01*
X89819605Y-157560000D01*
X89460395Y-157560000D01*
X89446253Y-157545858D01*
X89625858Y-157366253D01*
X89640000Y-157380395D01*
X90595808Y-156424587D01*
X90500044Y-156160186D01*
X90210429Y-156019296D01*
X89898892Y-155937616D01*
X89577405Y-155918282D01*
X89258325Y-155962039D01*
X88953912Y-156067205D01*
X88779956Y-156160186D01*
X88684193Y-156424585D01*
X88568525Y-156308917D01*
X88565000Y-156312442D01*
X88565000Y-153210000D01*
X94501928Y-153210000D01*
X94501928Y-155710000D01*
X94514188Y-155834482D01*
X94550498Y-155954180D01*
X94609463Y-156064494D01*
X94688815Y-156161185D01*
X94785506Y-156240537D01*
X94895820Y-156299502D01*
X95015518Y-156335812D01*
X95140000Y-156348072D01*
X98140000Y-156348072D01*
X98264482Y-156335812D01*
X98384180Y-156299502D01*
X98494494Y-156240537D01*
X98591185Y-156161185D01*
X98670537Y-156064494D01*
X98729502Y-155954180D01*
X98765812Y-155834482D01*
X98778072Y-155710000D01*
X98778072Y-153210000D01*
X98765812Y-153085518D01*
X98729502Y-152965820D01*
X98670537Y-152855506D01*
X98591185Y-152758815D01*
X98494494Y-152679463D01*
X98384180Y-152620498D01*
X98264482Y-152584188D01*
X98140000Y-152571928D01*
X95140000Y-152571928D01*
X95015518Y-152584188D01*
X94895820Y-152620498D01*
X94785506Y-152679463D01*
X94688815Y-152758815D01*
X94609463Y-152855506D01*
X94550498Y-152965820D01*
X94514188Y-153085518D01*
X94501928Y-153210000D01*
X88565000Y-153210000D01*
X88565000Y-151771289D01*
X90757172Y-149579117D01*
X93515000Y-149579117D01*
X93515000Y-149920883D01*
X93581675Y-150256081D01*
X93712463Y-150571831D01*
X93902337Y-150855998D01*
X94144002Y-151097663D01*
X94428169Y-151287537D01*
X94743919Y-151418325D01*
X95079117Y-151485000D01*
X95420883Y-151485000D01*
X95756081Y-151418325D01*
X96071831Y-151287537D01*
X96355998Y-151097663D01*
X96597663Y-150855998D01*
X96787537Y-150571831D01*
X96918325Y-150256081D01*
X96985000Y-149920883D01*
X96985000Y-149579117D01*
X96918325Y-149243919D01*
X96787537Y-148928169D01*
X96597663Y-148644002D01*
X96355998Y-148402337D01*
X96071831Y-148212463D01*
X95756081Y-148081675D01*
X95420883Y-148015000D01*
X95079117Y-148015000D01*
X94743919Y-148081675D01*
X94428169Y-148212463D01*
X94144002Y-148402337D01*
X93902337Y-148644002D01*
X93712463Y-148928169D01*
X93581675Y-149243919D01*
X93515000Y-149579117D01*
X90757172Y-149579117D01*
X97332728Y-143003561D01*
X106510500Y-143003561D01*
X106510500Y-143207439D01*
X106550274Y-143407398D01*
X106628295Y-143595756D01*
X106741563Y-143765274D01*
X106885726Y-143909437D01*
X107055244Y-144022705D01*
X107243602Y-144100726D01*
X107443561Y-144140500D01*
X107647439Y-144140500D01*
X107847398Y-144100726D01*
X107992795Y-144040500D01*
X110594568Y-144040500D01*
X110640500Y-144045024D01*
X110686432Y-144040500D01*
X110823792Y-144026971D01*
X111000040Y-143973507D01*
X111162472Y-143886686D01*
X111304844Y-143769844D01*
X111334130Y-143734159D01*
X114644859Y-140423431D01*
X114790256Y-140363205D01*
X114959774Y-140249937D01*
X115103937Y-140105774D01*
X115217205Y-139936256D01*
X115295226Y-139747898D01*
X115335000Y-139547939D01*
X115335000Y-139344061D01*
X115295226Y-139144102D01*
X115217205Y-138955744D01*
X115103937Y-138786226D01*
X114959774Y-138642063D01*
X114790256Y-138528795D01*
X114601898Y-138450774D01*
X114401939Y-138411000D01*
X114198061Y-138411000D01*
X113998102Y-138450774D01*
X113809744Y-138528795D01*
X113640226Y-138642063D01*
X113496063Y-138786226D01*
X113382795Y-138955744D01*
X113322569Y-139101141D01*
X110253211Y-142170500D01*
X107992795Y-142170500D01*
X107847398Y-142110274D01*
X107647439Y-142070500D01*
X107443561Y-142070500D01*
X107243602Y-142110274D01*
X107055244Y-142188295D01*
X106885726Y-142301563D01*
X106741563Y-142445726D01*
X106628295Y-142615244D01*
X106550274Y-142803602D01*
X106510500Y-143003561D01*
X97332728Y-143003561D01*
X103826359Y-136509931D01*
X103971756Y-136449705D01*
X104141274Y-136336437D01*
X104285437Y-136192274D01*
X104398705Y-136022756D01*
X104476726Y-135834398D01*
X104516500Y-135634439D01*
X104516500Y-135430561D01*
X104476726Y-135230602D01*
X104398705Y-135042244D01*
X104285437Y-134872726D01*
X104141274Y-134728563D01*
X103971756Y-134615295D01*
X103783398Y-134537274D01*
X103583439Y-134497500D01*
X103379561Y-134497500D01*
X103179602Y-134537274D01*
X102991244Y-134615295D01*
X102821726Y-134728563D01*
X102677563Y-134872726D01*
X102564295Y-135042244D01*
X102504069Y-135187641D01*
X87020000Y-150671711D01*
X87020000Y-138850000D01*
X89951928Y-138850000D01*
X89951928Y-140550000D01*
X89964188Y-140674482D01*
X90000498Y-140794180D01*
X90059463Y-140904494D01*
X90138815Y-141001185D01*
X90235506Y-141080537D01*
X90345820Y-141139502D01*
X90465518Y-141175812D01*
X90590000Y-141188072D01*
X92290000Y-141188072D01*
X92414482Y-141175812D01*
X92534180Y-141139502D01*
X92644494Y-141080537D01*
X92741185Y-141001185D01*
X92820537Y-140904494D01*
X92879502Y-140794180D01*
X92915812Y-140674482D01*
X92928072Y-140550000D01*
X92928072Y-138850000D01*
X92915812Y-138725518D01*
X92879502Y-138605820D01*
X92820537Y-138495506D01*
X92741185Y-138398815D01*
X92644494Y-138319463D01*
X92534180Y-138260498D01*
X92461620Y-138238487D01*
X92593475Y-138106632D01*
X92755990Y-137863411D01*
X92867932Y-137593158D01*
X92925000Y-137306260D01*
X92925000Y-137013740D01*
X92867932Y-136726842D01*
X92755990Y-136456589D01*
X92593475Y-136213368D01*
X92386632Y-136006525D01*
X92212240Y-135890000D01*
X92386632Y-135773475D01*
X92593475Y-135566632D01*
X92755990Y-135323411D01*
X92867932Y-135053158D01*
X92925000Y-134766260D01*
X92925000Y-134473740D01*
X92867932Y-134186842D01*
X92755990Y-133916589D01*
X92593475Y-133673368D01*
X92386632Y-133466525D01*
X92212240Y-133350000D01*
X92386632Y-133233475D01*
X92593475Y-133026632D01*
X92755990Y-132783411D01*
X92867932Y-132513158D01*
X92925000Y-132226260D01*
X92925000Y-131933740D01*
X92867932Y-131646842D01*
X92755990Y-131376589D01*
X92593475Y-131133368D01*
X92386632Y-130926525D01*
X92212240Y-130810000D01*
X92386632Y-130693475D01*
X92593475Y-130486632D01*
X92755990Y-130243411D01*
X92867932Y-129973158D01*
X92925000Y-129686260D01*
X92925000Y-129393740D01*
X92867932Y-129106842D01*
X92755990Y-128836589D01*
X92658043Y-128690000D01*
X97571928Y-128690000D01*
X97571928Y-130390000D01*
X97584188Y-130514482D01*
X97620498Y-130634180D01*
X97679463Y-130744494D01*
X97758815Y-130841185D01*
X97855506Y-130920537D01*
X97965820Y-130979502D01*
X98085518Y-131015812D01*
X98210000Y-131028072D01*
X99910000Y-131028072D01*
X100034482Y-131015812D01*
X100154180Y-130979502D01*
X100264494Y-130920537D01*
X100361185Y-130841185D01*
X100440537Y-130744494D01*
X100499502Y-130634180D01*
X100521513Y-130561620D01*
X100653368Y-130693475D01*
X100896589Y-130855990D01*
X101166842Y-130967932D01*
X101453740Y-131025000D01*
X101746260Y-131025000D01*
X102033158Y-130967932D01*
X102303411Y-130855990D01*
X102546632Y-130693475D01*
X102753475Y-130486632D01*
X102915990Y-130243411D01*
X103027932Y-129973158D01*
X103085000Y-129686260D01*
X103085000Y-129438061D01*
X104375000Y-129438061D01*
X104375000Y-129641939D01*
X104414774Y-129841898D01*
X104492795Y-130030256D01*
X104606063Y-130199774D01*
X104750226Y-130343937D01*
X104919744Y-130457205D01*
X105065142Y-130517431D01*
X110746376Y-136198666D01*
X110775657Y-136234345D01*
X110918029Y-136351187D01*
X111080461Y-136438008D01*
X111203244Y-136475254D01*
X111256708Y-136491472D01*
X111440000Y-136509525D01*
X111485932Y-136505001D01*
X123062704Y-136505001D01*
X123208101Y-136565227D01*
X123408060Y-136605001D01*
X123611938Y-136605001D01*
X123811897Y-136565227D01*
X124000255Y-136487206D01*
X124169773Y-136373938D01*
X124313936Y-136229775D01*
X124427204Y-136060257D01*
X124505225Y-135871899D01*
X124544999Y-135671940D01*
X124544999Y-135468062D01*
X124505225Y-135268103D01*
X124427204Y-135079745D01*
X124313936Y-134910227D01*
X124169773Y-134766064D01*
X124000255Y-134652796D01*
X123811897Y-134574775D01*
X123611938Y-134535001D01*
X123408060Y-134535001D01*
X123208101Y-134574775D01*
X123062704Y-134635001D01*
X111827291Y-134635001D01*
X106387431Y-129195142D01*
X106327205Y-129049744D01*
X106213937Y-128880226D01*
X106069774Y-128736063D01*
X105900256Y-128622795D01*
X105711898Y-128544774D01*
X105511939Y-128505000D01*
X105308061Y-128505000D01*
X105108102Y-128544774D01*
X104919744Y-128622795D01*
X104750226Y-128736063D01*
X104606063Y-128880226D01*
X104492795Y-129049744D01*
X104414774Y-129238102D01*
X104375000Y-129438061D01*
X103085000Y-129438061D01*
X103085000Y-129393740D01*
X103027932Y-129106842D01*
X102915990Y-128836589D01*
X102753475Y-128593368D01*
X102546632Y-128386525D01*
X102303411Y-128224010D01*
X102033158Y-128112068D01*
X101746260Y-128055000D01*
X101453740Y-128055000D01*
X101166842Y-128112068D01*
X100896589Y-128224010D01*
X100653368Y-128386525D01*
X100521513Y-128518380D01*
X100499502Y-128445820D01*
X100440537Y-128335506D01*
X100361185Y-128238815D01*
X100264494Y-128159463D01*
X100154180Y-128100498D01*
X100034482Y-128064188D01*
X99910000Y-128051928D01*
X98210000Y-128051928D01*
X98085518Y-128064188D01*
X97965820Y-128100498D01*
X97855506Y-128159463D01*
X97758815Y-128238815D01*
X97679463Y-128335506D01*
X97620498Y-128445820D01*
X97584188Y-128565518D01*
X97571928Y-128690000D01*
X92658043Y-128690000D01*
X92593475Y-128593368D01*
X92386632Y-128386525D01*
X92212240Y-128270000D01*
X92386632Y-128153475D01*
X92593475Y-127946632D01*
X92755990Y-127703411D01*
X92867932Y-127433158D01*
X92925000Y-127146260D01*
X92925000Y-126853740D01*
X92867932Y-126566842D01*
X92755990Y-126296589D01*
X92593475Y-126053368D01*
X92386632Y-125846525D01*
X92212240Y-125730000D01*
X92386632Y-125613475D01*
X92593475Y-125406632D01*
X92755990Y-125163411D01*
X92867932Y-124893158D01*
X92925000Y-124606260D01*
X92925000Y-124313740D01*
X92867932Y-124026842D01*
X92755990Y-123756589D01*
X92593475Y-123513368D01*
X92386632Y-123306525D01*
X92212240Y-123190000D01*
X92386632Y-123073475D01*
X92593475Y-122866632D01*
X92755990Y-122623411D01*
X92774337Y-122579117D01*
X93515000Y-122579117D01*
X93515000Y-122920883D01*
X93581675Y-123256081D01*
X93712463Y-123571831D01*
X93902337Y-123855998D01*
X94144002Y-124097663D01*
X94428169Y-124287537D01*
X94743919Y-124418325D01*
X95079117Y-124485000D01*
X95420883Y-124485000D01*
X95756081Y-124418325D01*
X96071831Y-124287537D01*
X96355998Y-124097663D01*
X96597663Y-123855998D01*
X96787537Y-123571831D01*
X96918325Y-123256081D01*
X96985000Y-122920883D01*
X96985000Y-122579117D01*
X96918325Y-122243919D01*
X96787537Y-121928169D01*
X96597663Y-121644002D01*
X96355998Y-121402337D01*
X96071831Y-121212463D01*
X95756081Y-121081675D01*
X95697387Y-121070000D01*
X97571928Y-121070000D01*
X97571928Y-122770000D01*
X97584188Y-122894482D01*
X97620498Y-123014180D01*
X97679463Y-123124494D01*
X97758815Y-123221185D01*
X97855506Y-123300537D01*
X97965820Y-123359502D01*
X98038380Y-123381513D01*
X97906525Y-123513368D01*
X97744010Y-123756589D01*
X97632068Y-124026842D01*
X97575000Y-124313740D01*
X97575000Y-124606260D01*
X97632068Y-124893158D01*
X97744010Y-125163411D01*
X97906525Y-125406632D01*
X98113368Y-125613475D01*
X98356589Y-125775990D01*
X98626842Y-125887932D01*
X98913740Y-125945000D01*
X99206260Y-125945000D01*
X99493158Y-125887932D01*
X99763411Y-125775990D01*
X100006632Y-125613475D01*
X100213475Y-125406632D01*
X100330000Y-125232240D01*
X100446525Y-125406632D01*
X100653368Y-125613475D01*
X100896589Y-125775990D01*
X101166842Y-125887932D01*
X101453740Y-125945000D01*
X101746260Y-125945000D01*
X102033158Y-125887932D01*
X102303411Y-125775990D01*
X102546632Y-125613475D01*
X102753475Y-125406632D01*
X102915990Y-125163411D01*
X103027932Y-124893158D01*
X103043102Y-124816890D01*
X105238524Y-124816890D01*
X105283175Y-124964099D01*
X105408359Y-125226920D01*
X105582412Y-125460269D01*
X105798645Y-125655178D01*
X106048748Y-125804157D01*
X106323109Y-125901481D01*
X106553000Y-125780814D01*
X106553000Y-124587000D01*
X106807000Y-124587000D01*
X106807000Y-125780814D01*
X107036891Y-125901481D01*
X107311252Y-125804157D01*
X107561355Y-125655178D01*
X107777588Y-125460269D01*
X107950000Y-125229120D01*
X108122412Y-125460269D01*
X108338645Y-125655178D01*
X108588748Y-125804157D01*
X108863109Y-125901481D01*
X109093000Y-125780814D01*
X109093000Y-124587000D01*
X109347000Y-124587000D01*
X109347000Y-125780814D01*
X109576891Y-125901481D01*
X109851252Y-125804157D01*
X110101355Y-125655178D01*
X110317588Y-125460269D01*
X110491641Y-125226920D01*
X110616825Y-124964099D01*
X110661476Y-124816890D01*
X110540155Y-124587000D01*
X109347000Y-124587000D01*
X109093000Y-124587000D01*
X106807000Y-124587000D01*
X106553000Y-124587000D01*
X105359845Y-124587000D01*
X105238524Y-124816890D01*
X103043102Y-124816890D01*
X103085000Y-124606260D01*
X103085000Y-124313740D01*
X103027932Y-124026842D01*
X102915990Y-123756589D01*
X102753475Y-123513368D01*
X102546632Y-123306525D01*
X102372240Y-123190000D01*
X102546632Y-123073475D01*
X102753475Y-122866632D01*
X102818042Y-122770000D01*
X105191928Y-122770000D01*
X105204188Y-122894482D01*
X105240498Y-123014180D01*
X105299463Y-123124494D01*
X105378815Y-123221185D01*
X105475506Y-123300537D01*
X105585820Y-123359502D01*
X105666466Y-123383966D01*
X105582412Y-123459731D01*
X105408359Y-123693080D01*
X105283175Y-123955901D01*
X105238524Y-124103110D01*
X105359845Y-124333000D01*
X106553000Y-124333000D01*
X106553000Y-122047000D01*
X106807000Y-122047000D01*
X106807000Y-124333000D01*
X109093000Y-124333000D01*
X109093000Y-122047000D01*
X109347000Y-122047000D01*
X109347000Y-124333000D01*
X110540155Y-124333000D01*
X110661476Y-124103110D01*
X110616825Y-123955901D01*
X110491641Y-123693080D01*
X110317588Y-123459731D01*
X110101355Y-123264822D01*
X109975745Y-123190000D01*
X110101355Y-123115178D01*
X110317588Y-122920269D01*
X110491641Y-122686920D01*
X110616825Y-122424099D01*
X110661476Y-122276890D01*
X110540155Y-122047000D01*
X109347000Y-122047000D01*
X109093000Y-122047000D01*
X106807000Y-122047000D01*
X106553000Y-122047000D01*
X105353750Y-122047000D01*
X105195000Y-122205750D01*
X105191928Y-122770000D01*
X102818042Y-122770000D01*
X102915990Y-122623411D01*
X103027932Y-122353158D01*
X103085000Y-122066260D01*
X103085000Y-121773740D01*
X103027932Y-121486842D01*
X102915990Y-121216589D01*
X102818043Y-121070000D01*
X105191928Y-121070000D01*
X105195000Y-121634250D01*
X105353750Y-121793000D01*
X106553000Y-121793000D01*
X106553000Y-120593750D01*
X106807000Y-120593750D01*
X106807000Y-121793000D01*
X109093000Y-121793000D01*
X109093000Y-120599186D01*
X109347000Y-120599186D01*
X109347000Y-121793000D01*
X110540155Y-121793000D01*
X110661476Y-121563110D01*
X110616825Y-121415901D01*
X110491641Y-121153080D01*
X110317588Y-120919731D01*
X110101355Y-120724822D01*
X109851252Y-120575843D01*
X109576891Y-120478519D01*
X109347000Y-120599186D01*
X109093000Y-120599186D01*
X108863109Y-120478519D01*
X108588748Y-120575843D01*
X108338645Y-120724822D01*
X108142498Y-120901626D01*
X108119502Y-120825820D01*
X108060537Y-120715506D01*
X107981185Y-120618815D01*
X107884494Y-120539463D01*
X107774180Y-120480498D01*
X107654482Y-120444188D01*
X107530000Y-120431928D01*
X106965750Y-120435000D01*
X106807000Y-120593750D01*
X106553000Y-120593750D01*
X106394250Y-120435000D01*
X105830000Y-120431928D01*
X105705518Y-120444188D01*
X105585820Y-120480498D01*
X105475506Y-120539463D01*
X105378815Y-120618815D01*
X105299463Y-120715506D01*
X105240498Y-120825820D01*
X105204188Y-120945518D01*
X105191928Y-121070000D01*
X102818043Y-121070000D01*
X102753475Y-120973368D01*
X102546632Y-120766525D01*
X102303411Y-120604010D01*
X102033158Y-120492068D01*
X101746260Y-120435000D01*
X101453740Y-120435000D01*
X101166842Y-120492068D01*
X100896589Y-120604010D01*
X100653368Y-120766525D01*
X100521513Y-120898380D01*
X100499502Y-120825820D01*
X100440537Y-120715506D01*
X100361185Y-120618815D01*
X100264494Y-120539463D01*
X100154180Y-120480498D01*
X100034482Y-120444188D01*
X99910000Y-120431928D01*
X98210000Y-120431928D01*
X98085518Y-120444188D01*
X97965820Y-120480498D01*
X97855506Y-120539463D01*
X97758815Y-120618815D01*
X97679463Y-120715506D01*
X97620498Y-120825820D01*
X97584188Y-120945518D01*
X97571928Y-121070000D01*
X95697387Y-121070000D01*
X95420883Y-121015000D01*
X95079117Y-121015000D01*
X94743919Y-121081675D01*
X94428169Y-121212463D01*
X94144002Y-121402337D01*
X93902337Y-121644002D01*
X93712463Y-121928169D01*
X93581675Y-122243919D01*
X93515000Y-122579117D01*
X92774337Y-122579117D01*
X92867932Y-122353158D01*
X92925000Y-122066260D01*
X92925000Y-121773740D01*
X92867932Y-121486842D01*
X92755990Y-121216589D01*
X92593475Y-120973368D01*
X92386632Y-120766525D01*
X92143411Y-120604010D01*
X91873158Y-120492068D01*
X91586260Y-120435000D01*
X91293740Y-120435000D01*
X91006842Y-120492068D01*
X90736589Y-120604010D01*
X90493368Y-120766525D01*
X90286525Y-120973368D01*
X90124010Y-121216589D01*
X90012068Y-121486842D01*
X89955000Y-121773740D01*
X89955000Y-122066260D01*
X90012068Y-122353158D01*
X90124010Y-122623411D01*
X90286525Y-122866632D01*
X90493368Y-123073475D01*
X90667760Y-123190000D01*
X90493368Y-123306525D01*
X90286525Y-123513368D01*
X90124010Y-123756589D01*
X90012068Y-124026842D01*
X89955000Y-124313740D01*
X89955000Y-124606260D01*
X90012068Y-124893158D01*
X90124010Y-125163411D01*
X90286525Y-125406632D01*
X90493368Y-125613475D01*
X90667760Y-125730000D01*
X90493368Y-125846525D01*
X90286525Y-126053368D01*
X90124010Y-126296589D01*
X90012068Y-126566842D01*
X89955000Y-126853740D01*
X89955000Y-127146260D01*
X90012068Y-127433158D01*
X90124010Y-127703411D01*
X90286525Y-127946632D01*
X90493368Y-128153475D01*
X90667760Y-128270000D01*
X90493368Y-128386525D01*
X90286525Y-128593368D01*
X90124010Y-128836589D01*
X90012068Y-129106842D01*
X89955000Y-129393740D01*
X89955000Y-129686260D01*
X90012068Y-129973158D01*
X90124010Y-130243411D01*
X90286525Y-130486632D01*
X90493368Y-130693475D01*
X90667760Y-130810000D01*
X90493368Y-130926525D01*
X90286525Y-131133368D01*
X90124010Y-131376589D01*
X90012068Y-131646842D01*
X89955000Y-131933740D01*
X89955000Y-132226260D01*
X90012068Y-132513158D01*
X90124010Y-132783411D01*
X90286525Y-133026632D01*
X90493368Y-133233475D01*
X90667760Y-133350000D01*
X90493368Y-133466525D01*
X90286525Y-133673368D01*
X90124010Y-133916589D01*
X90012068Y-134186842D01*
X89955000Y-134473740D01*
X89955000Y-134766260D01*
X90012068Y-135053158D01*
X90124010Y-135323411D01*
X90286525Y-135566632D01*
X90493368Y-135773475D01*
X90667760Y-135890000D01*
X90493368Y-136006525D01*
X90286525Y-136213368D01*
X90124010Y-136456589D01*
X90012068Y-136726842D01*
X89955000Y-137013740D01*
X89955000Y-137306260D01*
X90012068Y-137593158D01*
X90124010Y-137863411D01*
X90286525Y-138106632D01*
X90418380Y-138238487D01*
X90345820Y-138260498D01*
X90235506Y-138319463D01*
X90138815Y-138398815D01*
X90059463Y-138495506D01*
X90000498Y-138605820D01*
X89964188Y-138725518D01*
X89951928Y-138850000D01*
X87020000Y-138850000D01*
X87020000Y-120040000D01*
X111633000Y-120040000D01*
X111633000Y-132080000D01*
%TA.AperFunction,Conductor*%
D23*
G36*
X111633000Y-132080000D02*
G01*
X111635440Y-132104776D01*
X111642667Y-132128601D01*
X111654403Y-132150557D01*
X111670197Y-132169803D01*
X111689443Y-132185597D01*
X111711399Y-132197333D01*
X111735224Y-132204560D01*
X111760000Y-132207000D01*
X132080000Y-132207000D01*
X132104776Y-132204560D01*
X132128601Y-132197333D01*
X132150557Y-132185597D01*
X132169803Y-132169803D01*
X132185597Y-132150557D01*
X132197333Y-132128601D01*
X132204560Y-132104776D01*
X132207000Y-132080000D01*
X132207000Y-129393740D01*
X138215000Y-129393740D01*
X138215000Y-129686260D01*
X138272068Y-129973158D01*
X138384010Y-130243411D01*
X138546525Y-130486632D01*
X138753368Y-130693475D01*
X138996589Y-130855990D01*
X139266842Y-130967932D01*
X139553740Y-131025000D01*
X139846260Y-131025000D01*
X140133158Y-130967932D01*
X140403411Y-130855990D01*
X140646632Y-130693475D01*
X140778487Y-130561620D01*
X140800498Y-130634180D01*
X140859463Y-130744494D01*
X140938815Y-130841185D01*
X141035506Y-130920537D01*
X141145820Y-130979502D01*
X141265518Y-131015812D01*
X141390000Y-131028072D01*
X143090000Y-131028072D01*
X143214482Y-131015812D01*
X143334180Y-130979502D01*
X143444494Y-130920537D01*
X143541185Y-130841185D01*
X143620537Y-130744494D01*
X143679502Y-130634180D01*
X143715812Y-130514482D01*
X143728072Y-130390000D01*
X143728072Y-128690000D01*
X143715812Y-128565518D01*
X143679502Y-128445820D01*
X143620537Y-128335506D01*
X143541185Y-128238815D01*
X143444494Y-128159463D01*
X143334180Y-128100498D01*
X143214482Y-128064188D01*
X143090000Y-128051928D01*
X141390000Y-128051928D01*
X141265518Y-128064188D01*
X141145820Y-128100498D01*
X141035506Y-128159463D01*
X140938815Y-128238815D01*
X140859463Y-128335506D01*
X140800498Y-128445820D01*
X140778487Y-128518380D01*
X140646632Y-128386525D01*
X140403411Y-128224010D01*
X140133158Y-128112068D01*
X139846260Y-128055000D01*
X139553740Y-128055000D01*
X139266842Y-128112068D01*
X138996589Y-128224010D01*
X138753368Y-128386525D01*
X138546525Y-128593368D01*
X138384010Y-128836589D01*
X138272068Y-129106842D01*
X138215000Y-129393740D01*
X132207000Y-129393740D01*
X132207000Y-121070000D01*
X138211928Y-121070000D01*
X138211928Y-122770000D01*
X138224188Y-122894482D01*
X138260498Y-123014180D01*
X138319463Y-123124494D01*
X138398815Y-123221185D01*
X138495506Y-123300537D01*
X138605820Y-123359502D01*
X138678380Y-123381513D01*
X138546525Y-123513368D01*
X138384010Y-123756589D01*
X138272068Y-124026842D01*
X138215000Y-124313740D01*
X138215000Y-124606260D01*
X138272068Y-124893158D01*
X138384010Y-125163411D01*
X138546525Y-125406632D01*
X138753368Y-125613475D01*
X138996589Y-125775990D01*
X139266842Y-125887932D01*
X139553740Y-125945000D01*
X139846260Y-125945000D01*
X140133158Y-125887932D01*
X140403411Y-125775990D01*
X140646632Y-125613475D01*
X140853475Y-125406632D01*
X140970000Y-125232240D01*
X141086525Y-125406632D01*
X141293368Y-125613475D01*
X141536589Y-125775990D01*
X141806842Y-125887932D01*
X142093740Y-125945000D01*
X142386260Y-125945000D01*
X142673158Y-125887932D01*
X142943411Y-125775990D01*
X143186632Y-125613475D01*
X143393475Y-125406632D01*
X143555990Y-125163411D01*
X143667932Y-124893158D01*
X143725000Y-124606260D01*
X143725000Y-124313740D01*
X143667932Y-124026842D01*
X143555990Y-123756589D01*
X143393475Y-123513368D01*
X143186632Y-123306525D01*
X143012240Y-123190000D01*
X143186632Y-123073475D01*
X143393475Y-122866632D01*
X143555990Y-122623411D01*
X143574337Y-122579117D01*
X145515000Y-122579117D01*
X145515000Y-122920883D01*
X145581675Y-123256081D01*
X145712463Y-123571831D01*
X145902337Y-123855998D01*
X146144002Y-124097663D01*
X146428169Y-124287537D01*
X146743919Y-124418325D01*
X147079117Y-124485000D01*
X147420883Y-124485000D01*
X147756081Y-124418325D01*
X148071831Y-124287537D01*
X148355998Y-124097663D01*
X148597663Y-123855998D01*
X148787537Y-123571831D01*
X148918325Y-123256081D01*
X148985000Y-122920883D01*
X148985000Y-122770000D01*
X150911928Y-122770000D01*
X150924188Y-122894482D01*
X150960498Y-123014180D01*
X151019463Y-123124494D01*
X151098815Y-123221185D01*
X151195506Y-123300537D01*
X151305820Y-123359502D01*
X151378380Y-123381513D01*
X151246525Y-123513368D01*
X151084010Y-123756589D01*
X150972068Y-124026842D01*
X150915000Y-124313740D01*
X150915000Y-124606260D01*
X150972068Y-124893158D01*
X151084010Y-125163411D01*
X151246525Y-125406632D01*
X151453368Y-125613475D01*
X151627760Y-125730000D01*
X151453368Y-125846525D01*
X151246525Y-126053368D01*
X151084010Y-126296589D01*
X150972068Y-126566842D01*
X150915000Y-126853740D01*
X150915000Y-127146260D01*
X150972068Y-127433158D01*
X151084010Y-127703411D01*
X151246525Y-127946632D01*
X151453368Y-128153475D01*
X151627760Y-128270000D01*
X151453368Y-128386525D01*
X151246525Y-128593368D01*
X151084010Y-128836589D01*
X150972068Y-129106842D01*
X150915000Y-129393740D01*
X150915000Y-129686260D01*
X150972068Y-129973158D01*
X151084010Y-130243411D01*
X151246525Y-130486632D01*
X151453368Y-130693475D01*
X151627760Y-130810000D01*
X151453368Y-130926525D01*
X151246525Y-131133368D01*
X151084010Y-131376589D01*
X150972068Y-131646842D01*
X150915000Y-131933740D01*
X150915000Y-132226260D01*
X150972068Y-132513158D01*
X151084010Y-132783411D01*
X151246525Y-133026632D01*
X151453368Y-133233475D01*
X151627760Y-133350000D01*
X151453368Y-133466525D01*
X151246525Y-133673368D01*
X151084010Y-133916589D01*
X150972068Y-134186842D01*
X150915000Y-134473740D01*
X150915000Y-134766260D01*
X150972068Y-135053158D01*
X151084010Y-135323411D01*
X151246525Y-135566632D01*
X151453368Y-135773475D01*
X151627760Y-135890000D01*
X151453368Y-136006525D01*
X151246525Y-136213368D01*
X151084010Y-136456589D01*
X150972068Y-136726842D01*
X150915000Y-137013740D01*
X150915000Y-137306260D01*
X150972068Y-137593158D01*
X151084010Y-137863411D01*
X151246525Y-138106632D01*
X151453368Y-138313475D01*
X151627760Y-138430000D01*
X151453368Y-138546525D01*
X151246525Y-138753368D01*
X151084010Y-138996589D01*
X150972068Y-139266842D01*
X150915000Y-139553740D01*
X150915000Y-139846260D01*
X150972068Y-140133158D01*
X151084010Y-140403411D01*
X151246525Y-140646632D01*
X151453368Y-140853475D01*
X151696589Y-141015990D01*
X151966842Y-141127932D01*
X152253740Y-141185000D01*
X152546260Y-141185000D01*
X152833158Y-141127932D01*
X153103411Y-141015990D01*
X153346632Y-140853475D01*
X153553475Y-140646632D01*
X153715990Y-140403411D01*
X153827932Y-140133158D01*
X153885000Y-139846260D01*
X153885000Y-139553740D01*
X153827932Y-139266842D01*
X153715990Y-138996589D01*
X153553475Y-138753368D01*
X153346632Y-138546525D01*
X153172240Y-138430000D01*
X153346632Y-138313475D01*
X153553475Y-138106632D01*
X153715990Y-137863411D01*
X153827932Y-137593158D01*
X153885000Y-137306260D01*
X153885000Y-137013740D01*
X153827932Y-136726842D01*
X153715990Y-136456589D01*
X153553475Y-136213368D01*
X153346632Y-136006525D01*
X153172240Y-135890000D01*
X153346632Y-135773475D01*
X153553475Y-135566632D01*
X153715990Y-135323411D01*
X153827932Y-135053158D01*
X153885000Y-134766260D01*
X153885000Y-134473740D01*
X153827932Y-134186842D01*
X153715990Y-133916589D01*
X153553475Y-133673368D01*
X153346632Y-133466525D01*
X153172240Y-133350000D01*
X153346632Y-133233475D01*
X153553475Y-133026632D01*
X153715990Y-132783411D01*
X153827932Y-132513158D01*
X153885000Y-132226260D01*
X153885000Y-131933740D01*
X153827932Y-131646842D01*
X153715990Y-131376589D01*
X153553475Y-131133368D01*
X153346632Y-130926525D01*
X153172240Y-130810000D01*
X153346632Y-130693475D01*
X153553475Y-130486632D01*
X153715990Y-130243411D01*
X153827932Y-129973158D01*
X153885000Y-129686260D01*
X153885000Y-129393740D01*
X153827932Y-129106842D01*
X153715990Y-128836589D01*
X153553475Y-128593368D01*
X153346632Y-128386525D01*
X153172240Y-128270000D01*
X153346632Y-128153475D01*
X153553475Y-127946632D01*
X153715990Y-127703411D01*
X153827932Y-127433158D01*
X153885000Y-127146260D01*
X153885000Y-126853740D01*
X153827932Y-126566842D01*
X153715990Y-126296589D01*
X153553475Y-126053368D01*
X153346632Y-125846525D01*
X153172240Y-125730000D01*
X153346632Y-125613475D01*
X153553475Y-125406632D01*
X153715990Y-125163411D01*
X153827932Y-124893158D01*
X153885000Y-124606260D01*
X153885000Y-124313740D01*
X153827932Y-124026842D01*
X153715990Y-123756589D01*
X153553475Y-123513368D01*
X153421620Y-123381513D01*
X153494180Y-123359502D01*
X153604494Y-123300537D01*
X153701185Y-123221185D01*
X153780537Y-123124494D01*
X153839502Y-123014180D01*
X153875812Y-122894482D01*
X153888072Y-122770000D01*
X153885000Y-122205750D01*
X153726250Y-122047000D01*
X152527000Y-122047000D01*
X152527000Y-122067000D01*
X152273000Y-122067000D01*
X152273000Y-122047000D01*
X151073750Y-122047000D01*
X150915000Y-122205750D01*
X150911928Y-122770000D01*
X148985000Y-122770000D01*
X148985000Y-122579117D01*
X148918325Y-122243919D01*
X148787537Y-121928169D01*
X148597663Y-121644002D01*
X148355998Y-121402337D01*
X148071831Y-121212463D01*
X147756081Y-121081675D01*
X147697387Y-121070000D01*
X150911928Y-121070000D01*
X150915000Y-121634250D01*
X151073750Y-121793000D01*
X152273000Y-121793000D01*
X152273000Y-120593750D01*
X152527000Y-120593750D01*
X152527000Y-121793000D01*
X153726250Y-121793000D01*
X153885000Y-121634250D01*
X153888072Y-121070000D01*
X153875812Y-120945518D01*
X153839502Y-120825820D01*
X153780537Y-120715506D01*
X153701185Y-120618815D01*
X153604494Y-120539463D01*
X153494180Y-120480498D01*
X153374482Y-120444188D01*
X153250000Y-120431928D01*
X152685750Y-120435000D01*
X152527000Y-120593750D01*
X152273000Y-120593750D01*
X152114250Y-120435000D01*
X151550000Y-120431928D01*
X151425518Y-120444188D01*
X151305820Y-120480498D01*
X151195506Y-120539463D01*
X151098815Y-120618815D01*
X151019463Y-120715506D01*
X150960498Y-120825820D01*
X150924188Y-120945518D01*
X150911928Y-121070000D01*
X147697387Y-121070000D01*
X147420883Y-121015000D01*
X147079117Y-121015000D01*
X146743919Y-121081675D01*
X146428169Y-121212463D01*
X146144002Y-121402337D01*
X145902337Y-121644002D01*
X145712463Y-121928169D01*
X145581675Y-122243919D01*
X145515000Y-122579117D01*
X143574337Y-122579117D01*
X143667932Y-122353158D01*
X143725000Y-122066260D01*
X143725000Y-121773740D01*
X143667932Y-121486842D01*
X143555990Y-121216589D01*
X143393475Y-120973368D01*
X143186632Y-120766525D01*
X142943411Y-120604010D01*
X142673158Y-120492068D01*
X142386260Y-120435000D01*
X142093740Y-120435000D01*
X141806842Y-120492068D01*
X141536589Y-120604010D01*
X141293368Y-120766525D01*
X141161513Y-120898380D01*
X141139502Y-120825820D01*
X141080537Y-120715506D01*
X141001185Y-120618815D01*
X140904494Y-120539463D01*
X140794180Y-120480498D01*
X140674482Y-120444188D01*
X140550000Y-120431928D01*
X138850000Y-120431928D01*
X138725518Y-120444188D01*
X138605820Y-120480498D01*
X138495506Y-120539463D01*
X138398815Y-120618815D01*
X138319463Y-120715506D01*
X138260498Y-120825820D01*
X138224188Y-120945518D01*
X138211928Y-121070000D01*
X132207000Y-121070000D01*
X132207000Y-120040000D01*
X156820001Y-120040000D01*
X156820000Y-169520000D01*
X132043334Y-169520000D01*
X132043334Y-167107500D01*
X125956667Y-167107500D01*
X125956667Y-169520000D01*
X114276789Y-169520000D01*
X116817109Y-166979681D01*
X116962506Y-166919455D01*
X117132024Y-166806187D01*
X117276187Y-166662024D01*
X117389455Y-166492506D01*
X117467476Y-166304148D01*
X117507250Y-166104189D01*
X117507250Y-165900311D01*
X117467476Y-165700352D01*
X117389455Y-165511994D01*
X117276187Y-165342476D01*
X117132024Y-165198313D01*
X116962506Y-165085045D01*
X116774148Y-165007024D01*
X116574189Y-164967250D01*
X116370311Y-164967250D01*
X116170352Y-165007024D01*
X115981994Y-165085045D01*
X115812476Y-165198313D01*
X115668313Y-165342476D01*
X115555045Y-165511994D01*
X115494819Y-165657391D01*
X113177211Y-167975000D01*
X90557290Y-167975000D01*
X88565000Y-165982711D01*
X88565000Y-164410000D01*
X94501928Y-164410000D01*
X94501928Y-166910000D01*
X94514188Y-167034482D01*
X94550498Y-167154180D01*
X94609463Y-167264494D01*
X94688815Y-167361185D01*
X94785506Y-167440537D01*
X94895820Y-167499502D01*
X95015518Y-167535812D01*
X95140000Y-167548072D01*
X98140000Y-167548072D01*
X98264482Y-167535812D01*
X98384180Y-167499502D01*
X98494494Y-167440537D01*
X98591185Y-167361185D01*
X98670537Y-167264494D01*
X98729502Y-167154180D01*
X98765812Y-167034482D01*
X98778072Y-166910000D01*
X98778072Y-164410000D01*
X98770193Y-164330000D01*
X145061928Y-164330000D01*
X145061928Y-166830000D01*
X145074188Y-166954482D01*
X145110498Y-167074180D01*
X145169463Y-167184494D01*
X145248815Y-167281185D01*
X145345506Y-167360537D01*
X145455820Y-167419502D01*
X145575518Y-167455812D01*
X145700000Y-167468072D01*
X148700000Y-167468072D01*
X148824482Y-167455812D01*
X148944180Y-167419502D01*
X149054494Y-167360537D01*
X149151185Y-167281185D01*
X149230537Y-167184494D01*
X149289502Y-167074180D01*
X149325812Y-166954482D01*
X149338072Y-166830000D01*
X149338072Y-164330000D01*
X149325812Y-164205518D01*
X149289502Y-164085820D01*
X149230537Y-163975506D01*
X149151185Y-163878815D01*
X149054494Y-163799463D01*
X148944180Y-163740498D01*
X148824482Y-163704188D01*
X148700000Y-163691928D01*
X145700000Y-163691928D01*
X145575518Y-163704188D01*
X145455820Y-163740498D01*
X145345506Y-163799463D01*
X145248815Y-163878815D01*
X145169463Y-163975506D01*
X145110498Y-164085820D01*
X145074188Y-164205518D01*
X145061928Y-164330000D01*
X98770193Y-164330000D01*
X98765812Y-164285518D01*
X98729502Y-164165820D01*
X98670537Y-164055506D01*
X98591185Y-163958815D01*
X98494494Y-163879463D01*
X98384180Y-163820498D01*
X98264482Y-163784188D01*
X98140000Y-163771928D01*
X95140000Y-163771928D01*
X95015518Y-163784188D01*
X94895820Y-163820498D01*
X94785506Y-163879463D01*
X94688815Y-163958815D01*
X94609463Y-164055506D01*
X94550498Y-164165820D01*
X94514188Y-164285518D01*
X94501928Y-164410000D01*
X88565000Y-164410000D01*
X88565000Y-163797239D01*
X88597748Y-163829987D01*
X88865537Y-164008918D01*
X89163088Y-164132168D01*
X89478967Y-164195000D01*
X89801033Y-164195000D01*
X90116912Y-164132168D01*
X90414463Y-164008918D01*
X90682252Y-163829987D01*
X90909987Y-163602252D01*
X91088918Y-163334463D01*
X91212168Y-163036912D01*
X91275000Y-162721033D01*
X91275000Y-162398967D01*
X91212168Y-162083088D01*
X91088918Y-161785537D01*
X90909987Y-161517748D01*
X90682252Y-161290013D01*
X90414463Y-161111082D01*
X90116912Y-160987832D01*
X89801033Y-160925000D01*
X89478967Y-160925000D01*
X89163088Y-160987832D01*
X88865537Y-161111082D01*
X88597748Y-161290013D01*
X88565000Y-161322761D01*
X88565000Y-160122595D01*
X102498282Y-160122595D01*
X102542039Y-160441675D01*
X102647205Y-160746088D01*
X102740186Y-160920044D01*
X102889223Y-160974024D01*
X102785506Y-161029463D01*
X102688815Y-161108815D01*
X102609463Y-161205506D01*
X102550498Y-161315820D01*
X102514188Y-161435518D01*
X102501928Y-161560000D01*
X102501928Y-163560000D01*
X102514188Y-163684482D01*
X102550498Y-163804180D01*
X102609463Y-163914494D01*
X102688815Y-164011185D01*
X102785506Y-164090537D01*
X102895820Y-164149502D01*
X103015518Y-164185812D01*
X103140000Y-164198072D01*
X105140000Y-164198072D01*
X105264482Y-164185812D01*
X105384180Y-164149502D01*
X105494494Y-164090537D01*
X105591185Y-164011185D01*
X105670537Y-163914494D01*
X105729502Y-163804180D01*
X105765812Y-163684482D01*
X105778072Y-163560000D01*
X105778072Y-162318967D01*
X138065000Y-162318967D01*
X138065000Y-162641033D01*
X138127832Y-162956912D01*
X138251082Y-163254463D01*
X138430013Y-163522252D01*
X138657748Y-163749987D01*
X138925537Y-163928918D01*
X139223088Y-164052168D01*
X139538967Y-164115000D01*
X139861033Y-164115000D01*
X140176912Y-164052168D01*
X140474463Y-163928918D01*
X140742252Y-163749987D01*
X140876826Y-163615413D01*
X153244192Y-163615413D01*
X153339956Y-163879814D01*
X153629571Y-164020704D01*
X153941108Y-164102384D01*
X154262595Y-164121718D01*
X154581675Y-164077961D01*
X154886088Y-163972795D01*
X155060044Y-163879814D01*
X155155808Y-163615413D01*
X154200000Y-162659605D01*
X153244192Y-163615413D01*
X140876826Y-163615413D01*
X140969987Y-163522252D01*
X141148918Y-163254463D01*
X141272168Y-162956912D01*
X141335000Y-162641033D01*
X141335000Y-162542595D01*
X152558282Y-162542595D01*
X152602039Y-162861675D01*
X152707205Y-163166088D01*
X152800186Y-163340044D01*
X153064587Y-163435808D01*
X154020395Y-162480000D01*
X154379605Y-162480000D01*
X155335413Y-163435808D01*
X155599814Y-163340044D01*
X155740704Y-163050429D01*
X155822384Y-162738892D01*
X155841718Y-162417405D01*
X155797961Y-162098325D01*
X155692795Y-161793912D01*
X155599814Y-161619956D01*
X155335413Y-161524192D01*
X154379605Y-162480000D01*
X154020395Y-162480000D01*
X153064587Y-161524192D01*
X152800186Y-161619956D01*
X152659296Y-161909571D01*
X152577616Y-162221108D01*
X152558282Y-162542595D01*
X141335000Y-162542595D01*
X141335000Y-162318967D01*
X141272168Y-162003088D01*
X141148918Y-161705537D01*
X140969987Y-161437748D01*
X140876826Y-161344587D01*
X153244192Y-161344587D01*
X154200000Y-162300395D01*
X155155808Y-161344587D01*
X155060044Y-161080186D01*
X154770429Y-160939296D01*
X154458892Y-160857616D01*
X154137405Y-160838282D01*
X153818325Y-160882039D01*
X153513912Y-160987205D01*
X153339956Y-161080186D01*
X153244192Y-161344587D01*
X140876826Y-161344587D01*
X140742252Y-161210013D01*
X140645065Y-161145075D01*
X140655808Y-161115413D01*
X139700000Y-160159605D01*
X138744192Y-161115413D01*
X138754935Y-161145075D01*
X138657748Y-161210013D01*
X138430013Y-161437748D01*
X138251082Y-161705537D01*
X138127832Y-162003088D01*
X138065000Y-162318967D01*
X105778072Y-162318967D01*
X105778072Y-161560000D01*
X105765812Y-161435518D01*
X105729502Y-161315820D01*
X105670537Y-161205506D01*
X105591185Y-161108815D01*
X105494494Y-161029463D01*
X105390777Y-160974024D01*
X105539814Y-160920044D01*
X105680704Y-160630429D01*
X105762384Y-160318892D01*
X105779000Y-160042595D01*
X138058282Y-160042595D01*
X138102039Y-160361675D01*
X138207205Y-160666088D01*
X138300186Y-160840044D01*
X138564587Y-160935808D01*
X139520395Y-159980000D01*
X139506253Y-159965858D01*
X139685858Y-159786253D01*
X139700000Y-159800395D01*
X139714143Y-159786253D01*
X139893748Y-159965858D01*
X139879605Y-159980000D01*
X140835413Y-160935808D01*
X141099814Y-160840044D01*
X141240704Y-160550429D01*
X141322384Y-160238892D01*
X141341718Y-159917405D01*
X141297961Y-159598325D01*
X141192795Y-159293912D01*
X141099814Y-159119956D01*
X140950777Y-159065976D01*
X141054494Y-159010537D01*
X141151185Y-158931185D01*
X141230537Y-158834494D01*
X141289502Y-158724180D01*
X141325812Y-158604482D01*
X141338072Y-158480000D01*
X141338072Y-157318967D01*
X152565000Y-157318967D01*
X152565000Y-157641033D01*
X152627832Y-157956912D01*
X152751082Y-158254463D01*
X152930013Y-158522252D01*
X153157748Y-158749987D01*
X153425537Y-158928918D01*
X153723088Y-159052168D01*
X154038967Y-159115000D01*
X154361033Y-159115000D01*
X154676912Y-159052168D01*
X154974463Y-158928918D01*
X155242252Y-158749987D01*
X155469987Y-158522252D01*
X155648918Y-158254463D01*
X155772168Y-157956912D01*
X155835000Y-157641033D01*
X155835000Y-157318967D01*
X155772168Y-157003088D01*
X155648918Y-156705537D01*
X155469987Y-156437748D01*
X155242252Y-156210013D01*
X154974463Y-156031082D01*
X154676912Y-155907832D01*
X154361033Y-155845000D01*
X154038967Y-155845000D01*
X153723088Y-155907832D01*
X153425537Y-156031082D01*
X153157748Y-156210013D01*
X152930013Y-156437748D01*
X152751082Y-156705537D01*
X152627832Y-157003088D01*
X152565000Y-157318967D01*
X141338072Y-157318967D01*
X141338072Y-156480000D01*
X141325812Y-156355518D01*
X141289502Y-156235820D01*
X141230537Y-156125506D01*
X141151185Y-156028815D01*
X141054494Y-155949463D01*
X140944180Y-155890498D01*
X140824482Y-155854188D01*
X140700000Y-155841928D01*
X138700000Y-155841928D01*
X138575518Y-155854188D01*
X138455820Y-155890498D01*
X138345506Y-155949463D01*
X138248815Y-156028815D01*
X138169463Y-156125506D01*
X138110498Y-156235820D01*
X138074188Y-156355518D01*
X138061928Y-156480000D01*
X138061928Y-158480000D01*
X138074188Y-158604482D01*
X138110498Y-158724180D01*
X138169463Y-158834494D01*
X138248815Y-158931185D01*
X138345506Y-159010537D01*
X138449223Y-159065976D01*
X138300186Y-159119956D01*
X138159296Y-159409571D01*
X138077616Y-159721108D01*
X138058282Y-160042595D01*
X105779000Y-160042595D01*
X105781718Y-159997405D01*
X105737961Y-159678325D01*
X105632795Y-159373912D01*
X105539814Y-159199956D01*
X105275413Y-159104192D01*
X104319605Y-160060000D01*
X104333748Y-160074143D01*
X104154143Y-160253748D01*
X104140000Y-160239605D01*
X104125858Y-160253748D01*
X103946253Y-160074143D01*
X103960395Y-160060000D01*
X103004587Y-159104192D01*
X102740186Y-159199956D01*
X102599296Y-159489571D01*
X102517616Y-159801108D01*
X102498282Y-160122595D01*
X88565000Y-160122595D01*
X88565000Y-158807558D01*
X88568525Y-158811083D01*
X88684193Y-158695415D01*
X88779956Y-158959814D01*
X89069571Y-159100704D01*
X89381108Y-159182384D01*
X89702595Y-159201718D01*
X90021675Y-159157961D01*
X90326088Y-159052795D01*
X90500044Y-158959814D01*
X90595808Y-158695413D01*
X89640000Y-157739605D01*
X89625858Y-157753748D01*
X89446253Y-157574143D01*
X89460395Y-157560000D01*
X89819605Y-157560000D01*
X90775413Y-158515808D01*
X91039814Y-158420044D01*
X91180704Y-158130429D01*
X91262384Y-157818892D01*
X91281718Y-157497405D01*
X91268219Y-157398967D01*
X102505000Y-157398967D01*
X102505000Y-157721033D01*
X102567832Y-158036912D01*
X102691082Y-158334463D01*
X102870013Y-158602252D01*
X103097748Y-158829987D01*
X103194935Y-158894925D01*
X103184192Y-158924587D01*
X104140000Y-159880395D01*
X105095808Y-158924587D01*
X105085065Y-158894925D01*
X105182252Y-158829987D01*
X105409987Y-158602252D01*
X105588918Y-158334463D01*
X105712168Y-158036912D01*
X105775000Y-157721033D01*
X105775000Y-157398967D01*
X105719324Y-157119061D01*
X108942000Y-157119061D01*
X108942000Y-157322939D01*
X108981774Y-157522898D01*
X109059795Y-157711256D01*
X109173063Y-157880774D01*
X109317226Y-158024937D01*
X109486744Y-158138205D01*
X109675102Y-158216226D01*
X109875061Y-158256000D01*
X110078939Y-158256000D01*
X110278898Y-158216226D01*
X110424295Y-158156000D01*
X114005068Y-158156000D01*
X114051000Y-158160524D01*
X114096932Y-158156000D01*
X114234292Y-158142471D01*
X114410540Y-158089007D01*
X114572972Y-158002186D01*
X114715344Y-157885344D01*
X114744630Y-157849659D01*
X116867228Y-155727061D01*
X117329000Y-155727061D01*
X117329000Y-155930939D01*
X117368774Y-156130898D01*
X117446795Y-156319256D01*
X117560063Y-156488774D01*
X117704226Y-156632937D01*
X117873744Y-156746205D01*
X118062102Y-156824226D01*
X118262061Y-156864000D01*
X118359554Y-156864000D01*
X118980000Y-157484447D01*
X118980000Y-157581939D01*
X119019774Y-157781898D01*
X119097795Y-157970256D01*
X119211063Y-158139774D01*
X119355226Y-158283937D01*
X119524744Y-158397205D01*
X119713102Y-158475226D01*
X119913061Y-158515000D01*
X120116939Y-158515000D01*
X120316898Y-158475226D01*
X120505256Y-158397205D01*
X120674774Y-158283937D01*
X120818937Y-158139774D01*
X120932205Y-157970256D01*
X121010226Y-157781898D01*
X121050000Y-157581939D01*
X121050000Y-157378061D01*
X121010226Y-157178102D01*
X120932205Y-156989744D01*
X120818937Y-156820226D01*
X120674774Y-156676063D01*
X120505256Y-156562795D01*
X120316898Y-156484774D01*
X120116939Y-156445000D01*
X120019447Y-156445000D01*
X119399000Y-155824554D01*
X119399000Y-155727061D01*
X119359226Y-155527102D01*
X119281205Y-155338744D01*
X119167937Y-155169226D01*
X119023774Y-155025063D01*
X118854256Y-154911795D01*
X118665898Y-154833774D01*
X118465939Y-154794000D01*
X118262061Y-154794000D01*
X118062102Y-154833774D01*
X117873744Y-154911795D01*
X117704226Y-155025063D01*
X117560063Y-155169226D01*
X117446795Y-155338744D01*
X117368774Y-155527102D01*
X117329000Y-155727061D01*
X116867228Y-155727061D01*
X120516659Y-152077630D01*
X120552344Y-152048344D01*
X120669186Y-151905972D01*
X120725765Y-151800120D01*
X120756007Y-151743541D01*
X120809472Y-151567292D01*
X120827524Y-151384000D01*
X120823000Y-151338065D01*
X120823000Y-149545295D01*
X120883226Y-149399898D01*
X120923000Y-149199939D01*
X120923000Y-148996061D01*
X120883226Y-148796102D01*
X120823000Y-148650705D01*
X120823000Y-148509000D01*
X123767915Y-148509000D01*
X132855171Y-157596257D01*
X132915397Y-157741654D01*
X133028665Y-157911172D01*
X133172828Y-158055335D01*
X133342346Y-158168603D01*
X133530704Y-158246624D01*
X133730663Y-158286398D01*
X133934541Y-158286398D01*
X134134500Y-158246624D01*
X134322858Y-158168603D01*
X134492376Y-158055335D01*
X134636539Y-157911172D01*
X134749807Y-157741654D01*
X134827828Y-157553296D01*
X134867602Y-157353337D01*
X134867602Y-157149459D01*
X134827828Y-156949500D01*
X134749807Y-156761142D01*
X134636539Y-156591624D01*
X134492376Y-156447461D01*
X134322858Y-156334193D01*
X134177461Y-156273967D01*
X131033494Y-153130000D01*
X145061928Y-153130000D01*
X145061928Y-155630000D01*
X145074188Y-155754482D01*
X145110498Y-155874180D01*
X145169463Y-155984494D01*
X145248815Y-156081185D01*
X145345506Y-156160537D01*
X145455820Y-156219502D01*
X145575518Y-156255812D01*
X145700000Y-156268072D01*
X148700000Y-156268072D01*
X148824482Y-156255812D01*
X148944180Y-156219502D01*
X149054494Y-156160537D01*
X149151185Y-156081185D01*
X149230537Y-155984494D01*
X149289502Y-155874180D01*
X149325812Y-155754482D01*
X149338072Y-155630000D01*
X149338072Y-153130000D01*
X149325812Y-153005518D01*
X149289502Y-152885820D01*
X149230537Y-152775506D01*
X149151185Y-152678815D01*
X149054494Y-152599463D01*
X148944180Y-152540498D01*
X148824482Y-152504188D01*
X148700000Y-152491928D01*
X145700000Y-152491928D01*
X145575518Y-152504188D01*
X145455820Y-152540498D01*
X145345506Y-152599463D01*
X145248815Y-152678815D01*
X145169463Y-152775506D01*
X145110498Y-152885820D01*
X145074188Y-153005518D01*
X145061928Y-153130000D01*
X131033494Y-153130000D01*
X127482611Y-149579117D01*
X145515000Y-149579117D01*
X145515000Y-149920883D01*
X145581675Y-150256081D01*
X145712463Y-150571831D01*
X145902337Y-150855998D01*
X146144002Y-151097663D01*
X146428169Y-151287537D01*
X146743919Y-151418325D01*
X147079117Y-151485000D01*
X147420883Y-151485000D01*
X147756081Y-151418325D01*
X148071831Y-151287537D01*
X148355998Y-151097663D01*
X148597663Y-150855998D01*
X148787537Y-150571831D01*
X148918325Y-150256081D01*
X148985000Y-149920883D01*
X148985000Y-149579117D01*
X148918325Y-149243919D01*
X148787537Y-148928169D01*
X148597663Y-148644002D01*
X148355998Y-148402337D01*
X148071831Y-148212463D01*
X147756081Y-148081675D01*
X147420883Y-148015000D01*
X147079117Y-148015000D01*
X146743919Y-148081675D01*
X146428169Y-148212463D01*
X146144002Y-148402337D01*
X145902337Y-148644002D01*
X145712463Y-148928169D01*
X145581675Y-149243919D01*
X145515000Y-149579117D01*
X127482611Y-149579117D01*
X124848834Y-146945341D01*
X124819548Y-146909656D01*
X124677176Y-146792814D01*
X124514744Y-146705993D01*
X124338496Y-146652529D01*
X124201136Y-146639000D01*
X124155204Y-146634476D01*
X124109272Y-146639000D01*
X120441924Y-146639000D01*
X120395999Y-146634477D01*
X120350074Y-146639000D01*
X120350068Y-146639000D01*
X120231110Y-146650717D01*
X120212707Y-146652529D01*
X120159243Y-146668747D01*
X120036460Y-146705993D01*
X119874028Y-146792814D01*
X119731656Y-146909656D01*
X119702370Y-146945341D01*
X119259336Y-147388375D01*
X119223657Y-147417656D01*
X119106815Y-147560028D01*
X119019994Y-147722460D01*
X118966529Y-147898709D01*
X118948476Y-148082000D01*
X118953001Y-148127941D01*
X118953000Y-148650704D01*
X118892774Y-148796102D01*
X118853000Y-148996061D01*
X118853000Y-149199939D01*
X118892774Y-149399898D01*
X118953000Y-149545296D01*
X118953001Y-150996710D01*
X113663711Y-156286000D01*
X110424295Y-156286000D01*
X110278898Y-156225774D01*
X110078939Y-156186000D01*
X109875061Y-156186000D01*
X109675102Y-156225774D01*
X109486744Y-156303795D01*
X109317226Y-156417063D01*
X109173063Y-156561226D01*
X109059795Y-156730744D01*
X108981774Y-156919102D01*
X108942000Y-157119061D01*
X105719324Y-157119061D01*
X105712168Y-157083088D01*
X105588918Y-156785537D01*
X105409987Y-156517748D01*
X105182252Y-156290013D01*
X104914463Y-156111082D01*
X104616912Y-155987832D01*
X104301033Y-155925000D01*
X103978967Y-155925000D01*
X103663088Y-155987832D01*
X103365537Y-156111082D01*
X103097748Y-156290013D01*
X102870013Y-156517748D01*
X102691082Y-156785537D01*
X102567832Y-157083088D01*
X102505000Y-157398967D01*
X91268219Y-157398967D01*
X91237961Y-157178325D01*
X91132795Y-156873912D01*
X91039814Y-156699956D01*
X90775413Y-156604192D01*
X89819605Y-157560000D01*
X89460395Y-157560000D01*
X89446253Y-157545858D01*
X89625858Y-157366253D01*
X89640000Y-157380395D01*
X90595808Y-156424587D01*
X90500044Y-156160186D01*
X90210429Y-156019296D01*
X89898892Y-155937616D01*
X89577405Y-155918282D01*
X89258325Y-155962039D01*
X88953912Y-156067205D01*
X88779956Y-156160186D01*
X88684193Y-156424585D01*
X88568525Y-156308917D01*
X88565000Y-156312442D01*
X88565000Y-153210000D01*
X94501928Y-153210000D01*
X94501928Y-155710000D01*
X94514188Y-155834482D01*
X94550498Y-155954180D01*
X94609463Y-156064494D01*
X94688815Y-156161185D01*
X94785506Y-156240537D01*
X94895820Y-156299502D01*
X95015518Y-156335812D01*
X95140000Y-156348072D01*
X98140000Y-156348072D01*
X98264482Y-156335812D01*
X98384180Y-156299502D01*
X98494494Y-156240537D01*
X98591185Y-156161185D01*
X98670537Y-156064494D01*
X98729502Y-155954180D01*
X98765812Y-155834482D01*
X98778072Y-155710000D01*
X98778072Y-153210000D01*
X98765812Y-153085518D01*
X98729502Y-152965820D01*
X98670537Y-152855506D01*
X98591185Y-152758815D01*
X98494494Y-152679463D01*
X98384180Y-152620498D01*
X98264482Y-152584188D01*
X98140000Y-152571928D01*
X95140000Y-152571928D01*
X95015518Y-152584188D01*
X94895820Y-152620498D01*
X94785506Y-152679463D01*
X94688815Y-152758815D01*
X94609463Y-152855506D01*
X94550498Y-152965820D01*
X94514188Y-153085518D01*
X94501928Y-153210000D01*
X88565000Y-153210000D01*
X88565000Y-151771289D01*
X90757172Y-149579117D01*
X93515000Y-149579117D01*
X93515000Y-149920883D01*
X93581675Y-150256081D01*
X93712463Y-150571831D01*
X93902337Y-150855998D01*
X94144002Y-151097663D01*
X94428169Y-151287537D01*
X94743919Y-151418325D01*
X95079117Y-151485000D01*
X95420883Y-151485000D01*
X95756081Y-151418325D01*
X96071831Y-151287537D01*
X96355998Y-151097663D01*
X96597663Y-150855998D01*
X96787537Y-150571831D01*
X96918325Y-150256081D01*
X96985000Y-149920883D01*
X96985000Y-149579117D01*
X96918325Y-149243919D01*
X96787537Y-148928169D01*
X96597663Y-148644002D01*
X96355998Y-148402337D01*
X96071831Y-148212463D01*
X95756081Y-148081675D01*
X95420883Y-148015000D01*
X95079117Y-148015000D01*
X94743919Y-148081675D01*
X94428169Y-148212463D01*
X94144002Y-148402337D01*
X93902337Y-148644002D01*
X93712463Y-148928169D01*
X93581675Y-149243919D01*
X93515000Y-149579117D01*
X90757172Y-149579117D01*
X97332728Y-143003561D01*
X106510500Y-143003561D01*
X106510500Y-143207439D01*
X106550274Y-143407398D01*
X106628295Y-143595756D01*
X106741563Y-143765274D01*
X106885726Y-143909437D01*
X107055244Y-144022705D01*
X107243602Y-144100726D01*
X107443561Y-144140500D01*
X107647439Y-144140500D01*
X107847398Y-144100726D01*
X107992795Y-144040500D01*
X110594568Y-144040500D01*
X110640500Y-144045024D01*
X110686432Y-144040500D01*
X110823792Y-144026971D01*
X111000040Y-143973507D01*
X111162472Y-143886686D01*
X111304844Y-143769844D01*
X111334130Y-143734159D01*
X114644859Y-140423431D01*
X114790256Y-140363205D01*
X114959774Y-140249937D01*
X115103937Y-140105774D01*
X115217205Y-139936256D01*
X115295226Y-139747898D01*
X115335000Y-139547939D01*
X115335000Y-139344061D01*
X115295226Y-139144102D01*
X115217205Y-138955744D01*
X115103937Y-138786226D01*
X114959774Y-138642063D01*
X114790256Y-138528795D01*
X114601898Y-138450774D01*
X114401939Y-138411000D01*
X114198061Y-138411000D01*
X113998102Y-138450774D01*
X113809744Y-138528795D01*
X113640226Y-138642063D01*
X113496063Y-138786226D01*
X113382795Y-138955744D01*
X113322569Y-139101141D01*
X110253211Y-142170500D01*
X107992795Y-142170500D01*
X107847398Y-142110274D01*
X107647439Y-142070500D01*
X107443561Y-142070500D01*
X107243602Y-142110274D01*
X107055244Y-142188295D01*
X106885726Y-142301563D01*
X106741563Y-142445726D01*
X106628295Y-142615244D01*
X106550274Y-142803602D01*
X106510500Y-143003561D01*
X97332728Y-143003561D01*
X103826359Y-136509931D01*
X103971756Y-136449705D01*
X104141274Y-136336437D01*
X104285437Y-136192274D01*
X104398705Y-136022756D01*
X104476726Y-135834398D01*
X104516500Y-135634439D01*
X104516500Y-135430561D01*
X104476726Y-135230602D01*
X104398705Y-135042244D01*
X104285437Y-134872726D01*
X104141274Y-134728563D01*
X103971756Y-134615295D01*
X103783398Y-134537274D01*
X103583439Y-134497500D01*
X103379561Y-134497500D01*
X103179602Y-134537274D01*
X102991244Y-134615295D01*
X102821726Y-134728563D01*
X102677563Y-134872726D01*
X102564295Y-135042244D01*
X102504069Y-135187641D01*
X87020000Y-150671711D01*
X87020000Y-138850000D01*
X89951928Y-138850000D01*
X89951928Y-140550000D01*
X89964188Y-140674482D01*
X90000498Y-140794180D01*
X90059463Y-140904494D01*
X90138815Y-141001185D01*
X90235506Y-141080537D01*
X90345820Y-141139502D01*
X90465518Y-141175812D01*
X90590000Y-141188072D01*
X92290000Y-141188072D01*
X92414482Y-141175812D01*
X92534180Y-141139502D01*
X92644494Y-141080537D01*
X92741185Y-141001185D01*
X92820537Y-140904494D01*
X92879502Y-140794180D01*
X92915812Y-140674482D01*
X92928072Y-140550000D01*
X92928072Y-138850000D01*
X92915812Y-138725518D01*
X92879502Y-138605820D01*
X92820537Y-138495506D01*
X92741185Y-138398815D01*
X92644494Y-138319463D01*
X92534180Y-138260498D01*
X92461620Y-138238487D01*
X92593475Y-138106632D01*
X92755990Y-137863411D01*
X92867932Y-137593158D01*
X92925000Y-137306260D01*
X92925000Y-137013740D01*
X92867932Y-136726842D01*
X92755990Y-136456589D01*
X92593475Y-136213368D01*
X92386632Y-136006525D01*
X92212240Y-135890000D01*
X92386632Y-135773475D01*
X92593475Y-135566632D01*
X92755990Y-135323411D01*
X92867932Y-135053158D01*
X92925000Y-134766260D01*
X92925000Y-134473740D01*
X92867932Y-134186842D01*
X92755990Y-133916589D01*
X92593475Y-133673368D01*
X92386632Y-133466525D01*
X92212240Y-133350000D01*
X92386632Y-133233475D01*
X92593475Y-133026632D01*
X92755990Y-132783411D01*
X92867932Y-132513158D01*
X92925000Y-132226260D01*
X92925000Y-131933740D01*
X92867932Y-131646842D01*
X92755990Y-131376589D01*
X92593475Y-131133368D01*
X92386632Y-130926525D01*
X92212240Y-130810000D01*
X92386632Y-130693475D01*
X92593475Y-130486632D01*
X92755990Y-130243411D01*
X92867932Y-129973158D01*
X92925000Y-129686260D01*
X92925000Y-129393740D01*
X92867932Y-129106842D01*
X92755990Y-128836589D01*
X92658043Y-128690000D01*
X97571928Y-128690000D01*
X97571928Y-130390000D01*
X97584188Y-130514482D01*
X97620498Y-130634180D01*
X97679463Y-130744494D01*
X97758815Y-130841185D01*
X97855506Y-130920537D01*
X97965820Y-130979502D01*
X98085518Y-131015812D01*
X98210000Y-131028072D01*
X99910000Y-131028072D01*
X100034482Y-131015812D01*
X100154180Y-130979502D01*
X100264494Y-130920537D01*
X100361185Y-130841185D01*
X100440537Y-130744494D01*
X100499502Y-130634180D01*
X100521513Y-130561620D01*
X100653368Y-130693475D01*
X100896589Y-130855990D01*
X101166842Y-130967932D01*
X101453740Y-131025000D01*
X101746260Y-131025000D01*
X102033158Y-130967932D01*
X102303411Y-130855990D01*
X102546632Y-130693475D01*
X102753475Y-130486632D01*
X102915990Y-130243411D01*
X103027932Y-129973158D01*
X103085000Y-129686260D01*
X103085000Y-129438061D01*
X104375000Y-129438061D01*
X104375000Y-129641939D01*
X104414774Y-129841898D01*
X104492795Y-130030256D01*
X104606063Y-130199774D01*
X104750226Y-130343937D01*
X104919744Y-130457205D01*
X105065142Y-130517431D01*
X110746376Y-136198666D01*
X110775657Y-136234345D01*
X110918029Y-136351187D01*
X111080461Y-136438008D01*
X111203244Y-136475254D01*
X111256708Y-136491472D01*
X111440000Y-136509525D01*
X111485932Y-136505001D01*
X123062704Y-136505001D01*
X123208101Y-136565227D01*
X123408060Y-136605001D01*
X123611938Y-136605001D01*
X123811897Y-136565227D01*
X124000255Y-136487206D01*
X124169773Y-136373938D01*
X124313936Y-136229775D01*
X124427204Y-136060257D01*
X124505225Y-135871899D01*
X124544999Y-135671940D01*
X124544999Y-135468062D01*
X124505225Y-135268103D01*
X124427204Y-135079745D01*
X124313936Y-134910227D01*
X124169773Y-134766064D01*
X124000255Y-134652796D01*
X123811897Y-134574775D01*
X123611938Y-134535001D01*
X123408060Y-134535001D01*
X123208101Y-134574775D01*
X123062704Y-134635001D01*
X111827291Y-134635001D01*
X106387431Y-129195142D01*
X106327205Y-129049744D01*
X106213937Y-128880226D01*
X106069774Y-128736063D01*
X105900256Y-128622795D01*
X105711898Y-128544774D01*
X105511939Y-128505000D01*
X105308061Y-128505000D01*
X105108102Y-128544774D01*
X104919744Y-128622795D01*
X104750226Y-128736063D01*
X104606063Y-128880226D01*
X104492795Y-129049744D01*
X104414774Y-129238102D01*
X104375000Y-129438061D01*
X103085000Y-129438061D01*
X103085000Y-129393740D01*
X103027932Y-129106842D01*
X102915990Y-128836589D01*
X102753475Y-128593368D01*
X102546632Y-128386525D01*
X102303411Y-128224010D01*
X102033158Y-128112068D01*
X101746260Y-128055000D01*
X101453740Y-128055000D01*
X101166842Y-128112068D01*
X100896589Y-128224010D01*
X100653368Y-128386525D01*
X100521513Y-128518380D01*
X100499502Y-128445820D01*
X100440537Y-128335506D01*
X100361185Y-128238815D01*
X100264494Y-128159463D01*
X100154180Y-128100498D01*
X100034482Y-128064188D01*
X99910000Y-128051928D01*
X98210000Y-128051928D01*
X98085518Y-128064188D01*
X97965820Y-128100498D01*
X97855506Y-128159463D01*
X97758815Y-128238815D01*
X97679463Y-128335506D01*
X97620498Y-128445820D01*
X97584188Y-128565518D01*
X97571928Y-128690000D01*
X92658043Y-128690000D01*
X92593475Y-128593368D01*
X92386632Y-128386525D01*
X92212240Y-128270000D01*
X92386632Y-128153475D01*
X92593475Y-127946632D01*
X92755990Y-127703411D01*
X92867932Y-127433158D01*
X92925000Y-127146260D01*
X92925000Y-126853740D01*
X92867932Y-126566842D01*
X92755990Y-126296589D01*
X92593475Y-126053368D01*
X92386632Y-125846525D01*
X92212240Y-125730000D01*
X92386632Y-125613475D01*
X92593475Y-125406632D01*
X92755990Y-125163411D01*
X92867932Y-124893158D01*
X92925000Y-124606260D01*
X92925000Y-124313740D01*
X92867932Y-124026842D01*
X92755990Y-123756589D01*
X92593475Y-123513368D01*
X92386632Y-123306525D01*
X92212240Y-123190000D01*
X92386632Y-123073475D01*
X92593475Y-122866632D01*
X92755990Y-122623411D01*
X92774337Y-122579117D01*
X93515000Y-122579117D01*
X93515000Y-122920883D01*
X93581675Y-123256081D01*
X93712463Y-123571831D01*
X93902337Y-123855998D01*
X94144002Y-124097663D01*
X94428169Y-124287537D01*
X94743919Y-124418325D01*
X95079117Y-124485000D01*
X95420883Y-124485000D01*
X95756081Y-124418325D01*
X96071831Y-124287537D01*
X96355998Y-124097663D01*
X96597663Y-123855998D01*
X96787537Y-123571831D01*
X96918325Y-123256081D01*
X96985000Y-122920883D01*
X96985000Y-122579117D01*
X96918325Y-122243919D01*
X96787537Y-121928169D01*
X96597663Y-121644002D01*
X96355998Y-121402337D01*
X96071831Y-121212463D01*
X95756081Y-121081675D01*
X95697387Y-121070000D01*
X97571928Y-121070000D01*
X97571928Y-122770000D01*
X97584188Y-122894482D01*
X97620498Y-123014180D01*
X97679463Y-123124494D01*
X97758815Y-123221185D01*
X97855506Y-123300537D01*
X97965820Y-123359502D01*
X98038380Y-123381513D01*
X97906525Y-123513368D01*
X97744010Y-123756589D01*
X97632068Y-124026842D01*
X97575000Y-124313740D01*
X97575000Y-124606260D01*
X97632068Y-124893158D01*
X97744010Y-125163411D01*
X97906525Y-125406632D01*
X98113368Y-125613475D01*
X98356589Y-125775990D01*
X98626842Y-125887932D01*
X98913740Y-125945000D01*
X99206260Y-125945000D01*
X99493158Y-125887932D01*
X99763411Y-125775990D01*
X100006632Y-125613475D01*
X100213475Y-125406632D01*
X100330000Y-125232240D01*
X100446525Y-125406632D01*
X100653368Y-125613475D01*
X100896589Y-125775990D01*
X101166842Y-125887932D01*
X101453740Y-125945000D01*
X101746260Y-125945000D01*
X102033158Y-125887932D01*
X102303411Y-125775990D01*
X102546632Y-125613475D01*
X102753475Y-125406632D01*
X102915990Y-125163411D01*
X103027932Y-124893158D01*
X103043102Y-124816890D01*
X105238524Y-124816890D01*
X105283175Y-124964099D01*
X105408359Y-125226920D01*
X105582412Y-125460269D01*
X105798645Y-125655178D01*
X106048748Y-125804157D01*
X106323109Y-125901481D01*
X106553000Y-125780814D01*
X106553000Y-124587000D01*
X106807000Y-124587000D01*
X106807000Y-125780814D01*
X107036891Y-125901481D01*
X107311252Y-125804157D01*
X107561355Y-125655178D01*
X107777588Y-125460269D01*
X107950000Y-125229120D01*
X108122412Y-125460269D01*
X108338645Y-125655178D01*
X108588748Y-125804157D01*
X108863109Y-125901481D01*
X109093000Y-125780814D01*
X109093000Y-124587000D01*
X109347000Y-124587000D01*
X109347000Y-125780814D01*
X109576891Y-125901481D01*
X109851252Y-125804157D01*
X110101355Y-125655178D01*
X110317588Y-125460269D01*
X110491641Y-125226920D01*
X110616825Y-124964099D01*
X110661476Y-124816890D01*
X110540155Y-124587000D01*
X109347000Y-124587000D01*
X109093000Y-124587000D01*
X106807000Y-124587000D01*
X106553000Y-124587000D01*
X105359845Y-124587000D01*
X105238524Y-124816890D01*
X103043102Y-124816890D01*
X103085000Y-124606260D01*
X103085000Y-124313740D01*
X103027932Y-124026842D01*
X102915990Y-123756589D01*
X102753475Y-123513368D01*
X102546632Y-123306525D01*
X102372240Y-123190000D01*
X102546632Y-123073475D01*
X102753475Y-122866632D01*
X102818042Y-122770000D01*
X105191928Y-122770000D01*
X105204188Y-122894482D01*
X105240498Y-123014180D01*
X105299463Y-123124494D01*
X105378815Y-123221185D01*
X105475506Y-123300537D01*
X105585820Y-123359502D01*
X105666466Y-123383966D01*
X105582412Y-123459731D01*
X105408359Y-123693080D01*
X105283175Y-123955901D01*
X105238524Y-124103110D01*
X105359845Y-124333000D01*
X106553000Y-124333000D01*
X106553000Y-122047000D01*
X106807000Y-122047000D01*
X106807000Y-124333000D01*
X109093000Y-124333000D01*
X109093000Y-122047000D01*
X109347000Y-122047000D01*
X109347000Y-124333000D01*
X110540155Y-124333000D01*
X110661476Y-124103110D01*
X110616825Y-123955901D01*
X110491641Y-123693080D01*
X110317588Y-123459731D01*
X110101355Y-123264822D01*
X109975745Y-123190000D01*
X110101355Y-123115178D01*
X110317588Y-122920269D01*
X110491641Y-122686920D01*
X110616825Y-122424099D01*
X110661476Y-122276890D01*
X110540155Y-122047000D01*
X109347000Y-122047000D01*
X109093000Y-122047000D01*
X106807000Y-122047000D01*
X106553000Y-122047000D01*
X105353750Y-122047000D01*
X105195000Y-122205750D01*
X105191928Y-122770000D01*
X102818042Y-122770000D01*
X102915990Y-122623411D01*
X103027932Y-122353158D01*
X103085000Y-122066260D01*
X103085000Y-121773740D01*
X103027932Y-121486842D01*
X102915990Y-121216589D01*
X102818043Y-121070000D01*
X105191928Y-121070000D01*
X105195000Y-121634250D01*
X105353750Y-121793000D01*
X106553000Y-121793000D01*
X106553000Y-120593750D01*
X106807000Y-120593750D01*
X106807000Y-121793000D01*
X109093000Y-121793000D01*
X109093000Y-120599186D01*
X109347000Y-120599186D01*
X109347000Y-121793000D01*
X110540155Y-121793000D01*
X110661476Y-121563110D01*
X110616825Y-121415901D01*
X110491641Y-121153080D01*
X110317588Y-120919731D01*
X110101355Y-120724822D01*
X109851252Y-120575843D01*
X109576891Y-120478519D01*
X109347000Y-120599186D01*
X109093000Y-120599186D01*
X108863109Y-120478519D01*
X108588748Y-120575843D01*
X108338645Y-120724822D01*
X108142498Y-120901626D01*
X108119502Y-120825820D01*
X108060537Y-120715506D01*
X107981185Y-120618815D01*
X107884494Y-120539463D01*
X107774180Y-120480498D01*
X107654482Y-120444188D01*
X107530000Y-120431928D01*
X106965750Y-120435000D01*
X106807000Y-120593750D01*
X106553000Y-120593750D01*
X106394250Y-120435000D01*
X105830000Y-120431928D01*
X105705518Y-120444188D01*
X105585820Y-120480498D01*
X105475506Y-120539463D01*
X105378815Y-120618815D01*
X105299463Y-120715506D01*
X105240498Y-120825820D01*
X105204188Y-120945518D01*
X105191928Y-121070000D01*
X102818043Y-121070000D01*
X102753475Y-120973368D01*
X102546632Y-120766525D01*
X102303411Y-120604010D01*
X102033158Y-120492068D01*
X101746260Y-120435000D01*
X101453740Y-120435000D01*
X101166842Y-120492068D01*
X100896589Y-120604010D01*
X100653368Y-120766525D01*
X100521513Y-120898380D01*
X100499502Y-120825820D01*
X100440537Y-120715506D01*
X100361185Y-120618815D01*
X100264494Y-120539463D01*
X100154180Y-120480498D01*
X100034482Y-120444188D01*
X99910000Y-120431928D01*
X98210000Y-120431928D01*
X98085518Y-120444188D01*
X97965820Y-120480498D01*
X97855506Y-120539463D01*
X97758815Y-120618815D01*
X97679463Y-120715506D01*
X97620498Y-120825820D01*
X97584188Y-120945518D01*
X97571928Y-121070000D01*
X95697387Y-121070000D01*
X95420883Y-121015000D01*
X95079117Y-121015000D01*
X94743919Y-121081675D01*
X94428169Y-121212463D01*
X94144002Y-121402337D01*
X93902337Y-121644002D01*
X93712463Y-121928169D01*
X93581675Y-122243919D01*
X93515000Y-122579117D01*
X92774337Y-122579117D01*
X92867932Y-122353158D01*
X92925000Y-122066260D01*
X92925000Y-121773740D01*
X92867932Y-121486842D01*
X92755990Y-121216589D01*
X92593475Y-120973368D01*
X92386632Y-120766525D01*
X92143411Y-120604010D01*
X91873158Y-120492068D01*
X91586260Y-120435000D01*
X91293740Y-120435000D01*
X91006842Y-120492068D01*
X90736589Y-120604010D01*
X90493368Y-120766525D01*
X90286525Y-120973368D01*
X90124010Y-121216589D01*
X90012068Y-121486842D01*
X89955000Y-121773740D01*
X89955000Y-122066260D01*
X90012068Y-122353158D01*
X90124010Y-122623411D01*
X90286525Y-122866632D01*
X90493368Y-123073475D01*
X90667760Y-123190000D01*
X90493368Y-123306525D01*
X90286525Y-123513368D01*
X90124010Y-123756589D01*
X90012068Y-124026842D01*
X89955000Y-124313740D01*
X89955000Y-124606260D01*
X90012068Y-124893158D01*
X90124010Y-125163411D01*
X90286525Y-125406632D01*
X90493368Y-125613475D01*
X90667760Y-125730000D01*
X90493368Y-125846525D01*
X90286525Y-126053368D01*
X90124010Y-126296589D01*
X90012068Y-126566842D01*
X89955000Y-126853740D01*
X89955000Y-127146260D01*
X90012068Y-127433158D01*
X90124010Y-127703411D01*
X90286525Y-127946632D01*
X90493368Y-128153475D01*
X90667760Y-128270000D01*
X90493368Y-128386525D01*
X90286525Y-128593368D01*
X90124010Y-128836589D01*
X90012068Y-129106842D01*
X89955000Y-129393740D01*
X89955000Y-129686260D01*
X90012068Y-129973158D01*
X90124010Y-130243411D01*
X90286525Y-130486632D01*
X90493368Y-130693475D01*
X90667760Y-130810000D01*
X90493368Y-130926525D01*
X90286525Y-131133368D01*
X90124010Y-131376589D01*
X90012068Y-131646842D01*
X89955000Y-131933740D01*
X89955000Y-132226260D01*
X90012068Y-132513158D01*
X90124010Y-132783411D01*
X90286525Y-133026632D01*
X90493368Y-133233475D01*
X90667760Y-133350000D01*
X90493368Y-133466525D01*
X90286525Y-133673368D01*
X90124010Y-133916589D01*
X90012068Y-134186842D01*
X89955000Y-134473740D01*
X89955000Y-134766260D01*
X90012068Y-135053158D01*
X90124010Y-135323411D01*
X90286525Y-135566632D01*
X90493368Y-135773475D01*
X90667760Y-135890000D01*
X90493368Y-136006525D01*
X90286525Y-136213368D01*
X90124010Y-136456589D01*
X90012068Y-136726842D01*
X89955000Y-137013740D01*
X89955000Y-137306260D01*
X90012068Y-137593158D01*
X90124010Y-137863411D01*
X90286525Y-138106632D01*
X90418380Y-138238487D01*
X90345820Y-138260498D01*
X90235506Y-138319463D01*
X90138815Y-138398815D01*
X90059463Y-138495506D01*
X90000498Y-138605820D01*
X89964188Y-138725518D01*
X89951928Y-138850000D01*
X87020000Y-138850000D01*
X87020000Y-120040000D01*
X111633000Y-120040000D01*
X111633000Y-132080000D01*
G37*
%TD.AperFunction*%
%TD*%
M02*
