%TF.GenerationSoftware,KiCad,Pcbnew,5.1.12-84ad8e8a86~92~ubuntu21.04.1*%
%TF.CreationDate,2021-11-23T21:41:36+01:00*%
%TF.ProjectId,main,6d61696e-2e6b-4696-9361-645f70636258,rev?*%
%TF.SameCoordinates,Original*%
%TF.FileFunction,Copper,L1,Top*%
%TF.FilePolarity,Positive*%
%FSLAX46Y46*%
G04 Gerber Fmt 4.6, Leading zero omitted, Abs format (unit mm)*
G04 Created by KiCad (PCBNEW 5.1.12-84ad8e8a86~92~ubuntu21.04.1) date 2021-11-23 21:41:36*
%MOMM*%
%LPD*%
G01*
G04 APERTURE LIST*
%TA.AperFunction,SMDPad,CuDef*%
%ADD10R,2.400000X0.740000*%
%TD*%
%TA.AperFunction,ComponentPad*%
%ADD11O,1.117600X2.616200*%
%TD*%
%TA.AperFunction,ComponentPad*%
%ADD12O,1.117600X1.905000*%
%TD*%
%TA.AperFunction,ComponentPad*%
%ADD13C,0.660400*%
%TD*%
%TA.AperFunction,ComponentPad*%
%ADD14C,2.000000*%
%TD*%
%TA.AperFunction,ComponentPad*%
%ADD15R,3.000000X2.500000*%
%TD*%
%TA.AperFunction,ComponentPad*%
%ADD16R,2.000000X2.000000*%
%TD*%
%TA.AperFunction,SMDPad,CuDef*%
%ADD17R,1.000001X0.599999*%
%TD*%
%TA.AperFunction,ComponentPad*%
%ADD18O,1.700000X1.700000*%
%TD*%
%TA.AperFunction,ComponentPad*%
%ADD19R,1.700000X1.700000*%
%TD*%
%TA.AperFunction,SMDPad,CuDef*%
%ADD20R,0.508000X1.473200*%
%TD*%
%TA.AperFunction,SMDPad,CuDef*%
%ADD21R,1.473200X0.508000*%
%TD*%
%TA.AperFunction,SMDPad,CuDef*%
%ADD22R,1.300000X1.550000*%
%TD*%
%TA.AperFunction,SMDPad,CuDef*%
%ADD23R,1.800000X3.500000*%
%TD*%
%TA.AperFunction,SMDPad,CuDef*%
%ADD24R,0.800000X0.900000*%
%TD*%
%TA.AperFunction,ViaPad*%
%ADD25C,0.800000*%
%TD*%
%TA.AperFunction,Conductor*%
%ADD26C,0.600000*%
%TD*%
%TA.AperFunction,Conductor*%
%ADD27C,0.200000*%
%TD*%
%TA.AperFunction,Conductor*%
%ADD28C,0.254000*%
%TD*%
%TA.AperFunction,Conductor*%
%ADD29C,0.100000*%
%TD*%
G04 APERTURE END LIST*
D10*
%TO.P,J2,10*%
%TO.N,Net-(J2-Pad10)*%
X112350000Y-139446000D03*
%TO.P,J2,9*%
%TO.N,Net-(J2-Pad9)*%
X116250000Y-139446000D03*
%TO.P,J2,8*%
%TO.N,Net-(J2-Pad8)*%
X112350000Y-140716000D03*
%TO.P,J2,7*%
%TO.N,Net-(J2-Pad7)*%
X116250000Y-140716000D03*
%TO.P,J2,6*%
%TO.N,Net-(J2-Pad6)*%
X112350000Y-141986000D03*
%TO.P,J2,5*%
%TO.N,GND*%
X116250000Y-141986000D03*
%TO.P,J2,4*%
%TO.N,Net-(J2-Pad4)*%
X112350000Y-143256000D03*
%TO.P,J2,3*%
%TO.N,GND*%
X116250000Y-143256000D03*
%TO.P,J2,2*%
%TO.N,Net-(J2-Pad2)*%
X112350000Y-144526000D03*
%TO.P,J2,1*%
%TO.N,+3V3*%
X116250000Y-144526000D03*
%TD*%
D11*
%TO.P,J4,18*%
%TO.N,GND*%
X117276971Y-124140000D03*
%TO.P,J4,17*%
%TO.N,Net-(J4-Pad17)*%
X125926956Y-124139999D03*
D12*
%TO.P,J4,20*%
%TO.N,Net-(J4-Pad20)*%
X117276971Y-120755000D03*
%TO.P,J4,19*%
%TO.N,Net-(J4-Pad19)*%
X125926941Y-120755000D03*
D13*
%TO.P,J4,16*%
%TO.N,GND*%
X118626955Y-123770000D03*
%TO.P,J4,15*%
%TO.N,/Power supply/V_USB*%
X119476956Y-123770000D03*
%TO.P,J4,14*%
%TO.N,Net-(J4-Pad14)*%
X120326954Y-123770000D03*
%TO.P,J4,13*%
%TO.N,/USB port/USB_D+*%
X121176955Y-123770000D03*
%TO.P,J4,12*%
%TO.N,/USB port/USB_D-*%
X122026956Y-123770000D03*
%TO.P,J4,11*%
%TO.N,Net-(J4-Pad11)*%
X122876957Y-123770000D03*
%TO.P,J4,10*%
%TO.N,/Power supply/V_USB*%
X123726955Y-123770000D03*
%TO.P,J4,9*%
%TO.N,GND*%
X124576956Y-123770000D03*
%TO.P,J4,8*%
X118626955Y-125120000D03*
%TO.P,J4,7*%
%TO.N,/Power supply/V_USB*%
X119476956Y-125120000D03*
%TO.P,J4,6*%
%TO.N,Net-(J4-Pad6)*%
X120326954Y-125120000D03*
%TO.P,J4,5*%
%TO.N,/USB port/USB_D-*%
X121176955Y-125120000D03*
%TO.P,J4,4*%
%TO.N,/USB port/USB_D+*%
X122026956Y-125120000D03*
%TO.P,J4,3*%
%TO.N,Net-(J4-Pad3)*%
X122876957Y-125120000D03*
%TO.P,J4,2*%
%TO.N,/Power supply/V_USB*%
X123726955Y-125120000D03*
%TO.P,J4,1*%
%TO.N,GND*%
X124576956Y-125120000D03*
%TD*%
D14*
%TO.P,SW3,S2*%
%TO.N,GND*%
X154200000Y-162480000D03*
%TO.P,SW3,S1*%
%TO.N,Net-(R18-Pad1)*%
X154200000Y-157480000D03*
D15*
%TO.P,SW3,MP*%
%TO.N,N/C*%
X147200000Y-165580000D03*
X147200000Y-154380000D03*
D14*
%TO.P,SW3,B*%
%TO.N,Net-(R14-Pad1)*%
X139700000Y-162480000D03*
%TO.P,SW3,C*%
%TO.N,GND*%
X139700000Y-159980000D03*
D16*
%TO.P,SW3,A*%
%TO.N,Net-(R15-Pad1)*%
X139700000Y-157480000D03*
%TD*%
%TO.P,R15,2*%
%TO.N,+3V3*%
%TA.AperFunction,SMDPad,CuDef*%
G36*
G01*
X133237500Y-162135000D02*
X132762500Y-162135000D01*
G75*
G02*
X132525000Y-161897500I0J237500D01*
G01*
X132525000Y-161397500D01*
G75*
G02*
X132762500Y-161160000I237500J0D01*
G01*
X133237500Y-161160000D01*
G75*
G02*
X133475000Y-161397500I0J-237500D01*
G01*
X133475000Y-161897500D01*
G75*
G02*
X133237500Y-162135000I-237500J0D01*
G01*
G37*
%TD.AperFunction*%
%TO.P,R15,1*%
%TO.N,Net-(R15-Pad1)*%
%TA.AperFunction,SMDPad,CuDef*%
G36*
G01*
X133237500Y-163960000D02*
X132762500Y-163960000D01*
G75*
G02*
X132525000Y-163722500I0J237500D01*
G01*
X132525000Y-163222500D01*
G75*
G02*
X132762500Y-162985000I237500J0D01*
G01*
X133237500Y-162985000D01*
G75*
G02*
X133475000Y-163222500I0J-237500D01*
G01*
X133475000Y-163722500D01*
G75*
G02*
X133237500Y-163960000I-237500J0D01*
G01*
G37*
%TD.AperFunction*%
%TD*%
%TO.P,R14,2*%
%TO.N,+3V3*%
%TA.AperFunction,SMDPad,CuDef*%
G36*
G01*
X137397500Y-162135000D02*
X136922500Y-162135000D01*
G75*
G02*
X136685000Y-161897500I0J237500D01*
G01*
X136685000Y-161397500D01*
G75*
G02*
X136922500Y-161160000I237500J0D01*
G01*
X137397500Y-161160000D01*
G75*
G02*
X137635000Y-161397500I0J-237500D01*
G01*
X137635000Y-161897500D01*
G75*
G02*
X137397500Y-162135000I-237500J0D01*
G01*
G37*
%TD.AperFunction*%
%TO.P,R14,1*%
%TO.N,Net-(R14-Pad1)*%
%TA.AperFunction,SMDPad,CuDef*%
G36*
G01*
X137397500Y-163960000D02*
X136922500Y-163960000D01*
G75*
G02*
X136685000Y-163722500I0J237500D01*
G01*
X136685000Y-163222500D01*
G75*
G02*
X136922500Y-162985000I237500J0D01*
G01*
X137397500Y-162985000D01*
G75*
G02*
X137635000Y-163222500I0J-237500D01*
G01*
X137635000Y-163722500D01*
G75*
G02*
X137397500Y-163960000I-237500J0D01*
G01*
G37*
%TD.AperFunction*%
%TD*%
D17*
%TO.P,U2,5*%
%TO.N,Net-(C8-Pad1)*%
X125625001Y-135570001D03*
%TO.P,U2,4*%
%TO.N,Net-(U2-Pad4)*%
X125625001Y-133670002D03*
%TO.P,U2,3*%
%TO.N,/Power supply/V_USB*%
X128375001Y-133670002D03*
%TO.P,U2,2*%
%TO.N,GND*%
X128375001Y-134620000D03*
%TO.P,U2,1*%
%TO.N,/Power supply/V_USB*%
X128375001Y-135570001D03*
%TD*%
D18*
%TO.P,JP2,2*%
%TO.N,Net-(C8-Pad1)*%
X101600000Y-129540000D03*
D19*
%TO.P,JP2,1*%
%TO.N,+3V3*%
X99060000Y-129540000D03*
%TD*%
D18*
%TO.P,JP1,2*%
%TO.N,/Power supply/V_USB*%
X139700000Y-129540000D03*
D19*
%TO.P,JP1,1*%
%TO.N,+5V*%
X142240000Y-129540000D03*
%TD*%
D20*
%TO.P,U1,32*%
%TO.N,Net-(J2-Pad2)*%
X119668451Y-155901001D03*
%TO.P,U1,31*%
%TO.N,Net-(J2-Pad4)*%
X120468451Y-155901001D03*
%TO.P,U1,30*%
%TO.N,+3V3*%
X121268450Y-155901001D03*
%TO.P,U1,29*%
%TO.N,Net-(C3-Pad1)*%
X122068451Y-155901001D03*
%TO.P,U1,28*%
%TO.N,GND*%
X122868449Y-155901001D03*
%TO.P,U1,27*%
%TO.N,Net-(U1-Pad27)*%
X123668450Y-155901001D03*
%TO.P,U1,26*%
%TO.N,Net-(C2-Pad2)*%
X124468451Y-155901001D03*
%TO.P,U1,25*%
%TO.N,/USB port/USB_D+*%
X125268449Y-155901001D03*
D21*
%TO.P,U1,24*%
%TO.N,/USB port/USB_D-*%
X126587449Y-157220001D03*
%TO.P,U1,23*%
%TO.N,Net-(J3-Pad2)*%
X126587449Y-158020001D03*
%TO.P,U1,22*%
%TO.N,Net-(J3-Pad3)*%
X126587449Y-158820000D03*
%TO.P,U1,21*%
%TO.N,Net-(J3-Pad4)*%
X126587449Y-159620001D03*
%TO.P,U1,20*%
%TO.N,Net-(J3-Pad5)*%
X126587449Y-160419999D03*
%TO.P,U1,19*%
%TO.N,Net-(J3-Pad6)*%
X126587449Y-161220000D03*
%TO.P,U1,18*%
%TO.N,Net-(J3-Pad7)*%
X126587449Y-162020001D03*
%TO.P,U1,17*%
%TO.N,Net-(J3-Pad8)*%
X126587449Y-162819999D03*
D20*
%TO.P,U1,16*%
%TO.N,/UI.sch/RC_Right_A*%
X125268449Y-164138999D03*
%TO.P,U1,15*%
%TO.N,/UI.sch/RC_Right_B*%
X124468449Y-164138999D03*
%TO.P,U1,14*%
%TO.N,/UI.sch/SW_Right*%
X123668450Y-164138999D03*
%TO.P,U1,13*%
%TO.N,/UI.sch/SW_Left*%
X122868449Y-164138999D03*
%TO.P,U1,12*%
%TO.N,/UI.sch/RC_Left_A*%
X122068451Y-164138999D03*
%TO.P,U1,11*%
%TO.N,/UI.sch/RC_Left_B*%
X121268450Y-164138999D03*
%TO.P,U1,10*%
%TO.N,GND*%
X120468449Y-164138999D03*
%TO.P,U1,9*%
%TO.N,+3.3VA*%
X119668451Y-164138999D03*
D21*
%TO.P,U1,8*%
%TO.N,Net-(J1-Pad1)*%
X118349451Y-162819999D03*
%TO.P,U1,7*%
%TO.N,Net-(J1-Pad2)*%
X118349451Y-162019999D03*
%TO.P,U1,6*%
%TO.N,Net-(J1-Pad3)*%
X118349451Y-161220000D03*
%TO.P,U1,5*%
%TO.N,Net-(J1-Pad4)*%
X118349451Y-160419999D03*
%TO.P,U1,4*%
%TO.N,Net-(J1-Pad5)*%
X118349451Y-159620001D03*
%TO.P,U1,3*%
%TO.N,Net-(J1-Pad6)*%
X118349451Y-158820000D03*
%TO.P,U1,2*%
%TO.N,Net-(J1-Pad7)*%
X118349451Y-158019999D03*
%TO.P,U1,1*%
%TO.N,Net-(J1-Pad8)*%
X118349451Y-157220001D03*
%TD*%
D14*
%TO.P,SW2,S2*%
%TO.N,GND*%
X89640000Y-157560000D03*
%TO.P,SW2,S1*%
%TO.N,Net-(R12-Pad1)*%
X89640000Y-162560000D03*
D15*
%TO.P,SW2,MP*%
%TO.N,N/C*%
X96640000Y-154460000D03*
X96640000Y-165660000D03*
D14*
%TO.P,SW2,B*%
%TO.N,Net-(R10-Pad2)*%
X104140000Y-157560000D03*
%TO.P,SW2,C*%
%TO.N,GND*%
X104140000Y-160060000D03*
D16*
%TO.P,SW2,A*%
%TO.N,Net-(R11-Pad2)*%
X104140000Y-162560000D03*
%TD*%
D22*
%TO.P,SW1,2*%
%TO.N,GND*%
X102144000Y-146723000D03*
%TO.P,SW1,1*%
%TO.N,Net-(J2-Pad10)*%
X106644000Y-146723000D03*
X106644000Y-138773000D03*
%TO.P,SW1,2*%
%TO.N,GND*%
X102144000Y-138773000D03*
%TD*%
%TO.P,R19,2*%
%TO.N,Net-(R18-Pad1)*%
%TA.AperFunction,SMDPad,CuDef*%
G36*
G01*
X154475000Y-168385500D02*
X154475000Y-167910500D01*
G75*
G02*
X154712500Y-167673000I237500J0D01*
G01*
X155212500Y-167673000D01*
G75*
G02*
X155450000Y-167910500I0J-237500D01*
G01*
X155450000Y-168385500D01*
G75*
G02*
X155212500Y-168623000I-237500J0D01*
G01*
X154712500Y-168623000D01*
G75*
G02*
X154475000Y-168385500I0J237500D01*
G01*
G37*
%TD.AperFunction*%
%TO.P,R19,1*%
%TO.N,+3V3*%
%TA.AperFunction,SMDPad,CuDef*%
G36*
G01*
X152650000Y-168385500D02*
X152650000Y-167910500D01*
G75*
G02*
X152887500Y-167673000I237500J0D01*
G01*
X153387500Y-167673000D01*
G75*
G02*
X153625000Y-167910500I0J-237500D01*
G01*
X153625000Y-168385500D01*
G75*
G02*
X153387500Y-168623000I-237500J0D01*
G01*
X152887500Y-168623000D01*
G75*
G02*
X152650000Y-168385500I0J237500D01*
G01*
G37*
%TD.AperFunction*%
%TD*%
%TO.P,R18,2*%
%TO.N,/UI.sch/SW_Right*%
%TA.AperFunction,SMDPad,CuDef*%
G36*
G01*
X150082750Y-167910500D02*
X150082750Y-168385500D01*
G75*
G02*
X149845250Y-168623000I-237500J0D01*
G01*
X149345250Y-168623000D01*
G75*
G02*
X149107750Y-168385500I0J237500D01*
G01*
X149107750Y-167910500D01*
G75*
G02*
X149345250Y-167673000I237500J0D01*
G01*
X149845250Y-167673000D01*
G75*
G02*
X150082750Y-167910500I0J-237500D01*
G01*
G37*
%TD.AperFunction*%
%TO.P,R18,1*%
%TO.N,Net-(R18-Pad1)*%
%TA.AperFunction,SMDPad,CuDef*%
G36*
G01*
X151907750Y-167910500D02*
X151907750Y-168385500D01*
G75*
G02*
X151670250Y-168623000I-237500J0D01*
G01*
X151170250Y-168623000D01*
G75*
G02*
X150932750Y-168385500I0J237500D01*
G01*
X150932750Y-167910500D01*
G75*
G02*
X151170250Y-167673000I237500J0D01*
G01*
X151670250Y-167673000D01*
G75*
G02*
X151907750Y-167910500I0J-237500D01*
G01*
G37*
%TD.AperFunction*%
%TD*%
%TO.P,R17,2*%
%TO.N,Net-(R15-Pad1)*%
%TA.AperFunction,SMDPad,CuDef*%
G36*
G01*
X132505000Y-165337500D02*
X132505000Y-164862500D01*
G75*
G02*
X132742500Y-164625000I237500J0D01*
G01*
X133242500Y-164625000D01*
G75*
G02*
X133480000Y-164862500I0J-237500D01*
G01*
X133480000Y-165337500D01*
G75*
G02*
X133242500Y-165575000I-237500J0D01*
G01*
X132742500Y-165575000D01*
G75*
G02*
X132505000Y-165337500I0J237500D01*
G01*
G37*
%TD.AperFunction*%
%TO.P,R17,1*%
%TO.N,/UI.sch/RC_Right_A*%
%TA.AperFunction,SMDPad,CuDef*%
G36*
G01*
X130680000Y-165337500D02*
X130680000Y-164862500D01*
G75*
G02*
X130917500Y-164625000I237500J0D01*
G01*
X131417500Y-164625000D01*
G75*
G02*
X131655000Y-164862500I0J-237500D01*
G01*
X131655000Y-165337500D01*
G75*
G02*
X131417500Y-165575000I-237500J0D01*
G01*
X130917500Y-165575000D01*
G75*
G02*
X130680000Y-165337500I0J237500D01*
G01*
G37*
%TD.AperFunction*%
%TD*%
%TO.P,R16,2*%
%TO.N,Net-(R14-Pad1)*%
%TA.AperFunction,SMDPad,CuDef*%
G36*
G01*
X136665000Y-165337500D02*
X136665000Y-164862500D01*
G75*
G02*
X136902500Y-164625000I237500J0D01*
G01*
X137402500Y-164625000D01*
G75*
G02*
X137640000Y-164862500I0J-237500D01*
G01*
X137640000Y-165337500D01*
G75*
G02*
X137402500Y-165575000I-237500J0D01*
G01*
X136902500Y-165575000D01*
G75*
G02*
X136665000Y-165337500I0J237500D01*
G01*
G37*
%TD.AperFunction*%
%TO.P,R16,1*%
%TO.N,/UI.sch/RC_Right_B*%
%TA.AperFunction,SMDPad,CuDef*%
G36*
G01*
X134840000Y-165337500D02*
X134840000Y-164862500D01*
G75*
G02*
X135077500Y-164625000I237500J0D01*
G01*
X135577500Y-164625000D01*
G75*
G02*
X135815000Y-164862500I0J-237500D01*
G01*
X135815000Y-165337500D01*
G75*
G02*
X135577500Y-165575000I-237500J0D01*
G01*
X135077500Y-165575000D01*
G75*
G02*
X134840000Y-165337500I0J237500D01*
G01*
G37*
%TD.AperFunction*%
%TD*%
%TO.P,R13,2*%
%TO.N,Net-(R12-Pad1)*%
%TA.AperFunction,SMDPad,CuDef*%
G36*
G01*
X89340500Y-167910500D02*
X89340500Y-168385500D01*
G75*
G02*
X89103000Y-168623000I-237500J0D01*
G01*
X88603000Y-168623000D01*
G75*
G02*
X88365500Y-168385500I0J237500D01*
G01*
X88365500Y-167910500D01*
G75*
G02*
X88603000Y-167673000I237500J0D01*
G01*
X89103000Y-167673000D01*
G75*
G02*
X89340500Y-167910500I0J-237500D01*
G01*
G37*
%TD.AperFunction*%
%TO.P,R13,1*%
%TO.N,+3V3*%
%TA.AperFunction,SMDPad,CuDef*%
G36*
G01*
X91165500Y-167910500D02*
X91165500Y-168385500D01*
G75*
G02*
X90928000Y-168623000I-237500J0D01*
G01*
X90428000Y-168623000D01*
G75*
G02*
X90190500Y-168385500I0J237500D01*
G01*
X90190500Y-167910500D01*
G75*
G02*
X90428000Y-167673000I237500J0D01*
G01*
X90928000Y-167673000D01*
G75*
G02*
X91165500Y-167910500I0J-237500D01*
G01*
G37*
%TD.AperFunction*%
%TD*%
%TO.P,R12,2*%
%TO.N,/UI.sch/SW_Left*%
%TA.AperFunction,SMDPad,CuDef*%
G36*
G01*
X93821750Y-168385500D02*
X93821750Y-167910500D01*
G75*
G02*
X94059250Y-167673000I237500J0D01*
G01*
X94559250Y-167673000D01*
G75*
G02*
X94796750Y-167910500I0J-237500D01*
G01*
X94796750Y-168385500D01*
G75*
G02*
X94559250Y-168623000I-237500J0D01*
G01*
X94059250Y-168623000D01*
G75*
G02*
X93821750Y-168385500I0J237500D01*
G01*
G37*
%TD.AperFunction*%
%TO.P,R12,1*%
%TO.N,Net-(R12-Pad1)*%
%TA.AperFunction,SMDPad,CuDef*%
G36*
G01*
X91996750Y-168385500D02*
X91996750Y-167910500D01*
G75*
G02*
X92234250Y-167673000I237500J0D01*
G01*
X92734250Y-167673000D01*
G75*
G02*
X92971750Y-167910500I0J-237500D01*
G01*
X92971750Y-168385500D01*
G75*
G02*
X92734250Y-168623000I-237500J0D01*
G01*
X92234250Y-168623000D01*
G75*
G02*
X91996750Y-168385500I0J237500D01*
G01*
G37*
%TD.AperFunction*%
%TD*%
%TO.P,R11,2*%
%TO.N,Net-(R11-Pad2)*%
%TA.AperFunction,SMDPad,CuDef*%
G36*
G01*
X107175000Y-164862500D02*
X107175000Y-165337500D01*
G75*
G02*
X106937500Y-165575000I-237500J0D01*
G01*
X106437500Y-165575000D01*
G75*
G02*
X106200000Y-165337500I0J237500D01*
G01*
X106200000Y-164862500D01*
G75*
G02*
X106437500Y-164625000I237500J0D01*
G01*
X106937500Y-164625000D01*
G75*
G02*
X107175000Y-164862500I0J-237500D01*
G01*
G37*
%TD.AperFunction*%
%TO.P,R11,1*%
%TO.N,/UI.sch/RC_Left_A*%
%TA.AperFunction,SMDPad,CuDef*%
G36*
G01*
X109000000Y-164862500D02*
X109000000Y-165337500D01*
G75*
G02*
X108762500Y-165575000I-237500J0D01*
G01*
X108262500Y-165575000D01*
G75*
G02*
X108025000Y-165337500I0J237500D01*
G01*
X108025000Y-164862500D01*
G75*
G02*
X108262500Y-164625000I237500J0D01*
G01*
X108762500Y-164625000D01*
G75*
G02*
X109000000Y-164862500I0J-237500D01*
G01*
G37*
%TD.AperFunction*%
%TD*%
%TO.P,R10,2*%
%TO.N,Net-(R10-Pad2)*%
%TA.AperFunction,SMDPad,CuDef*%
G36*
G01*
X111600000Y-164862500D02*
X111600000Y-165337500D01*
G75*
G02*
X111362500Y-165575000I-237500J0D01*
G01*
X110862500Y-165575000D01*
G75*
G02*
X110625000Y-165337500I0J237500D01*
G01*
X110625000Y-164862500D01*
G75*
G02*
X110862500Y-164625000I237500J0D01*
G01*
X111362500Y-164625000D01*
G75*
G02*
X111600000Y-164862500I0J-237500D01*
G01*
G37*
%TD.AperFunction*%
%TO.P,R10,1*%
%TO.N,/UI.sch/RC_Left_B*%
%TA.AperFunction,SMDPad,CuDef*%
G36*
G01*
X113425000Y-164862500D02*
X113425000Y-165337500D01*
G75*
G02*
X113187500Y-165575000I-237500J0D01*
G01*
X112687500Y-165575000D01*
G75*
G02*
X112450000Y-165337500I0J237500D01*
G01*
X112450000Y-164862500D01*
G75*
G02*
X112687500Y-164625000I237500J0D01*
G01*
X113187500Y-164625000D01*
G75*
G02*
X113425000Y-164862500I0J-237500D01*
G01*
G37*
%TD.AperFunction*%
%TD*%
%TO.P,R9,2*%
%TO.N,+3V3*%
%TA.AperFunction,SMDPad,CuDef*%
G36*
G01*
X106912500Y-162135000D02*
X106437500Y-162135000D01*
G75*
G02*
X106200000Y-161897500I0J237500D01*
G01*
X106200000Y-161397500D01*
G75*
G02*
X106437500Y-161160000I237500J0D01*
G01*
X106912500Y-161160000D01*
G75*
G02*
X107150000Y-161397500I0J-237500D01*
G01*
X107150000Y-161897500D01*
G75*
G02*
X106912500Y-162135000I-237500J0D01*
G01*
G37*
%TD.AperFunction*%
%TO.P,R9,1*%
%TO.N,Net-(R11-Pad2)*%
%TA.AperFunction,SMDPad,CuDef*%
G36*
G01*
X106912500Y-163960000D02*
X106437500Y-163960000D01*
G75*
G02*
X106200000Y-163722500I0J237500D01*
G01*
X106200000Y-163222500D01*
G75*
G02*
X106437500Y-162985000I237500J0D01*
G01*
X106912500Y-162985000D01*
G75*
G02*
X107150000Y-163222500I0J-237500D01*
G01*
X107150000Y-163722500D01*
G75*
G02*
X106912500Y-163960000I-237500J0D01*
G01*
G37*
%TD.AperFunction*%
%TD*%
%TO.P,R8,2*%
%TO.N,+3V3*%
%TA.AperFunction,SMDPad,CuDef*%
G36*
G01*
X111362500Y-162135000D02*
X110887500Y-162135000D01*
G75*
G02*
X110650000Y-161897500I0J237500D01*
G01*
X110650000Y-161397500D01*
G75*
G02*
X110887500Y-161160000I237500J0D01*
G01*
X111362500Y-161160000D01*
G75*
G02*
X111600000Y-161397500I0J-237500D01*
G01*
X111600000Y-161897500D01*
G75*
G02*
X111362500Y-162135000I-237500J0D01*
G01*
G37*
%TD.AperFunction*%
%TO.P,R8,1*%
%TO.N,Net-(R10-Pad2)*%
%TA.AperFunction,SMDPad,CuDef*%
G36*
G01*
X111362500Y-163960000D02*
X110887500Y-163960000D01*
G75*
G02*
X110650000Y-163722500I0J237500D01*
G01*
X110650000Y-163222500D01*
G75*
G02*
X110887500Y-162985000I237500J0D01*
G01*
X111362500Y-162985000D01*
G75*
G02*
X111600000Y-163222500I0J-237500D01*
G01*
X111600000Y-163722500D01*
G75*
G02*
X111362500Y-163960000I-237500J0D01*
G01*
G37*
%TD.AperFunction*%
%TD*%
%TO.P,R7,2*%
%TO.N,Net-(R5-Pad1)*%
%TA.AperFunction,SMDPad,CuDef*%
G36*
G01*
X128253500Y-124543000D02*
X127778500Y-124543000D01*
G75*
G02*
X127541000Y-124305500I0J237500D01*
G01*
X127541000Y-123805500D01*
G75*
G02*
X127778500Y-123568000I237500J0D01*
G01*
X128253500Y-123568000D01*
G75*
G02*
X128491000Y-123805500I0J-237500D01*
G01*
X128491000Y-124305500D01*
G75*
G02*
X128253500Y-124543000I-237500J0D01*
G01*
G37*
%TD.AperFunction*%
%TO.P,R7,1*%
%TO.N,GND*%
%TA.AperFunction,SMDPad,CuDef*%
G36*
G01*
X128253500Y-126368000D02*
X127778500Y-126368000D01*
G75*
G02*
X127541000Y-126130500I0J237500D01*
G01*
X127541000Y-125630500D01*
G75*
G02*
X127778500Y-125393000I237500J0D01*
G01*
X128253500Y-125393000D01*
G75*
G02*
X128491000Y-125630500I0J-237500D01*
G01*
X128491000Y-126130500D01*
G75*
G02*
X128253500Y-126368000I-237500J0D01*
G01*
G37*
%TD.AperFunction*%
%TD*%
%TO.P,R6,2*%
%TO.N,Net-(R4-Pad1)*%
%TA.AperFunction,SMDPad,CuDef*%
G36*
G01*
X131301500Y-124543000D02*
X130826500Y-124543000D01*
G75*
G02*
X130589000Y-124305500I0J237500D01*
G01*
X130589000Y-123805500D01*
G75*
G02*
X130826500Y-123568000I237500J0D01*
G01*
X131301500Y-123568000D01*
G75*
G02*
X131539000Y-123805500I0J-237500D01*
G01*
X131539000Y-124305500D01*
G75*
G02*
X131301500Y-124543000I-237500J0D01*
G01*
G37*
%TD.AperFunction*%
%TO.P,R6,1*%
%TO.N,GND*%
%TA.AperFunction,SMDPad,CuDef*%
G36*
G01*
X131301500Y-126368000D02*
X130826500Y-126368000D01*
G75*
G02*
X130589000Y-126130500I0J237500D01*
G01*
X130589000Y-125630500D01*
G75*
G02*
X130826500Y-125393000I237500J0D01*
G01*
X131301500Y-125393000D01*
G75*
G02*
X131539000Y-125630500I0J-237500D01*
G01*
X131539000Y-126130500D01*
G75*
G02*
X131301500Y-126368000I-237500J0D01*
G01*
G37*
%TD.AperFunction*%
%TD*%
%TO.P,R5,2*%
%TO.N,Net-(J4-Pad14)*%
%TA.AperFunction,SMDPad,CuDef*%
G36*
G01*
X128253500Y-120987000D02*
X127778500Y-120987000D01*
G75*
G02*
X127541000Y-120749500I0J237500D01*
G01*
X127541000Y-120249500D01*
G75*
G02*
X127778500Y-120012000I237500J0D01*
G01*
X128253500Y-120012000D01*
G75*
G02*
X128491000Y-120249500I0J-237500D01*
G01*
X128491000Y-120749500D01*
G75*
G02*
X128253500Y-120987000I-237500J0D01*
G01*
G37*
%TD.AperFunction*%
%TO.P,R5,1*%
%TO.N,Net-(R5-Pad1)*%
%TA.AperFunction,SMDPad,CuDef*%
G36*
G01*
X128253500Y-122812000D02*
X127778500Y-122812000D01*
G75*
G02*
X127541000Y-122574500I0J237500D01*
G01*
X127541000Y-122074500D01*
G75*
G02*
X127778500Y-121837000I237500J0D01*
G01*
X128253500Y-121837000D01*
G75*
G02*
X128491000Y-122074500I0J-237500D01*
G01*
X128491000Y-122574500D01*
G75*
G02*
X128253500Y-122812000I-237500J0D01*
G01*
G37*
%TD.AperFunction*%
%TD*%
%TO.P,R4,2*%
%TO.N,Net-(J4-Pad3)*%
%TA.AperFunction,SMDPad,CuDef*%
G36*
G01*
X131301500Y-120987000D02*
X130826500Y-120987000D01*
G75*
G02*
X130589000Y-120749500I0J237500D01*
G01*
X130589000Y-120249500D01*
G75*
G02*
X130826500Y-120012000I237500J0D01*
G01*
X131301500Y-120012000D01*
G75*
G02*
X131539000Y-120249500I0J-237500D01*
G01*
X131539000Y-120749500D01*
G75*
G02*
X131301500Y-120987000I-237500J0D01*
G01*
G37*
%TD.AperFunction*%
%TO.P,R4,1*%
%TO.N,Net-(R4-Pad1)*%
%TA.AperFunction,SMDPad,CuDef*%
G36*
G01*
X131301500Y-122812000D02*
X130826500Y-122812000D01*
G75*
G02*
X130589000Y-122574500I0J237500D01*
G01*
X130589000Y-122074500D01*
G75*
G02*
X130826500Y-121837000I237500J0D01*
G01*
X131301500Y-121837000D01*
G75*
G02*
X131539000Y-122074500I0J-237500D01*
G01*
X131539000Y-122574500D01*
G75*
G02*
X131301500Y-122812000I-237500J0D01*
G01*
G37*
%TD.AperFunction*%
%TD*%
%TO.P,R3,2*%
%TO.N,Net-(C5-Pad1)*%
%TA.AperFunction,SMDPad,CuDef*%
G36*
G01*
X114824500Y-125477500D02*
X115299500Y-125477500D01*
G75*
G02*
X115537000Y-125715000I0J-237500D01*
G01*
X115537000Y-126215000D01*
G75*
G02*
X115299500Y-126452500I-237500J0D01*
G01*
X114824500Y-126452500D01*
G75*
G02*
X114587000Y-126215000I0J237500D01*
G01*
X114587000Y-125715000D01*
G75*
G02*
X114824500Y-125477500I237500J0D01*
G01*
G37*
%TD.AperFunction*%
%TO.P,R3,1*%
%TO.N,GND*%
%TA.AperFunction,SMDPad,CuDef*%
G36*
G01*
X114824500Y-123652500D02*
X115299500Y-123652500D01*
G75*
G02*
X115537000Y-123890000I0J-237500D01*
G01*
X115537000Y-124390000D01*
G75*
G02*
X115299500Y-124627500I-237500J0D01*
G01*
X114824500Y-124627500D01*
G75*
G02*
X114587000Y-124390000I0J237500D01*
G01*
X114587000Y-123890000D01*
G75*
G02*
X114824500Y-123652500I237500J0D01*
G01*
G37*
%TD.AperFunction*%
%TD*%
%TO.P,R2,2*%
%TO.N,Net-(C2-Pad2)*%
%TA.AperFunction,SMDPad,CuDef*%
G36*
G01*
X112075000Y-146795500D02*
X112075000Y-146320500D01*
G75*
G02*
X112312500Y-146083000I237500J0D01*
G01*
X112812500Y-146083000D01*
G75*
G02*
X113050000Y-146320500I0J-237500D01*
G01*
X113050000Y-146795500D01*
G75*
G02*
X112812500Y-147033000I-237500J0D01*
G01*
X112312500Y-147033000D01*
G75*
G02*
X112075000Y-146795500I0J237500D01*
G01*
G37*
%TD.AperFunction*%
%TO.P,R2,1*%
%TO.N,+3V3*%
%TA.AperFunction,SMDPad,CuDef*%
G36*
G01*
X110250000Y-146795500D02*
X110250000Y-146320500D01*
G75*
G02*
X110487500Y-146083000I237500J0D01*
G01*
X110987500Y-146083000D01*
G75*
G02*
X111225000Y-146320500I0J-237500D01*
G01*
X111225000Y-146795500D01*
G75*
G02*
X110987500Y-147033000I-237500J0D01*
G01*
X110487500Y-147033000D01*
G75*
G02*
X110250000Y-146795500I0J237500D01*
G01*
G37*
%TD.AperFunction*%
%TD*%
%TO.P,R1,2*%
%TO.N,Net-(J2-Pad10)*%
%TA.AperFunction,SMDPad,CuDef*%
G36*
G01*
X109203500Y-143593000D02*
X108728500Y-143593000D01*
G75*
G02*
X108491000Y-143355500I0J237500D01*
G01*
X108491000Y-142855500D01*
G75*
G02*
X108728500Y-142618000I237500J0D01*
G01*
X109203500Y-142618000D01*
G75*
G02*
X109441000Y-142855500I0J-237500D01*
G01*
X109441000Y-143355500D01*
G75*
G02*
X109203500Y-143593000I-237500J0D01*
G01*
G37*
%TD.AperFunction*%
%TO.P,R1,1*%
%TO.N,Net-(C2-Pad2)*%
%TA.AperFunction,SMDPad,CuDef*%
G36*
G01*
X109203500Y-145418000D02*
X108728500Y-145418000D01*
G75*
G02*
X108491000Y-145180500I0J237500D01*
G01*
X108491000Y-144680500D01*
G75*
G02*
X108728500Y-144443000I237500J0D01*
G01*
X109203500Y-144443000D01*
G75*
G02*
X109441000Y-144680500I0J-237500D01*
G01*
X109441000Y-145180500D01*
G75*
G02*
X109203500Y-145418000I-237500J0D01*
G01*
G37*
%TD.AperFunction*%
%TD*%
D18*
%TO.P,J7,4*%
%TO.N,GND*%
X109220000Y-124460000D03*
%TO.P,J7,3*%
X106680000Y-124460000D03*
%TO.P,J7,2*%
X109220000Y-121920000D03*
D19*
%TO.P,J7,1*%
X106680000Y-121920000D03*
%TD*%
D18*
%TO.P,J6,4*%
%TO.N,+3V3*%
X101600000Y-124460000D03*
%TO.P,J6,3*%
X99060000Y-124460000D03*
%TO.P,J6,2*%
X101600000Y-121920000D03*
D19*
%TO.P,J6,1*%
X99060000Y-121920000D03*
%TD*%
D18*
%TO.P,J5,4*%
%TO.N,+5V*%
X142240000Y-124460000D03*
%TO.P,J5,3*%
X139700000Y-124460000D03*
%TO.P,J5,2*%
X142240000Y-121920000D03*
D19*
%TO.P,J5,1*%
X139700000Y-121920000D03*
%TD*%
D18*
%TO.P,J3,8*%
%TO.N,Net-(J3-Pad8)*%
X152400000Y-139700000D03*
%TO.P,J3,7*%
%TO.N,Net-(J3-Pad7)*%
X152400000Y-137160000D03*
%TO.P,J3,6*%
%TO.N,Net-(J3-Pad6)*%
X152400000Y-134620000D03*
%TO.P,J3,5*%
%TO.N,Net-(J3-Pad5)*%
X152400000Y-132080000D03*
%TO.P,J3,4*%
%TO.N,Net-(J3-Pad4)*%
X152400000Y-129540000D03*
%TO.P,J3,3*%
%TO.N,Net-(J3-Pad3)*%
X152400000Y-127000000D03*
%TO.P,J3,2*%
%TO.N,Net-(J3-Pad2)*%
X152400000Y-124460000D03*
D19*
%TO.P,J3,1*%
%TO.N,GND*%
X152400000Y-121920000D03*
%TD*%
D18*
%TO.P,J1,8*%
%TO.N,Net-(J1-Pad8)*%
X91440000Y-121920000D03*
%TO.P,J1,7*%
%TO.N,Net-(J1-Pad7)*%
X91440000Y-124460000D03*
%TO.P,J1,6*%
%TO.N,Net-(J1-Pad6)*%
X91440000Y-127000000D03*
%TO.P,J1,5*%
%TO.N,Net-(J1-Pad5)*%
X91440000Y-129540000D03*
%TO.P,J1,4*%
%TO.N,Net-(J1-Pad4)*%
X91440000Y-132080000D03*
%TO.P,J1,3*%
%TO.N,Net-(J1-Pad3)*%
X91440000Y-134620000D03*
%TO.P,J1,2*%
%TO.N,Net-(J1-Pad2)*%
X91440000Y-137160000D03*
D19*
%TO.P,J1,1*%
%TO.N,Net-(J1-Pad1)*%
X91440000Y-139700000D03*
%TD*%
%TO.P,FB1,2*%
%TO.N,+3V3*%
%TA.AperFunction,SMDPad,CuDef*%
G36*
G01*
X101837500Y-134195000D02*
X101362500Y-134195000D01*
G75*
G02*
X101125000Y-133957500I0J237500D01*
G01*
X101125000Y-133457500D01*
G75*
G02*
X101362500Y-133220000I237500J0D01*
G01*
X101837500Y-133220000D01*
G75*
G02*
X102075000Y-133457500I0J-237500D01*
G01*
X102075000Y-133957500D01*
G75*
G02*
X101837500Y-134195000I-237500J0D01*
G01*
G37*
%TD.AperFunction*%
%TO.P,FB1,1*%
%TO.N,+3.3VA*%
%TA.AperFunction,SMDPad,CuDef*%
G36*
G01*
X101837500Y-136020000D02*
X101362500Y-136020000D01*
G75*
G02*
X101125000Y-135782500I0J237500D01*
G01*
X101125000Y-135282500D01*
G75*
G02*
X101362500Y-135045000I237500J0D01*
G01*
X101837500Y-135045000D01*
G75*
G02*
X102075000Y-135282500I0J-237500D01*
G01*
X102075000Y-135782500D01*
G75*
G02*
X101837500Y-136020000I-237500J0D01*
G01*
G37*
%TD.AperFunction*%
%TD*%
D23*
%TO.P,D2,2*%
%TO.N,GND*%
X132080000Y-140120003D03*
%TO.P,D2,1*%
%TO.N,/Power supply/V_USB*%
X132080000Y-135120003D03*
%TD*%
D24*
%TO.P,D1,3*%
%TO.N,GND*%
X118594390Y-130794000D03*
%TO.P,D1,2*%
%TO.N,/USB port/USB_D+*%
X117644390Y-128794000D03*
%TO.P,D1,1*%
%TO.N,/USB port/USB_D-*%
X119544390Y-128794000D03*
%TD*%
%TO.P,C14,2*%
%TO.N,GND*%
%TA.AperFunction,SMDPad,CuDef*%
G36*
G01*
X146640500Y-167910500D02*
X146640500Y-168385500D01*
G75*
G02*
X146403000Y-168623000I-237500J0D01*
G01*
X145803000Y-168623000D01*
G75*
G02*
X145565500Y-168385500I0J237500D01*
G01*
X145565500Y-167910500D01*
G75*
G02*
X145803000Y-167673000I237500J0D01*
G01*
X146403000Y-167673000D01*
G75*
G02*
X146640500Y-167910500I0J-237500D01*
G01*
G37*
%TD.AperFunction*%
%TO.P,C14,1*%
%TO.N,/UI.sch/SW_Right*%
%TA.AperFunction,SMDPad,CuDef*%
G36*
G01*
X148365500Y-167910500D02*
X148365500Y-168385500D01*
G75*
G02*
X148128000Y-168623000I-237500J0D01*
G01*
X147528000Y-168623000D01*
G75*
G02*
X147290500Y-168385500I0J237500D01*
G01*
X147290500Y-167910500D01*
G75*
G02*
X147528000Y-167673000I237500J0D01*
G01*
X148128000Y-167673000D01*
G75*
G02*
X148365500Y-167910500I0J-237500D01*
G01*
G37*
%TD.AperFunction*%
%TD*%
%TO.P,C13,2*%
%TO.N,GND*%
%TA.AperFunction,SMDPad,CuDef*%
G36*
G01*
X131397500Y-162235000D02*
X130922500Y-162235000D01*
G75*
G02*
X130685000Y-161997500I0J237500D01*
G01*
X130685000Y-161397500D01*
G75*
G02*
X130922500Y-161160000I237500J0D01*
G01*
X131397500Y-161160000D01*
G75*
G02*
X131635000Y-161397500I0J-237500D01*
G01*
X131635000Y-161997500D01*
G75*
G02*
X131397500Y-162235000I-237500J0D01*
G01*
G37*
%TD.AperFunction*%
%TO.P,C13,1*%
%TO.N,/UI.sch/RC_Right_A*%
%TA.AperFunction,SMDPad,CuDef*%
G36*
G01*
X131397500Y-163960000D02*
X130922500Y-163960000D01*
G75*
G02*
X130685000Y-163722500I0J237500D01*
G01*
X130685000Y-163122500D01*
G75*
G02*
X130922500Y-162885000I237500J0D01*
G01*
X131397500Y-162885000D01*
G75*
G02*
X131635000Y-163122500I0J-237500D01*
G01*
X131635000Y-163722500D01*
G75*
G02*
X131397500Y-163960000I-237500J0D01*
G01*
G37*
%TD.AperFunction*%
%TD*%
%TO.P,C12,2*%
%TO.N,GND*%
%TA.AperFunction,SMDPad,CuDef*%
G36*
G01*
X135557500Y-162235000D02*
X135082500Y-162235000D01*
G75*
G02*
X134845000Y-161997500I0J237500D01*
G01*
X134845000Y-161397500D01*
G75*
G02*
X135082500Y-161160000I237500J0D01*
G01*
X135557500Y-161160000D01*
G75*
G02*
X135795000Y-161397500I0J-237500D01*
G01*
X135795000Y-161997500D01*
G75*
G02*
X135557500Y-162235000I-237500J0D01*
G01*
G37*
%TD.AperFunction*%
%TO.P,C12,1*%
%TO.N,/UI.sch/RC_Right_B*%
%TA.AperFunction,SMDPad,CuDef*%
G36*
G01*
X135557500Y-163960000D02*
X135082500Y-163960000D01*
G75*
G02*
X134845000Y-163722500I0J237500D01*
G01*
X134845000Y-163122500D01*
G75*
G02*
X135082500Y-162885000I237500J0D01*
G01*
X135557500Y-162885000D01*
G75*
G02*
X135795000Y-163122500I0J-237500D01*
G01*
X135795000Y-163722500D01*
G75*
G02*
X135557500Y-163960000I-237500J0D01*
G01*
G37*
%TD.AperFunction*%
%TD*%
%TO.P,C11,2*%
%TO.N,GND*%
%TA.AperFunction,SMDPad,CuDef*%
G36*
G01*
X97353000Y-168385500D02*
X97353000Y-167910500D01*
G75*
G02*
X97590500Y-167673000I237500J0D01*
G01*
X98190500Y-167673000D01*
G75*
G02*
X98428000Y-167910500I0J-237500D01*
G01*
X98428000Y-168385500D01*
G75*
G02*
X98190500Y-168623000I-237500J0D01*
G01*
X97590500Y-168623000D01*
G75*
G02*
X97353000Y-168385500I0J237500D01*
G01*
G37*
%TD.AperFunction*%
%TO.P,C11,1*%
%TO.N,/UI.sch/SW_Left*%
%TA.AperFunction,SMDPad,CuDef*%
G36*
G01*
X95628000Y-168385500D02*
X95628000Y-167910500D01*
G75*
G02*
X95865500Y-167673000I237500J0D01*
G01*
X96465500Y-167673000D01*
G75*
G02*
X96703000Y-167910500I0J-237500D01*
G01*
X96703000Y-168385500D01*
G75*
G02*
X96465500Y-168623000I-237500J0D01*
G01*
X95865500Y-168623000D01*
G75*
G02*
X95628000Y-168385500I0J237500D01*
G01*
G37*
%TD.AperFunction*%
%TD*%
%TO.P,C10,2*%
%TO.N,GND*%
%TA.AperFunction,SMDPad,CuDef*%
G36*
G01*
X108762500Y-162235000D02*
X108287500Y-162235000D01*
G75*
G02*
X108050000Y-161997500I0J237500D01*
G01*
X108050000Y-161397500D01*
G75*
G02*
X108287500Y-161160000I237500J0D01*
G01*
X108762500Y-161160000D01*
G75*
G02*
X109000000Y-161397500I0J-237500D01*
G01*
X109000000Y-161997500D01*
G75*
G02*
X108762500Y-162235000I-237500J0D01*
G01*
G37*
%TD.AperFunction*%
%TO.P,C10,1*%
%TO.N,/UI.sch/RC_Left_A*%
%TA.AperFunction,SMDPad,CuDef*%
G36*
G01*
X108762500Y-163960000D02*
X108287500Y-163960000D01*
G75*
G02*
X108050000Y-163722500I0J237500D01*
G01*
X108050000Y-163122500D01*
G75*
G02*
X108287500Y-162885000I237500J0D01*
G01*
X108762500Y-162885000D01*
G75*
G02*
X109000000Y-163122500I0J-237500D01*
G01*
X109000000Y-163722500D01*
G75*
G02*
X108762500Y-163960000I-237500J0D01*
G01*
G37*
%TD.AperFunction*%
%TD*%
%TO.P,C9,2*%
%TO.N,GND*%
%TA.AperFunction,SMDPad,CuDef*%
G36*
G01*
X113187500Y-162235000D02*
X112712500Y-162235000D01*
G75*
G02*
X112475000Y-161997500I0J237500D01*
G01*
X112475000Y-161397500D01*
G75*
G02*
X112712500Y-161160000I237500J0D01*
G01*
X113187500Y-161160000D01*
G75*
G02*
X113425000Y-161397500I0J-237500D01*
G01*
X113425000Y-161997500D01*
G75*
G02*
X113187500Y-162235000I-237500J0D01*
G01*
G37*
%TD.AperFunction*%
%TO.P,C9,1*%
%TO.N,/UI.sch/RC_Left_B*%
%TA.AperFunction,SMDPad,CuDef*%
G36*
G01*
X113187500Y-163960000D02*
X112712500Y-163960000D01*
G75*
G02*
X112475000Y-163722500I0J237500D01*
G01*
X112475000Y-163122500D01*
G75*
G02*
X112712500Y-162885000I237500J0D01*
G01*
X113187500Y-162885000D01*
G75*
G02*
X113425000Y-163122500I0J-237500D01*
G01*
X113425000Y-163722500D01*
G75*
G02*
X113187500Y-163960000I-237500J0D01*
G01*
G37*
%TD.AperFunction*%
%TD*%
%TO.P,C8,2*%
%TO.N,GND*%
%TA.AperFunction,SMDPad,CuDef*%
G36*
G01*
X126550000Y-139225000D02*
X126550000Y-140175000D01*
G75*
G02*
X126300000Y-140425000I-250000J0D01*
G01*
X125625000Y-140425000D01*
G75*
G02*
X125375000Y-140175000I0J250000D01*
G01*
X125375000Y-139225000D01*
G75*
G02*
X125625000Y-138975000I250000J0D01*
G01*
X126300000Y-138975000D01*
G75*
G02*
X126550000Y-139225000I0J-250000D01*
G01*
G37*
%TD.AperFunction*%
%TO.P,C8,1*%
%TO.N,Net-(C8-Pad1)*%
%TA.AperFunction,SMDPad,CuDef*%
G36*
G01*
X128625000Y-139225000D02*
X128625000Y-140175000D01*
G75*
G02*
X128375000Y-140425000I-250000J0D01*
G01*
X127700000Y-140425000D01*
G75*
G02*
X127450000Y-140175000I0J250000D01*
G01*
X127450000Y-139225000D01*
G75*
G02*
X127700000Y-138975000I250000J0D01*
G01*
X128375000Y-138975000D01*
G75*
G02*
X128625000Y-139225000I0J-250000D01*
G01*
G37*
%TD.AperFunction*%
%TD*%
%TO.P,C7,2*%
%TO.N,GND*%
%TA.AperFunction,SMDPad,CuDef*%
G36*
G01*
X105885000Y-134045000D02*
X104935000Y-134045000D01*
G75*
G02*
X104685000Y-133795000I0J250000D01*
G01*
X104685000Y-133120000D01*
G75*
G02*
X104935000Y-132870000I250000J0D01*
G01*
X105885000Y-132870000D01*
G75*
G02*
X106135000Y-133120000I0J-250000D01*
G01*
X106135000Y-133795000D01*
G75*
G02*
X105885000Y-134045000I-250000J0D01*
G01*
G37*
%TD.AperFunction*%
%TO.P,C7,1*%
%TO.N,+3.3VA*%
%TA.AperFunction,SMDPad,CuDef*%
G36*
G01*
X105885000Y-136120000D02*
X104935000Y-136120000D01*
G75*
G02*
X104685000Y-135870000I0J250000D01*
G01*
X104685000Y-135195000D01*
G75*
G02*
X104935000Y-134945000I250000J0D01*
G01*
X105885000Y-134945000D01*
G75*
G02*
X106135000Y-135195000I0J-250000D01*
G01*
X106135000Y-135870000D01*
G75*
G02*
X105885000Y-136120000I-250000J0D01*
G01*
G37*
%TD.AperFunction*%
%TD*%
%TO.P,C6,2*%
%TO.N,/Power supply/V_USB*%
%TA.AperFunction,SMDPad,CuDef*%
G36*
G01*
X136365000Y-134545003D02*
X135415000Y-134545003D01*
G75*
G02*
X135165000Y-134295003I0J250000D01*
G01*
X135165000Y-133620003D01*
G75*
G02*
X135415000Y-133370003I250000J0D01*
G01*
X136365000Y-133370003D01*
G75*
G02*
X136615000Y-133620003I0J-250000D01*
G01*
X136615000Y-134295003D01*
G75*
G02*
X136365000Y-134545003I-250000J0D01*
G01*
G37*
%TD.AperFunction*%
%TO.P,C6,1*%
%TO.N,GND*%
%TA.AperFunction,SMDPad,CuDef*%
G36*
G01*
X136365000Y-136620003D02*
X135415000Y-136620003D01*
G75*
G02*
X135165000Y-136370003I0J250000D01*
G01*
X135165000Y-135695003D01*
G75*
G02*
X135415000Y-135445003I250000J0D01*
G01*
X136365000Y-135445003D01*
G75*
G02*
X136615000Y-135695003I0J-250000D01*
G01*
X136615000Y-136370003D01*
G75*
G02*
X136365000Y-136620003I-250000J0D01*
G01*
G37*
%TD.AperFunction*%
%TD*%
%TO.P,C5,2*%
%TO.N,GND*%
%TA.AperFunction,SMDPad,CuDef*%
G36*
G01*
X113530501Y-124727500D02*
X113055501Y-124727500D01*
G75*
G02*
X112818001Y-124490000I0J237500D01*
G01*
X112818001Y-123890000D01*
G75*
G02*
X113055501Y-123652500I237500J0D01*
G01*
X113530501Y-123652500D01*
G75*
G02*
X113768001Y-123890000I0J-237500D01*
G01*
X113768001Y-124490000D01*
G75*
G02*
X113530501Y-124727500I-237500J0D01*
G01*
G37*
%TD.AperFunction*%
%TO.P,C5,1*%
%TO.N,Net-(C5-Pad1)*%
%TA.AperFunction,SMDPad,CuDef*%
G36*
G01*
X113530501Y-126452500D02*
X113055501Y-126452500D01*
G75*
G02*
X112818001Y-126215000I0J237500D01*
G01*
X112818001Y-125615000D01*
G75*
G02*
X113055501Y-125377500I237500J0D01*
G01*
X113530501Y-125377500D01*
G75*
G02*
X113768001Y-125615000I0J-237500D01*
G01*
X113768001Y-126215000D01*
G75*
G02*
X113530501Y-126452500I-237500J0D01*
G01*
G37*
%TD.AperFunction*%
%TD*%
%TO.P,C4,2*%
%TO.N,GND*%
%TA.AperFunction,SMDPad,CuDef*%
G36*
G01*
X121505950Y-151059000D02*
X121030950Y-151059000D01*
G75*
G02*
X120793450Y-150821500I0J237500D01*
G01*
X120793450Y-150221500D01*
G75*
G02*
X121030950Y-149984000I237500J0D01*
G01*
X121505950Y-149984000D01*
G75*
G02*
X121743450Y-150221500I0J-237500D01*
G01*
X121743450Y-150821500D01*
G75*
G02*
X121505950Y-151059000I-237500J0D01*
G01*
G37*
%TD.AperFunction*%
%TO.P,C4,1*%
%TO.N,+3V3*%
%TA.AperFunction,SMDPad,CuDef*%
G36*
G01*
X121505950Y-152784000D02*
X121030950Y-152784000D01*
G75*
G02*
X120793450Y-152546500I0J237500D01*
G01*
X120793450Y-151946500D01*
G75*
G02*
X121030950Y-151709000I237500J0D01*
G01*
X121505950Y-151709000D01*
G75*
G02*
X121743450Y-151946500I0J-237500D01*
G01*
X121743450Y-152546500D01*
G75*
G02*
X121505950Y-152784000I-237500J0D01*
G01*
G37*
%TD.AperFunction*%
%TD*%
%TO.P,C3,2*%
%TO.N,GND*%
%TA.AperFunction,SMDPad,CuDef*%
G36*
G01*
X123919000Y-150704000D02*
X122969000Y-150704000D01*
G75*
G02*
X122719000Y-150454000I0J250000D01*
G01*
X122719000Y-149779000D01*
G75*
G02*
X122969000Y-149529000I250000J0D01*
G01*
X123919000Y-149529000D01*
G75*
G02*
X124169000Y-149779000I0J-250000D01*
G01*
X124169000Y-150454000D01*
G75*
G02*
X123919000Y-150704000I-250000J0D01*
G01*
G37*
%TD.AperFunction*%
%TO.P,C3,1*%
%TO.N,Net-(C3-Pad1)*%
%TA.AperFunction,SMDPad,CuDef*%
G36*
G01*
X123919000Y-152779000D02*
X122969000Y-152779000D01*
G75*
G02*
X122719000Y-152529000I0J250000D01*
G01*
X122719000Y-151854000D01*
G75*
G02*
X122969000Y-151604000I250000J0D01*
G01*
X123919000Y-151604000D01*
G75*
G02*
X124169000Y-151854000I0J-250000D01*
G01*
X124169000Y-152529000D01*
G75*
G02*
X123919000Y-152779000I-250000J0D01*
G01*
G37*
%TD.AperFunction*%
%TD*%
%TO.P,C2,2*%
%TO.N,Net-(C2-Pad2)*%
%TA.AperFunction,SMDPad,CuDef*%
G36*
G01*
X111975000Y-149589500D02*
X111975000Y-149114500D01*
G75*
G02*
X112212500Y-148877000I237500J0D01*
G01*
X112812500Y-148877000D01*
G75*
G02*
X113050000Y-149114500I0J-237500D01*
G01*
X113050000Y-149589500D01*
G75*
G02*
X112812500Y-149827000I-237500J0D01*
G01*
X112212500Y-149827000D01*
G75*
G02*
X111975000Y-149589500I0J237500D01*
G01*
G37*
%TD.AperFunction*%
%TO.P,C2,1*%
%TO.N,+3V3*%
%TA.AperFunction,SMDPad,CuDef*%
G36*
G01*
X110250000Y-149589500D02*
X110250000Y-149114500D01*
G75*
G02*
X110487500Y-148877000I237500J0D01*
G01*
X111087500Y-148877000D01*
G75*
G02*
X111325000Y-149114500I0J-237500D01*
G01*
X111325000Y-149589500D01*
G75*
G02*
X111087500Y-149827000I-237500J0D01*
G01*
X110487500Y-149827000D01*
G75*
G02*
X110250000Y-149589500I0J237500D01*
G01*
G37*
%TD.AperFunction*%
%TD*%
%TO.P,C1,2*%
%TO.N,GND*%
%TA.AperFunction,SMDPad,CuDef*%
G36*
G01*
X117301000Y-166123500D02*
X117776000Y-166123500D01*
G75*
G02*
X118013500Y-166361000I0J-237500D01*
G01*
X118013500Y-166961000D01*
G75*
G02*
X117776000Y-167198500I-237500J0D01*
G01*
X117301000Y-167198500D01*
G75*
G02*
X117063500Y-166961000I0J237500D01*
G01*
X117063500Y-166361000D01*
G75*
G02*
X117301000Y-166123500I237500J0D01*
G01*
G37*
%TD.AperFunction*%
%TO.P,C1,1*%
%TO.N,+3.3VA*%
%TA.AperFunction,SMDPad,CuDef*%
G36*
G01*
X117301000Y-164398500D02*
X117776000Y-164398500D01*
G75*
G02*
X118013500Y-164636000I0J-237500D01*
G01*
X118013500Y-165236000D01*
G75*
G02*
X117776000Y-165473500I-237500J0D01*
G01*
X117301000Y-165473500D01*
G75*
G02*
X117063500Y-165236000I0J237500D01*
G01*
X117063500Y-164636000D01*
G75*
G02*
X117301000Y-164398500I237500J0D01*
G01*
G37*
%TD.AperFunction*%
%TD*%
D25*
%TO.N,GND*%
X129540000Y-134620000D03*
X135890000Y-138430000D03*
X119701076Y-165865576D03*
X105410000Y-132080000D03*
X129657990Y-140852010D03*
X112950000Y-160401000D03*
X108525000Y-160401000D03*
X131160000Y-160401000D03*
X135320000Y-160336000D03*
X123444000Y-149098000D03*
X121268450Y-149098000D03*
X123444000Y-153670000D03*
X118110000Y-141986000D03*
X118110000Y-143256000D03*
X104394000Y-142748000D03*
X118594390Y-132611610D03*
X134088500Y-125880500D03*
%TO.N,+3.3VA*%
X116472250Y-166002250D03*
X103481500Y-135532500D03*
%TO.N,Net-(C2-Pad2)*%
X120015000Y-157480000D03*
X118364000Y-155829000D03*
%TO.N,+3V3*%
X119888000Y-149098000D03*
X109977000Y-157221000D03*
X133832602Y-157251398D03*
%TO.N,Net-(C8-Pad1)*%
X123509999Y-135570001D03*
X105410000Y-129540000D03*
%TO.N,/USB port/USB_D+*%
X118062781Y-126746000D03*
%TO.N,/USB port/USB_D-*%
X119125999Y-126746000D03*
%TO.N,Net-(J2-Pad10)*%
X107545500Y-143105500D03*
X114300000Y-139446000D03*
%TO.N,Net-(J4-Pad3)*%
X122876957Y-127059043D03*
X129667000Y-123317000D03*
%TD*%
D26*
%TO.N,GND*%
X128375001Y-134620000D02*
X129540000Y-134620000D01*
X129540000Y-134620000D02*
X129540000Y-134620000D01*
X135890000Y-138430000D02*
X135890000Y-138430000D01*
X134199997Y-140120003D02*
X135890000Y-138430000D01*
X132080000Y-140120003D02*
X134199997Y-140120003D01*
X135890000Y-138430000D02*
X135890000Y-136032503D01*
X120468449Y-165098203D02*
X120468449Y-164138999D01*
X118905652Y-166661000D02*
X119701076Y-165865576D01*
X117538500Y-166661000D02*
X118905652Y-166661000D01*
X119701076Y-165865576D02*
X120468449Y-165098203D01*
X105410000Y-133457500D02*
X105410000Y-132080000D01*
X105410000Y-132080000D02*
X105410000Y-132080000D01*
X131347993Y-140852010D02*
X132080000Y-140120003D01*
X127114510Y-140852010D02*
X129657990Y-140852010D01*
X125962500Y-139700000D02*
X127114510Y-140852010D01*
X129657990Y-140852010D02*
X131347993Y-140852010D01*
X112950000Y-161697500D02*
X112950000Y-160448000D01*
X112950000Y-160448000D02*
X112950000Y-160448000D01*
X108525000Y-161697500D02*
X108525000Y-160401000D01*
X101092000Y-162052000D02*
X103084000Y-160060000D01*
X103084000Y-160060000D02*
X104140000Y-160060000D01*
X101092000Y-165200500D02*
X101092000Y-162052000D01*
X97890500Y-168402000D02*
X101092000Y-165200500D01*
X131160000Y-161697500D02*
X131160000Y-160401000D01*
X135320000Y-161697500D02*
X135320000Y-160336000D01*
X135320000Y-160336000D02*
X135320000Y-160336000D01*
X143002000Y-162052000D02*
X140930000Y-159980000D01*
X143002000Y-165047000D02*
X143002000Y-162052000D01*
X140930000Y-159980000D02*
X139700000Y-159980000D01*
X146103000Y-168148000D02*
X143002000Y-165047000D01*
X123444000Y-150116500D02*
X123444000Y-149098000D01*
X123444000Y-149098000D02*
X123444000Y-149098000D01*
X121268450Y-148987550D02*
X121268450Y-148987550D01*
X121268450Y-150521500D02*
X121268450Y-149098000D01*
X122868449Y-155901001D02*
X122868449Y-154245551D01*
X122868449Y-154245551D02*
X123444000Y-153670000D01*
X123444000Y-153670000D02*
X123444000Y-153670000D01*
X116250000Y-141986000D02*
X118110000Y-141986000D01*
X116250000Y-143256000D02*
X118110000Y-143256000D01*
X118110000Y-141986000D02*
X118110000Y-141986000D01*
X118110000Y-143256000D02*
X118110000Y-143256000D01*
X102144000Y-138773000D02*
X102144000Y-140498000D01*
X102144000Y-140498000D02*
X104394000Y-142748000D01*
X104394000Y-142748000D02*
X104394000Y-142748000D01*
X102144000Y-144998000D02*
X104394000Y-142748000D01*
X102144000Y-146723000D02*
X102144000Y-144998000D01*
X118594390Y-130794000D02*
X118594390Y-132611610D01*
X118594390Y-132611610D02*
X118594390Y-132611610D01*
X109540000Y-124140000D02*
X109220000Y-124460000D01*
X113277001Y-124206000D02*
X113293001Y-124190000D01*
X109474000Y-124206000D02*
X113277001Y-124206000D01*
X109220000Y-124460000D02*
X109474000Y-124206000D01*
X113309001Y-124206000D02*
X113293001Y-124190000D01*
X114996000Y-124206000D02*
X113309001Y-124206000D01*
X115062000Y-124140000D02*
X114996000Y-124206000D01*
X115128000Y-124206000D02*
X115062000Y-124140000D01*
X117276971Y-124140000D02*
X117210971Y-124206000D01*
X117276971Y-124140000D02*
X115062000Y-124140000D01*
X118626955Y-125120000D02*
X118626955Y-123770000D01*
X128016000Y-125880500D02*
X131064000Y-125880500D01*
X131064000Y-125880500D02*
X134088500Y-125880500D01*
X134088500Y-125880500D02*
X134135500Y-125880500D01*
%TO.N,+3.3VA*%
X118372501Y-164138999D02*
X119668451Y-164138999D01*
X117575500Y-164936000D02*
X118372501Y-164138999D01*
X117538500Y-164936000D02*
X117575500Y-164936000D01*
X105310000Y-135532500D02*
X105410000Y-135432500D01*
X101600000Y-135532500D02*
X103481500Y-135532500D01*
X116472250Y-166002250D02*
X117538500Y-164936000D01*
X103481500Y-135532500D02*
X105310000Y-135532500D01*
%TO.N,Net-(C2-Pad2)*%
X112562500Y-149302000D02*
X112512500Y-149352000D01*
X112562500Y-146558000D02*
X112562500Y-149302000D01*
X111496500Y-150368000D02*
X112512500Y-149352000D01*
X109728000Y-150368000D02*
X111496500Y-150368000D01*
X108966000Y-149606000D02*
X109728000Y-150368000D01*
X108966000Y-144930500D02*
X108966000Y-149606000D01*
D27*
X124468451Y-156837601D02*
X123826052Y-157480000D01*
X124468451Y-155901001D02*
X124468451Y-156837601D01*
X123826052Y-157480000D02*
X120015000Y-157480000D01*
X120015000Y-157480000D02*
X120015000Y-157480000D01*
X112512500Y-150866500D02*
X112512500Y-149352000D01*
X117475000Y-155829000D02*
X112512500Y-150866500D01*
X118364000Y-155829000D02*
X117475000Y-155829000D01*
D26*
%TO.N,+3V3*%
X99060000Y-129540000D02*
X99060000Y-124460000D01*
X106675000Y-157983038D02*
X106675000Y-161647500D01*
X106675000Y-157221000D02*
X106675000Y-157983038D01*
X105156000Y-155702000D02*
X106675000Y-157221000D01*
X102362000Y-159753854D02*
X102362000Y-156464000D01*
X103124000Y-155702000D02*
X105156000Y-155702000D01*
X102362000Y-156464000D02*
X103124000Y-155702000D01*
X98285853Y-163830000D02*
X102362000Y-159753854D01*
X94775000Y-163830000D02*
X98285853Y-163830000D01*
X90678000Y-167927000D02*
X94775000Y-163830000D01*
X90678000Y-168402000D02*
X90678000Y-167927000D01*
X137160000Y-157251398D02*
X137160000Y-161647500D01*
X133000000Y-161647500D02*
X133000000Y-158084000D01*
X133832602Y-157251398D02*
X133832602Y-157251398D01*
X133000000Y-158084000D02*
X133832602Y-157251398D01*
X111125000Y-158369000D02*
X111125000Y-161647500D01*
X109977000Y-157221000D02*
X109977000Y-157221000D01*
X106675000Y-157221000D02*
X109977000Y-157221000D01*
X137160000Y-156464000D02*
X137160000Y-157251398D01*
X141478000Y-155702000D02*
X137922000Y-155702000D01*
X153137500Y-167361500D02*
X141478000Y-155702000D01*
X137922000Y-155702000D02*
X137160000Y-156464000D01*
X153137500Y-168148000D02*
X153137500Y-167361500D01*
X121268450Y-152246500D02*
X121268450Y-155901001D01*
X101600000Y-132334000D02*
X101600000Y-133707500D01*
X99060000Y-129794000D02*
X101600000Y-132334000D01*
X99060000Y-129540000D02*
X99060000Y-129794000D01*
X120750500Y-152246500D02*
X121268450Y-152246500D01*
X116332000Y-136906000D02*
X119888000Y-140462000D01*
X100697990Y-136057752D02*
X101546238Y-136906000D01*
X100697990Y-134609510D02*
X100697990Y-136057752D01*
X119888000Y-151384000D02*
X120750500Y-152246500D01*
X101600000Y-133707500D02*
X100697990Y-134609510D01*
X119888000Y-149098000D02*
X119888000Y-151384000D01*
X109977000Y-157221000D02*
X111125000Y-158369000D01*
X133832602Y-157251398D02*
X137160000Y-157251398D01*
X118050000Y-144526000D02*
X119888000Y-144526000D01*
X116250000Y-144526000D02*
X118050000Y-144526000D01*
X119888000Y-144526000D02*
X119888000Y-149098000D01*
X119888000Y-140462000D02*
X119888000Y-144526000D01*
X110737500Y-149302000D02*
X110787500Y-149352000D01*
X110737500Y-146558000D02*
X110737500Y-149302000D01*
X109982000Y-145802500D02*
X109982000Y-136906000D01*
X110737500Y-146558000D02*
X109982000Y-145802500D01*
X109982000Y-136906000D02*
X116332000Y-136906000D01*
X101546238Y-136906000D02*
X109982000Y-136906000D01*
%TO.N,Net-(C3-Pad1)*%
X122068451Y-153567049D02*
X123444000Y-152191500D01*
X122068451Y-155901001D02*
X122068451Y-153567049D01*
%TO.N,Net-(C5-Pad1)*%
X113393001Y-125965000D02*
X113293001Y-125865000D01*
X115062000Y-125965000D02*
X113393001Y-125965000D01*
%TO.N,/Power supply/V_USB*%
X131630002Y-135570001D02*
X132080000Y-135120003D01*
X128375001Y-135570001D02*
X131630002Y-135570001D01*
X132080000Y-133670002D02*
X132080000Y-135120003D01*
X128375001Y-133670002D02*
X132080000Y-133670002D01*
X134727500Y-135120003D02*
X135890000Y-133957503D01*
X132080000Y-135120003D02*
X134727500Y-135120003D01*
X137160000Y-129540000D02*
X139700000Y-129540000D01*
X135890000Y-130810000D02*
X137160000Y-129540000D01*
X135890000Y-133957503D02*
X135890000Y-130810000D01*
X123726955Y-123770000D02*
X123726955Y-125120000D01*
X123726955Y-129021956D02*
X128375001Y-133670002D01*
X119476956Y-123770000D02*
X119476956Y-125120000D01*
X123726955Y-128241045D02*
X123726955Y-129021956D01*
X123726955Y-125120000D02*
X123726955Y-128241045D01*
X121845006Y-128241045D02*
X123726955Y-128241045D01*
X119476956Y-125872995D02*
X121845006Y-128241045D01*
X119476956Y-125120000D02*
X119476956Y-125872995D01*
%TO.N,Net-(C8-Pad1)*%
X128037500Y-137043750D02*
X128037500Y-139700000D01*
X126563751Y-135570001D02*
X128037500Y-137043750D01*
X125625001Y-135570001D02*
X126563751Y-135570001D01*
X105410000Y-129540000D02*
X105410000Y-129540000D01*
X101600000Y-129540000D02*
X105410000Y-129540000D01*
X123509999Y-135570001D02*
X125625001Y-135570001D01*
%TO.N,/UI.sch/RC_Left_B*%
X112950000Y-165087500D02*
X112937500Y-165100000D01*
X112950000Y-163549500D02*
X112950000Y-165087500D01*
D27*
X121268450Y-166096626D02*
X121268450Y-164138999D01*
X112950000Y-163422500D02*
X116953009Y-167425509D01*
X116953009Y-167425509D02*
X119939567Y-167425509D01*
X119939567Y-167425509D02*
X121268450Y-166096626D01*
D26*
%TO.N,/UI.sch/RC_Left_A*%
X108525000Y-165087500D02*
X108512500Y-165100000D01*
X108525000Y-163422500D02*
X108525000Y-165087500D01*
D27*
X120075018Y-167752520D02*
X122068451Y-165759087D01*
X111165020Y-167752520D02*
X120075018Y-167752520D01*
X122068451Y-165759087D02*
X122068451Y-164138999D01*
X108512500Y-165100000D02*
X111165020Y-167752520D01*
%TO.N,/UI.sch/SW_Left*%
X122868449Y-164613575D02*
X122868449Y-164138999D01*
D26*
X94309250Y-168148000D02*
X96165500Y-168148000D01*
D27*
X122868449Y-165421551D02*
X122868449Y-164138999D01*
X120142000Y-168148000D02*
X122868449Y-165421551D01*
X99822000Y-168148000D02*
X120142000Y-168148000D01*
X98552000Y-169418000D02*
X99822000Y-168148000D01*
X97181500Y-169418000D02*
X98552000Y-169418000D01*
X96165500Y-168402000D02*
X97181500Y-169418000D01*
X96165500Y-168148000D02*
X96165500Y-168402000D01*
D26*
%TO.N,/UI.sch/RC_Right_B*%
X135327500Y-163430000D02*
X135320000Y-163422500D01*
X135327500Y-165100000D02*
X135327500Y-163430000D01*
D27*
X134625490Y-165802010D02*
X135327500Y-165100000D01*
X125194860Y-165802010D02*
X134625490Y-165802010D01*
X124468449Y-165075599D02*
X125194860Y-165802010D01*
X124468449Y-164138999D02*
X124468449Y-165075599D01*
D26*
%TO.N,/UI.sch/RC_Right_A*%
X131160000Y-165092500D02*
X131167500Y-165100000D01*
X131160000Y-163422500D02*
X131160000Y-165092500D01*
D27*
X129228500Y-165354000D02*
X131160000Y-163422500D01*
X125476000Y-165354000D02*
X129228500Y-165354000D01*
X125268449Y-165146449D02*
X125476000Y-165354000D01*
X125268449Y-164138999D02*
X125268449Y-165146449D01*
D26*
%TO.N,/UI.sch/SW_Right*%
X149595250Y-168148000D02*
X147828000Y-168148000D01*
D27*
X123668450Y-165075599D02*
X123668450Y-164138999D01*
X124962851Y-166370000D02*
X123668450Y-165075599D01*
X142748000Y-166370000D02*
X124962851Y-166370000D01*
X145288000Y-168910000D02*
X142748000Y-166370000D01*
X147066000Y-168910000D02*
X145288000Y-168910000D01*
X147828000Y-168148000D02*
X147066000Y-168910000D01*
%TO.N,/USB port/USB_D+*%
X121176955Y-124269999D02*
X122026956Y-125120000D01*
X121176955Y-123770000D02*
X121176955Y-124269999D01*
X117602000Y-127206781D02*
X117602000Y-128751610D01*
X118062781Y-126746000D02*
X117602000Y-127206781D01*
X125268449Y-149994487D02*
X125268449Y-155901001D01*
X120650000Y-145376038D02*
X125268449Y-149994487D01*
X120650000Y-131199610D02*
X120650000Y-145376038D01*
X118244390Y-128794000D02*
X120650000Y-131199610D01*
X117644390Y-128794000D02*
X118244390Y-128794000D01*
%TO.N,/USB port/USB_D-*%
X119544390Y-127164391D02*
X119125999Y-126746000D01*
X119544390Y-128794000D02*
X119544390Y-127164391D01*
X126587449Y-156766001D02*
X126587449Y-157220001D01*
X126587449Y-150717449D02*
X126587449Y-156766001D01*
X120977011Y-145107011D02*
X126587449Y-150717449D01*
X120977011Y-130226621D02*
X120977011Y-145107011D01*
X119544390Y-128794000D02*
X120977011Y-130226621D01*
%TO.N,Net-(J1-Pad8)*%
X108458000Y-151003000D02*
X114675001Y-157220001D01*
X114675001Y-157220001D02*
X118349451Y-157220001D01*
X104140000Y-151003000D02*
X108458000Y-151003000D01*
X91440000Y-121920000D02*
X94872077Y-125352077D01*
X94872077Y-141735077D02*
X104140000Y-151003000D01*
X94872077Y-125352077D02*
X94872077Y-141735077D01*
%TO.N,Net-(J1-Pad7)*%
X115012537Y-158019999D02*
X118349451Y-158019999D01*
X108376538Y-151384000D02*
X115012537Y-158019999D01*
X94545066Y-127565066D02*
X94545066Y-141870529D01*
X104058537Y-151384000D02*
X108376538Y-151384000D01*
X91440000Y-124460000D02*
X94545066Y-127565066D01*
X94545066Y-141870529D02*
X104058537Y-151384000D01*
%TO.N,Net-(J1-Pad6)*%
X91440000Y-127000000D02*
X94218055Y-129778055D01*
X94218055Y-129778055D02*
X94218055Y-142005981D01*
X115350076Y-158820000D02*
X118349451Y-158820000D01*
X108241087Y-151711011D02*
X115350076Y-158820000D01*
X103923085Y-151711011D02*
X108241087Y-151711011D01*
X94218055Y-142005981D02*
X103923085Y-151711011D01*
%TO.N,Net-(J1-Pad5)*%
X103787633Y-152038022D02*
X93891044Y-142141433D01*
X92289999Y-130389999D02*
X91440000Y-129540000D01*
X108105636Y-152038022D02*
X103787633Y-152038022D01*
X93891044Y-131991044D02*
X92289999Y-130389999D01*
X115687615Y-159620001D02*
X108105636Y-152038022D01*
X118349451Y-159620001D02*
X115687615Y-159620001D01*
X93891044Y-142141433D02*
X93891044Y-131991044D01*
%TO.N,Net-(J1-Pad4)*%
X93564033Y-134204033D02*
X92289999Y-132929999D01*
X92289999Y-132929999D02*
X91440000Y-132080000D01*
X116025151Y-160419999D02*
X107970185Y-152365033D01*
X93564033Y-142276885D02*
X93564033Y-134204033D01*
X103652181Y-152365033D02*
X93564033Y-142276885D01*
X107970185Y-152365033D02*
X103652181Y-152365033D01*
X118349451Y-160419999D02*
X116025151Y-160419999D01*
%TO.N,Net-(J1-Pad3)*%
X116362690Y-161220000D02*
X107834734Y-152692044D01*
X93237022Y-136417022D02*
X92289999Y-135469999D01*
X92289999Y-135469999D02*
X91440000Y-134620000D01*
X107834734Y-152692044D02*
X103516729Y-152692044D01*
X93237022Y-142412337D02*
X93237022Y-136417022D01*
X103516729Y-152692044D02*
X93237022Y-142412337D01*
X118349451Y-161220000D02*
X116362690Y-161220000D01*
%TO.N,Net-(J1-Pad2)*%
X118349451Y-162019999D02*
X116700227Y-162019999D01*
X116700227Y-162019999D02*
X107715228Y-153035000D01*
X92910011Y-138630011D02*
X91440000Y-137160000D01*
X107715228Y-153035000D02*
X103397222Y-153035000D01*
X103397222Y-153035000D02*
X92910011Y-142547789D01*
X92910011Y-142547789D02*
X92910011Y-138630011D01*
%TO.N,Net-(J1-Pad1)*%
X91440000Y-141540241D02*
X103261770Y-153362011D01*
X107579770Y-153362011D02*
X117037758Y-162819999D01*
X103261770Y-153362011D02*
X107579770Y-153362011D01*
X117412851Y-162819999D02*
X118349451Y-162819999D01*
X91440000Y-139700000D02*
X91440000Y-141540241D01*
X117037758Y-162819999D02*
X117412851Y-162819999D01*
D26*
%TO.N,Net-(J2-Pad10)*%
X107545500Y-143105500D02*
X107545500Y-143105500D01*
X106644000Y-142204000D02*
X107545500Y-143105500D01*
X106644000Y-138773000D02*
X106644000Y-142204000D01*
X107592500Y-143105500D02*
X108966000Y-143105500D01*
X106644000Y-144054000D02*
X107592500Y-143105500D01*
X106644000Y-146723000D02*
X106644000Y-144054000D01*
X107545500Y-143105500D02*
X108966000Y-143105500D01*
X112350000Y-139446000D02*
X114300000Y-139446000D01*
X114300000Y-139446000D02*
X114300000Y-139446000D01*
D27*
%TO.N,Net-(J2-Pad4)*%
X114300000Y-148635538D02*
X114300000Y-144526000D01*
X120142000Y-154477538D02*
X114300000Y-148635538D01*
X120142000Y-154975348D02*
X120142000Y-154477538D01*
X120149452Y-154982800D02*
X120142000Y-154975348D01*
X114300000Y-144526000D02*
X113030000Y-143256000D01*
X120149452Y-155582002D02*
X120149452Y-154982800D01*
X113030000Y-143256000D02*
X112350000Y-143256000D01*
X120468451Y-155901001D02*
X120149452Y-155582002D01*
%TO.N,Net-(J2-Pad2)*%
X113538000Y-144526000D02*
X112350000Y-144526000D01*
X113792000Y-144780000D02*
X113538000Y-144526000D01*
X113792000Y-148590000D02*
X113792000Y-144780000D01*
X119668451Y-154466451D02*
X113792000Y-148590000D01*
X119668451Y-155901001D02*
X119668451Y-154466451D01*
%TO.N,Net-(J3-Pad8)*%
X139962460Y-139700000D02*
X152400000Y-139700000D01*
X130288410Y-149374050D02*
X139962460Y-139700000D01*
X130288410Y-159380561D02*
X130288410Y-149374050D01*
X127551050Y-162117920D02*
X130288410Y-159380561D01*
X127551050Y-162455602D02*
X127551050Y-162117920D01*
X127505650Y-162501002D02*
X127551050Y-162455602D01*
X126587449Y-162501002D02*
X127505650Y-162501002D01*
X126587449Y-162819999D02*
X126587449Y-162501002D01*
%TO.N,Net-(J3-Pad7)*%
X127186509Y-162020001D02*
X129961400Y-159245110D01*
X126587449Y-162020001D02*
X127186509Y-162020001D01*
X129961400Y-159245110D02*
X129961400Y-149238600D01*
X142040000Y-137160000D02*
X152400000Y-137160000D01*
X129961400Y-149238600D02*
X142040000Y-137160000D01*
%TO.N,Net-(J3-Pad6)*%
X129623490Y-159120559D02*
X129623490Y-149086350D01*
X144089840Y-134620000D02*
X152400000Y-134620000D01*
X127524049Y-161220000D02*
X129623490Y-159120559D01*
X129623490Y-149086350D02*
X144089840Y-134620000D01*
X126587449Y-161220000D02*
X127524049Y-161220000D01*
%TO.N,Net-(J3-Pad5)*%
X127524049Y-160419999D02*
X129296480Y-158647568D01*
X126587449Y-160419999D02*
X127524049Y-160419999D01*
X129296480Y-158647568D02*
X129296480Y-148950900D01*
X146167380Y-132080000D02*
X152400000Y-132080000D01*
X129296480Y-148950900D02*
X146167380Y-132080000D01*
%TO.N,Net-(J3-Pad4)*%
X127524049Y-159620001D02*
X128969470Y-158174580D01*
X126587449Y-159620001D02*
X127524049Y-159620001D01*
X128969470Y-158174580D02*
X128969470Y-148815450D01*
X148244920Y-129540000D02*
X152400000Y-129540000D01*
X128969470Y-148815450D02*
X148244920Y-129540000D01*
%TO.N,Net-(J3-Pad3)*%
X150322460Y-127000000D02*
X152400000Y-127000000D01*
X128627010Y-157775453D02*
X128627010Y-148695450D01*
X128627010Y-148695450D02*
X150322460Y-127000000D01*
X127582462Y-158820000D02*
X128627010Y-157775453D01*
X126587449Y-158820000D02*
X127582462Y-158820000D01*
%TO.N,Net-(J3-Pad2)*%
X128300000Y-157640002D02*
X127920001Y-158020001D01*
X128300000Y-148560000D02*
X128300000Y-157640002D01*
X127920001Y-158020001D02*
X126587449Y-158020001D01*
X152400000Y-124460000D02*
X128300000Y-148560000D01*
%TO.N,Net-(J4-Pad14)*%
X126595500Y-121920000D02*
X128016000Y-120499500D01*
X126266944Y-121920000D02*
X126595500Y-121920000D01*
X126252434Y-121934510D02*
X126266944Y-121920000D01*
X125601448Y-121934510D02*
X126252434Y-121934510D01*
X125586938Y-121920000D02*
X125601448Y-121934510D01*
X122176954Y-121920000D02*
X125586938Y-121920000D01*
X120326954Y-123770000D02*
X122176954Y-121920000D01*
%TO.N,Net-(J4-Pad3)*%
X122876957Y-125120000D02*
X122876957Y-127059043D01*
X129944500Y-120499500D02*
X131064000Y-120499500D01*
X129667000Y-120777000D02*
X129944500Y-120499500D01*
X129667000Y-123317000D02*
X129667000Y-120777000D01*
D26*
%TO.N,+5V*%
X142240000Y-129540000D02*
X142240000Y-126000000D01*
D27*
%TO.N,Net-(R4-Pad1)*%
X131064000Y-122324500D02*
X131064000Y-124055500D01*
%TO.N,Net-(R5-Pad1)*%
X128016000Y-122324500D02*
X128016000Y-124055500D01*
D26*
%TO.N,Net-(R10-Pad2)*%
X111125000Y-165087500D02*
X111137500Y-165100000D01*
X111125000Y-165087500D02*
X111112500Y-165100000D01*
X111125000Y-163472500D02*
X111125000Y-165087500D01*
D27*
X105537000Y-158957000D02*
X104140000Y-157560000D01*
X105537000Y-161798000D02*
X105537000Y-158957000D01*
X106299000Y-162560000D02*
X105537000Y-161798000D01*
X110212500Y-162560000D02*
X106299000Y-162560000D01*
X111125000Y-163472500D02*
X110212500Y-162560000D01*
D26*
%TO.N,Net-(R11-Pad2)*%
X106675000Y-165087500D02*
X106687500Y-165100000D01*
X106675000Y-163472500D02*
X106675000Y-165087500D01*
D27*
X105052500Y-163472500D02*
X104140000Y-162560000D01*
X106675000Y-163472500D02*
X105052500Y-163472500D01*
D26*
%TO.N,Net-(R12-Pad1)*%
X88853000Y-163347000D02*
X89640000Y-162560000D01*
X88853000Y-168148000D02*
X88853000Y-163347000D01*
X91503240Y-169129010D02*
X92484250Y-168148000D01*
X89834010Y-169129010D02*
X91503240Y-169129010D01*
X88853000Y-168148000D02*
X89834010Y-169129010D01*
%TO.N,Net-(R14-Pad1)*%
X137160000Y-165092500D02*
X137152500Y-165100000D01*
X137160000Y-163472500D02*
X137160000Y-165092500D01*
D27*
X138707500Y-163472500D02*
X139700000Y-162480000D01*
X137160000Y-163472500D02*
X138707500Y-163472500D01*
D26*
%TO.N,Net-(R15-Pad1)*%
X133000000Y-165092500D02*
X132992500Y-165100000D01*
X133000000Y-163472500D02*
X133000000Y-165092500D01*
D27*
X139700000Y-157988000D02*
X139700000Y-157480000D01*
X138176000Y-159512000D02*
X139700000Y-157988000D01*
X138176000Y-162052000D02*
X138176000Y-159512000D01*
X137570010Y-162657990D02*
X138176000Y-162052000D01*
X133814510Y-162657990D02*
X137570010Y-162657990D01*
X133000000Y-163472500D02*
X133814510Y-162657990D01*
D26*
%TO.N,Net-(R18-Pad1)*%
X156210000Y-166900500D02*
X154962500Y-168148000D01*
X154200000Y-157480000D02*
X156210000Y-159490000D01*
X156210000Y-159490000D02*
X156210000Y-166900500D01*
X152322260Y-169050010D02*
X151420250Y-168148000D01*
X154060490Y-169050010D02*
X152322260Y-169050010D01*
X154962500Y-168148000D02*
X154060490Y-169050010D01*
%TD*%
D28*
%TO.N,+3V3*%
X103378000Y-126238000D02*
X97282000Y-126238000D01*
X97282000Y-124816890D01*
X97618524Y-124816890D01*
X97663175Y-124964099D01*
X97788359Y-125226920D01*
X97962412Y-125460269D01*
X98178645Y-125655178D01*
X98428748Y-125804157D01*
X98703109Y-125901481D01*
X98933000Y-125780814D01*
X98933000Y-124587000D01*
X99187000Y-124587000D01*
X99187000Y-125780814D01*
X99416891Y-125901481D01*
X99691252Y-125804157D01*
X99941355Y-125655178D01*
X100157588Y-125460269D01*
X100330000Y-125229120D01*
X100502412Y-125460269D01*
X100718645Y-125655178D01*
X100968748Y-125804157D01*
X101243109Y-125901481D01*
X101473000Y-125780814D01*
X101473000Y-124587000D01*
X101727000Y-124587000D01*
X101727000Y-125780814D01*
X101956891Y-125901481D01*
X102231252Y-125804157D01*
X102481355Y-125655178D01*
X102697588Y-125460269D01*
X102871641Y-125226920D01*
X102996825Y-124964099D01*
X103041476Y-124816890D01*
X102920155Y-124587000D01*
X101727000Y-124587000D01*
X101473000Y-124587000D01*
X99187000Y-124587000D01*
X98933000Y-124587000D01*
X97739845Y-124587000D01*
X97618524Y-124816890D01*
X97282000Y-124816890D01*
X97282000Y-122770000D01*
X97571928Y-122770000D01*
X97584188Y-122894482D01*
X97620498Y-123014180D01*
X97679463Y-123124494D01*
X97758815Y-123221185D01*
X97855506Y-123300537D01*
X97965820Y-123359502D01*
X98046466Y-123383966D01*
X97962412Y-123459731D01*
X97788359Y-123693080D01*
X97663175Y-123955901D01*
X97618524Y-124103110D01*
X97739845Y-124333000D01*
X98933000Y-124333000D01*
X98933000Y-122047000D01*
X99187000Y-122047000D01*
X99187000Y-124333000D01*
X101473000Y-124333000D01*
X101473000Y-122047000D01*
X101727000Y-122047000D01*
X101727000Y-124333000D01*
X102920155Y-124333000D01*
X103041476Y-124103110D01*
X102996825Y-123955901D01*
X102871641Y-123693080D01*
X102697588Y-123459731D01*
X102481355Y-123264822D01*
X102355745Y-123190000D01*
X102481355Y-123115178D01*
X102697588Y-122920269D01*
X102871641Y-122686920D01*
X102996825Y-122424099D01*
X103041476Y-122276890D01*
X102920155Y-122047000D01*
X101727000Y-122047000D01*
X101473000Y-122047000D01*
X99187000Y-122047000D01*
X98933000Y-122047000D01*
X97733750Y-122047000D01*
X97575000Y-122205750D01*
X97571928Y-122770000D01*
X97282000Y-122770000D01*
X97282000Y-121070000D01*
X97571928Y-121070000D01*
X97575000Y-121634250D01*
X97733750Y-121793000D01*
X98933000Y-121793000D01*
X98933000Y-120593750D01*
X99187000Y-120593750D01*
X99187000Y-121793000D01*
X101473000Y-121793000D01*
X101473000Y-120599186D01*
X101727000Y-120599186D01*
X101727000Y-121793000D01*
X102920155Y-121793000D01*
X103041476Y-121563110D01*
X102996825Y-121415901D01*
X102871641Y-121153080D01*
X102697588Y-120919731D01*
X102481355Y-120724822D01*
X102231252Y-120575843D01*
X101956891Y-120478519D01*
X101727000Y-120599186D01*
X101473000Y-120599186D01*
X101243109Y-120478519D01*
X100968748Y-120575843D01*
X100718645Y-120724822D01*
X100522498Y-120901626D01*
X100499502Y-120825820D01*
X100440537Y-120715506D01*
X100361185Y-120618815D01*
X100264494Y-120539463D01*
X100154180Y-120480498D01*
X100034482Y-120444188D01*
X99910000Y-120431928D01*
X99345750Y-120435000D01*
X99187000Y-120593750D01*
X98933000Y-120593750D01*
X98774250Y-120435000D01*
X98210000Y-120431928D01*
X98085518Y-120444188D01*
X97965820Y-120480498D01*
X97855506Y-120539463D01*
X97758815Y-120618815D01*
X97679463Y-120715506D01*
X97620498Y-120825820D01*
X97584188Y-120945518D01*
X97571928Y-121070000D01*
X97282000Y-121070000D01*
X97282000Y-120142000D01*
X103378000Y-120142000D01*
X103378000Y-126238000D01*
%TA.AperFunction,Conductor*%
D29*
G36*
X103378000Y-126238000D02*
G01*
X97282000Y-126238000D01*
X97282000Y-124816890D01*
X97618524Y-124816890D01*
X97663175Y-124964099D01*
X97788359Y-125226920D01*
X97962412Y-125460269D01*
X98178645Y-125655178D01*
X98428748Y-125804157D01*
X98703109Y-125901481D01*
X98933000Y-125780814D01*
X98933000Y-124587000D01*
X99187000Y-124587000D01*
X99187000Y-125780814D01*
X99416891Y-125901481D01*
X99691252Y-125804157D01*
X99941355Y-125655178D01*
X100157588Y-125460269D01*
X100330000Y-125229120D01*
X100502412Y-125460269D01*
X100718645Y-125655178D01*
X100968748Y-125804157D01*
X101243109Y-125901481D01*
X101473000Y-125780814D01*
X101473000Y-124587000D01*
X101727000Y-124587000D01*
X101727000Y-125780814D01*
X101956891Y-125901481D01*
X102231252Y-125804157D01*
X102481355Y-125655178D01*
X102697588Y-125460269D01*
X102871641Y-125226920D01*
X102996825Y-124964099D01*
X103041476Y-124816890D01*
X102920155Y-124587000D01*
X101727000Y-124587000D01*
X101473000Y-124587000D01*
X99187000Y-124587000D01*
X98933000Y-124587000D01*
X97739845Y-124587000D01*
X97618524Y-124816890D01*
X97282000Y-124816890D01*
X97282000Y-122770000D01*
X97571928Y-122770000D01*
X97584188Y-122894482D01*
X97620498Y-123014180D01*
X97679463Y-123124494D01*
X97758815Y-123221185D01*
X97855506Y-123300537D01*
X97965820Y-123359502D01*
X98046466Y-123383966D01*
X97962412Y-123459731D01*
X97788359Y-123693080D01*
X97663175Y-123955901D01*
X97618524Y-124103110D01*
X97739845Y-124333000D01*
X98933000Y-124333000D01*
X98933000Y-122047000D01*
X99187000Y-122047000D01*
X99187000Y-124333000D01*
X101473000Y-124333000D01*
X101473000Y-122047000D01*
X101727000Y-122047000D01*
X101727000Y-124333000D01*
X102920155Y-124333000D01*
X103041476Y-124103110D01*
X102996825Y-123955901D01*
X102871641Y-123693080D01*
X102697588Y-123459731D01*
X102481355Y-123264822D01*
X102355745Y-123190000D01*
X102481355Y-123115178D01*
X102697588Y-122920269D01*
X102871641Y-122686920D01*
X102996825Y-122424099D01*
X103041476Y-122276890D01*
X102920155Y-122047000D01*
X101727000Y-122047000D01*
X101473000Y-122047000D01*
X99187000Y-122047000D01*
X98933000Y-122047000D01*
X97733750Y-122047000D01*
X97575000Y-122205750D01*
X97571928Y-122770000D01*
X97282000Y-122770000D01*
X97282000Y-121070000D01*
X97571928Y-121070000D01*
X97575000Y-121634250D01*
X97733750Y-121793000D01*
X98933000Y-121793000D01*
X98933000Y-120593750D01*
X99187000Y-120593750D01*
X99187000Y-121793000D01*
X101473000Y-121793000D01*
X101473000Y-120599186D01*
X101727000Y-120599186D01*
X101727000Y-121793000D01*
X102920155Y-121793000D01*
X103041476Y-121563110D01*
X102996825Y-121415901D01*
X102871641Y-121153080D01*
X102697588Y-120919731D01*
X102481355Y-120724822D01*
X102231252Y-120575843D01*
X101956891Y-120478519D01*
X101727000Y-120599186D01*
X101473000Y-120599186D01*
X101243109Y-120478519D01*
X100968748Y-120575843D01*
X100718645Y-120724822D01*
X100522498Y-120901626D01*
X100499502Y-120825820D01*
X100440537Y-120715506D01*
X100361185Y-120618815D01*
X100264494Y-120539463D01*
X100154180Y-120480498D01*
X100034482Y-120444188D01*
X99910000Y-120431928D01*
X99345750Y-120435000D01*
X99187000Y-120593750D01*
X98933000Y-120593750D01*
X98774250Y-120435000D01*
X98210000Y-120431928D01*
X98085518Y-120444188D01*
X97965820Y-120480498D01*
X97855506Y-120539463D01*
X97758815Y-120618815D01*
X97679463Y-120715506D01*
X97620498Y-120825820D01*
X97584188Y-120945518D01*
X97571928Y-121070000D01*
X97282000Y-121070000D01*
X97282000Y-120142000D01*
X103378000Y-120142000D01*
X103378000Y-126238000D01*
G37*
%TD.AperFunction*%
%TD*%
D28*
%TO.N,+5V*%
X144018000Y-126238000D02*
X137922000Y-126238000D01*
X137922000Y-124816890D01*
X138258524Y-124816890D01*
X138303175Y-124964099D01*
X138428359Y-125226920D01*
X138602412Y-125460269D01*
X138818645Y-125655178D01*
X139068748Y-125804157D01*
X139343109Y-125901481D01*
X139573000Y-125780814D01*
X139573000Y-124587000D01*
X139827000Y-124587000D01*
X139827000Y-125780814D01*
X140056891Y-125901481D01*
X140331252Y-125804157D01*
X140581355Y-125655178D01*
X140797588Y-125460269D01*
X140970000Y-125229120D01*
X141142412Y-125460269D01*
X141358645Y-125655178D01*
X141608748Y-125804157D01*
X141883109Y-125901481D01*
X142113000Y-125780814D01*
X142113000Y-124587000D01*
X142367000Y-124587000D01*
X142367000Y-125780814D01*
X142596891Y-125901481D01*
X142871252Y-125804157D01*
X143121355Y-125655178D01*
X143337588Y-125460269D01*
X143511641Y-125226920D01*
X143636825Y-124964099D01*
X143681476Y-124816890D01*
X143560155Y-124587000D01*
X142367000Y-124587000D01*
X142113000Y-124587000D01*
X139827000Y-124587000D01*
X139573000Y-124587000D01*
X138379845Y-124587000D01*
X138258524Y-124816890D01*
X137922000Y-124816890D01*
X137922000Y-122770000D01*
X138211928Y-122770000D01*
X138224188Y-122894482D01*
X138260498Y-123014180D01*
X138319463Y-123124494D01*
X138398815Y-123221185D01*
X138495506Y-123300537D01*
X138605820Y-123359502D01*
X138686466Y-123383966D01*
X138602412Y-123459731D01*
X138428359Y-123693080D01*
X138303175Y-123955901D01*
X138258524Y-124103110D01*
X138379845Y-124333000D01*
X139573000Y-124333000D01*
X139573000Y-122047000D01*
X139827000Y-122047000D01*
X139827000Y-124333000D01*
X142113000Y-124333000D01*
X142113000Y-122047000D01*
X142367000Y-122047000D01*
X142367000Y-124333000D01*
X143560155Y-124333000D01*
X143681476Y-124103110D01*
X143636825Y-123955901D01*
X143511641Y-123693080D01*
X143337588Y-123459731D01*
X143121355Y-123264822D01*
X142995745Y-123190000D01*
X143121355Y-123115178D01*
X143337588Y-122920269D01*
X143511641Y-122686920D01*
X143636825Y-122424099D01*
X143681476Y-122276890D01*
X143560155Y-122047000D01*
X142367000Y-122047000D01*
X142113000Y-122047000D01*
X139827000Y-122047000D01*
X139573000Y-122047000D01*
X138373750Y-122047000D01*
X138215000Y-122205750D01*
X138211928Y-122770000D01*
X137922000Y-122770000D01*
X137922000Y-121070000D01*
X138211928Y-121070000D01*
X138215000Y-121634250D01*
X138373750Y-121793000D01*
X139573000Y-121793000D01*
X139573000Y-120593750D01*
X139827000Y-120593750D01*
X139827000Y-121793000D01*
X142113000Y-121793000D01*
X142113000Y-120599186D01*
X142367000Y-120599186D01*
X142367000Y-121793000D01*
X143560155Y-121793000D01*
X143681476Y-121563110D01*
X143636825Y-121415901D01*
X143511641Y-121153080D01*
X143337588Y-120919731D01*
X143121355Y-120724822D01*
X142871252Y-120575843D01*
X142596891Y-120478519D01*
X142367000Y-120599186D01*
X142113000Y-120599186D01*
X141883109Y-120478519D01*
X141608748Y-120575843D01*
X141358645Y-120724822D01*
X141162498Y-120901626D01*
X141139502Y-120825820D01*
X141080537Y-120715506D01*
X141001185Y-120618815D01*
X140904494Y-120539463D01*
X140794180Y-120480498D01*
X140674482Y-120444188D01*
X140550000Y-120431928D01*
X139985750Y-120435000D01*
X139827000Y-120593750D01*
X139573000Y-120593750D01*
X139414250Y-120435000D01*
X138850000Y-120431928D01*
X138725518Y-120444188D01*
X138605820Y-120480498D01*
X138495506Y-120539463D01*
X138398815Y-120618815D01*
X138319463Y-120715506D01*
X138260498Y-120825820D01*
X138224188Y-120945518D01*
X138211928Y-121070000D01*
X137922000Y-121070000D01*
X137922000Y-120142000D01*
X144018000Y-120142000D01*
X144018000Y-126238000D01*
%TA.AperFunction,Conductor*%
D29*
G36*
X144018000Y-126238000D02*
G01*
X137922000Y-126238000D01*
X137922000Y-124816890D01*
X138258524Y-124816890D01*
X138303175Y-124964099D01*
X138428359Y-125226920D01*
X138602412Y-125460269D01*
X138818645Y-125655178D01*
X139068748Y-125804157D01*
X139343109Y-125901481D01*
X139573000Y-125780814D01*
X139573000Y-124587000D01*
X139827000Y-124587000D01*
X139827000Y-125780814D01*
X140056891Y-125901481D01*
X140331252Y-125804157D01*
X140581355Y-125655178D01*
X140797588Y-125460269D01*
X140970000Y-125229120D01*
X141142412Y-125460269D01*
X141358645Y-125655178D01*
X141608748Y-125804157D01*
X141883109Y-125901481D01*
X142113000Y-125780814D01*
X142113000Y-124587000D01*
X142367000Y-124587000D01*
X142367000Y-125780814D01*
X142596891Y-125901481D01*
X142871252Y-125804157D01*
X143121355Y-125655178D01*
X143337588Y-125460269D01*
X143511641Y-125226920D01*
X143636825Y-124964099D01*
X143681476Y-124816890D01*
X143560155Y-124587000D01*
X142367000Y-124587000D01*
X142113000Y-124587000D01*
X139827000Y-124587000D01*
X139573000Y-124587000D01*
X138379845Y-124587000D01*
X138258524Y-124816890D01*
X137922000Y-124816890D01*
X137922000Y-122770000D01*
X138211928Y-122770000D01*
X138224188Y-122894482D01*
X138260498Y-123014180D01*
X138319463Y-123124494D01*
X138398815Y-123221185D01*
X138495506Y-123300537D01*
X138605820Y-123359502D01*
X138686466Y-123383966D01*
X138602412Y-123459731D01*
X138428359Y-123693080D01*
X138303175Y-123955901D01*
X138258524Y-124103110D01*
X138379845Y-124333000D01*
X139573000Y-124333000D01*
X139573000Y-122047000D01*
X139827000Y-122047000D01*
X139827000Y-124333000D01*
X142113000Y-124333000D01*
X142113000Y-122047000D01*
X142367000Y-122047000D01*
X142367000Y-124333000D01*
X143560155Y-124333000D01*
X143681476Y-124103110D01*
X143636825Y-123955901D01*
X143511641Y-123693080D01*
X143337588Y-123459731D01*
X143121355Y-123264822D01*
X142995745Y-123190000D01*
X143121355Y-123115178D01*
X143337588Y-122920269D01*
X143511641Y-122686920D01*
X143636825Y-122424099D01*
X143681476Y-122276890D01*
X143560155Y-122047000D01*
X142367000Y-122047000D01*
X142113000Y-122047000D01*
X139827000Y-122047000D01*
X139573000Y-122047000D01*
X138373750Y-122047000D01*
X138215000Y-122205750D01*
X138211928Y-122770000D01*
X137922000Y-122770000D01*
X137922000Y-121070000D01*
X138211928Y-121070000D01*
X138215000Y-121634250D01*
X138373750Y-121793000D01*
X139573000Y-121793000D01*
X139573000Y-120593750D01*
X139827000Y-120593750D01*
X139827000Y-121793000D01*
X142113000Y-121793000D01*
X142113000Y-120599186D01*
X142367000Y-120599186D01*
X142367000Y-121793000D01*
X143560155Y-121793000D01*
X143681476Y-121563110D01*
X143636825Y-121415901D01*
X143511641Y-121153080D01*
X143337588Y-120919731D01*
X143121355Y-120724822D01*
X142871252Y-120575843D01*
X142596891Y-120478519D01*
X142367000Y-120599186D01*
X142113000Y-120599186D01*
X141883109Y-120478519D01*
X141608748Y-120575843D01*
X141358645Y-120724822D01*
X141162498Y-120901626D01*
X141139502Y-120825820D01*
X141080537Y-120715506D01*
X141001185Y-120618815D01*
X140904494Y-120539463D01*
X140794180Y-120480498D01*
X140674482Y-120444188D01*
X140550000Y-120431928D01*
X139985750Y-120435000D01*
X139827000Y-120593750D01*
X139573000Y-120593750D01*
X139414250Y-120435000D01*
X138850000Y-120431928D01*
X138725518Y-120444188D01*
X138605820Y-120480498D01*
X138495506Y-120539463D01*
X138398815Y-120618815D01*
X138319463Y-120715506D01*
X138260498Y-120825820D01*
X138224188Y-120945518D01*
X138211928Y-121070000D01*
X137922000Y-121070000D01*
X137922000Y-120142000D01*
X144018000Y-120142000D01*
X144018000Y-126238000D01*
G37*
%TD.AperFunction*%
%TD*%
M02*
