M48
; DRILL file {KiCad 5.1.12-84ad8e8a86~92~ubuntu21.04.1} date ti. 23. nov. 2021 kl. 21.42 +0100
; FORMAT={-:-/ absolute / metric / decimal}
; #@! TF.CreationDate,2021-11-23T21:42:11+01:00
; #@! TF.GenerationSoftware,Kicad,Pcbnew,5.1.12-84ad8e8a86~92~ubuntu21.04.1
; #@! TF.FileFunction,Plated,1,2,PTH
FMAT,2
METRIC
T1C0.400
T2C0.406
T3C0.700
T4C1.000
T5C2.000
%
G90
G05
T1
X103.481Y-135.532
X104.394Y-142.748
X105.41Y-129.54
X105.41Y-132.08
X107.545Y-143.106
X108.525Y-160.401
X109.977Y-157.221
X112.95Y-160.401
X114.3Y-139.446
X116.472Y-166.002
X118.063Y-126.746
X118.11Y-141.986
X118.11Y-143.256
X118.364Y-155.829
X118.594Y-132.612
X119.126Y-126.746
X119.701Y-165.866
X119.888Y-149.098
X120.015Y-157.48
X121.268Y-149.098
X122.877Y-127.059
X123.444Y-149.098
X123.444Y-153.67
X123.51Y-135.57
X129.54Y-134.62
X129.658Y-140.852
X129.667Y-123.317
X131.16Y-160.401
X133.833Y-157.251
X134.088Y-125.88
X135.32Y-160.336
X135.89Y-138.43
T2
X118.627Y-123.77
X118.627Y-125.12
X119.477Y-123.77
X119.477Y-125.12
X120.327Y-123.77
X120.327Y-125.12
X121.177Y-123.77
X121.177Y-125.12
X122.027Y-123.77
X122.027Y-125.12
X122.877Y-123.77
X122.877Y-125.12
X123.727Y-123.77
X123.727Y-125.12
X124.577Y-123.77
X124.577Y-125.12
T4
X89.64Y-157.56
X89.64Y-162.56
X91.44Y-121.92
X91.44Y-124.46
X91.44Y-127.0
X91.44Y-129.54
X91.44Y-132.08
X91.44Y-134.62
X91.44Y-137.16
X91.44Y-139.7
X99.06Y-121.92
X99.06Y-124.46
X99.06Y-129.54
X101.6Y-121.92
X101.6Y-124.46
X101.6Y-129.54
X104.14Y-157.56
X104.14Y-160.06
X104.14Y-162.56
X106.68Y-121.92
X106.68Y-124.46
X109.22Y-121.92
X109.22Y-124.46
X139.7Y-121.92
X139.7Y-124.46
X139.7Y-129.54
X139.7Y-157.48
X139.7Y-159.98
X139.7Y-162.48
X142.24Y-121.92
X142.24Y-124.46
X142.24Y-129.54
X152.4Y-121.92
X152.4Y-124.46
X152.4Y-127.0
X152.4Y-129.54
X152.4Y-132.08
X152.4Y-134.62
X152.4Y-137.16
X152.4Y-139.7
X154.2Y-157.48
X154.2Y-162.48
T3
X117.277Y-120.405G85X117.277Y-121.105
G05
X117.277Y-123.44G85X117.277Y-124.84
G05
X125.927Y-120.405G85X125.927Y-121.105
G05
X125.927Y-123.44G85X125.927Y-124.84
G05
T5
X96.89Y-154.46G85X96.39Y-154.46
G05
X96.89Y-165.66G85X96.39Y-165.66
G05
X146.95Y-154.38G85X147.45Y-154.38
G05
X146.95Y-165.58G85X147.45Y-165.58
G05
T0
M30
